<svg width="16" height="20" viewBox="0 0 16 20" fill="none" xmlns="http://www.w3.org/2000/svg">
<path d="M15.74 6.33L10.3 0.329997C10.2065 0.226404 10.0924 0.143526 9.96492 0.0866923C9.83747 0.0298583 9.69954 0.0003267 9.56 -3.1293e-06H2.56C2.22775 -0.00396622 1.89797 0.0575569 1.5895 0.181053C1.28103 0.304549 0.999904 0.4876 0.762182 0.719751C0.524459 0.951902 0.334794 1.22861 0.204018 1.53406C0.0732421 1.83952 0.00391638 2.16775 0 2.5V17.5C0.00391638 17.8322 0.0732421 18.1605 0.204018 18.4659C0.334794 18.7714 0.524459 19.0481 0.762182 19.2802C0.999904 19.5124 1.28103 19.6954 1.5895 19.8189C1.89797 19.9424 2.22775 20.004 2.56 20H13.44C13.7723 20.004 14.102 19.9424 14.4105 19.8189C14.719 19.6954 15.0001 19.5124 15.2378 19.2802C15.4755 19.0481 15.6652 18.7714 15.796 18.4659C15.9268 18.1605 15.9961 17.8322 16 17.5V7C15.9994 6.75216 15.9067 6.51339 15.74 6.33ZM13.65 7H9.71C9.50384 6.9797 9.31391 6.87923 9.18111 6.72025C9.04831 6.56126 8.98327 6.35647 9 6.15V2H9.11L13.65 7ZM13.44 18H2.56C2.49037 18.004 2.42063 17.9943 2.35477 17.9714C2.28892 17.9484 2.22824 17.9127 2.17621 17.8662C2.12419 17.8198 2.08184 17.7635 2.0516 17.7007C2.02137 17.6378 2.00383 17.5696 2 17.5V2.5C2.00383 2.43036 2.02137 2.36216 2.0516 2.29931C2.08184 2.23647 2.12419 2.1802 2.17621 2.13375C2.22824 2.0873 2.28892 2.05158 2.35477 2.02863C2.42063 2.00567 2.49037 1.99594 2.56 2H7V6.15C6.98386 6.88662 7.25975 7.59972 7.76747 8.13367C8.27518 8.66761 8.9735 8.97905 9.71 9H14V17.5C13.9962 17.5696 13.9786 17.6378 13.9484 17.7007C13.9182 17.7635 13.8758 17.8198 13.8238 17.8662C13.7718 17.9127 13.7111 17.9484 13.6452 17.9714C13.5794 17.9943 13.5096 18.004 13.44 18Z" fill="white"/>
</svg>
