<svg width="52" height="52" viewBox="0 0 52 52" fill="none" xmlns="http://www.w3.org/2000/svg">
<path d="M13.195 45.63C12.6204 45.63 12.0693 45.4017 11.6629 44.9954C11.2566 44.5891 11.0283 44.038 11.0283 43.4633L10.7033 11.7C10.6773 11.0551 10.7789 10.4114 11.0025 9.80588C11.2261 9.20039 11.5672 8.64508 12.0061 8.17189C12.4451 7.69869 12.9733 7.31695 13.5603 7.04862C14.1473 6.78028 14.7816 6.63065 15.4267 6.60833L36.205 6.5C36.8509 6.51128 37.4883 6.6497 38.0807 6.90735C38.6731 7.165 39.209 7.53683 39.6576 8.00161C40.1063 8.46639 40.459 9.015 40.6957 9.61612C40.9323 10.2172 41.0482 10.8591 41.0367 11.505L41.34 43.2683C41.3437 43.648 41.2476 44.022 41.0613 44.3528C40.875 44.6837 40.605 44.9597 40.2783 45.1533C39.949 45.3435 39.5753 45.4436 39.195 45.4436C38.8147 45.4436 38.441 45.3435 38.1117 45.1533L25.7617 38.3067L14.3 45.305C13.9606 45.4946 13.583 45.6056 13.195 45.63ZM25.675 33.605C26.0515 33.6057 26.4226 33.6947 26.7583 33.865L36.9633 39.52L36.7033 11.4617C36.7033 11.0283 36.4217 10.725 36.2483 10.7467L15.4483 10.9417C15.275 10.9417 15.0367 11.2233 15.0367 11.6567L15.2967 39.6067L24.57 33.9083C24.9068 33.7155 25.287 33.6111 25.675 33.605Z" fill="white"/>
</svg>