<svg width="181" height="39" viewBox="0 0 181 39" fill="none" xmlns="http://www.w3.org/2000/svg">
<path fill-rule="evenodd" clip-rule="evenodd" d="M19.0629 1.18487C19.6859 1.03554 20.2833 1.32987 20.8686 1.53412C21.4373 1.73261 21.9898 1.93374 22.539 2.15537C24.26 2.84996 26.2418 3.92431 27.7712 4.99186C29.4966 6.19616 31.7485 8.313 33.0038 10.0446C35.2445 13.1356 36.3285 15.3897 37.6057 19.2187C37.8981 20.0956 37.7326 20.1611 37.4804 21.0078C35.9629 26.1011 33.8557 30.9895 31.5171 35.7066C31.3225 36.099 31.3677 36.1956 30.9551 36.3262C30.6604 36.4194 30.3756 36.4813 30.0739 36.5569C23.1665 38.2857 16.7047 38.3717 9.79501 36.5372C8.75684 36.2615 8.87676 36.4325 8.37406 35.6625C5.13698 30.7034 2.67442 26.3637 1.19599 19.8944C1.02826 19.1603 1.30903 18.8062 1.59835 18.1731C2.39701 16.4257 2.88292 15.301 3.89319 13.5836C4.19291 13.0742 4.46472 12.626 4.757 12.151C6.72334 8.95539 9.46604 5.99712 12.6071 3.93993C14.473 2.71793 16.5487 1.78738 19.0629 1.18479V1.18487ZM0.000239837 19.3445C0.000239837 19.8269 0.277411 20.887 0.404924 21.3145L0.948954 23.2243C1.28736 24.4636 2.36751 27.1657 2.97901 28.3968C3.12499 28.6906 3.21701 28.9034 3.35356 29.2093L4.18691 30.8293C5.465 33.0335 5.89255 33.8899 7.36802 36.195C7.53087 36.4495 7.67022 36.6545 7.84818 36.9018C8.14909 37.3201 8.06059 37.2565 8.60734 37.4084C13.695 38.822 19.5112 39.4145 24.9285 38.6889C26.6782 38.4545 30.0672 37.8936 31.719 37.3341C32.1044 37.2035 32.0898 37.0281 32.2574 36.6855C32.5098 36.1695 32.7535 35.691 33.0214 35.1544L33.7848 33.5435C35.028 31.0683 36.9519 26.1046 37.8015 23.5511C37.9901 22.9839 38.1899 22.4379 38.3616 21.8158C39.0352 19.3734 39.128 20.5989 38.3632 18.1382C37.39 15.0069 34.8247 10.2365 32.5919 8.00266C31.809 7.21935 31.2871 6.46535 30.1226 5.56643C29.8919 5.38828 29.6732 5.19475 29.4292 4.99394C28.6091 4.31897 26.7523 3.06526 25.7751 2.55659C24.4128 1.84751 22.9934 1.13923 21.5145 0.647531C19.2034 -0.120882 19.8989 -0.20175 17.8337 0.385468C17.1143 0.589962 16.6674 0.772597 16.0161 1.01977C14.791 1.4848 13.7657 2.01605 12.7325 2.64042C11.2912 3.51148 11.043 3.79741 9.88263 4.69545C7.85505 6.26454 5.61594 9.05579 4.15853 11.2359C3.16624 12.7203 2.30011 14.3412 1.50218 15.9395C1.30711 16.3304 0 19.0648 0 19.3444L0.000239837 19.3445Z" fill="#0984E3"/>
<path fill-rule="evenodd" clip-rule="evenodd" d="M7.79645 23.8811C9.04768 23.9369 13.8818 23.6878 14.5971 24.1245C15.3042 24.5563 15.0681 26.1991 15.0681 27.1835L15.0741 31.2639L19.124 34.8572C19.2284 31.9292 19.1405 27.5718 19.1399 24.4913C19.1396 22.5897 17.7519 20.7455 16.1824 20.0833C15.1163 19.6335 10.3507 19.7618 9.01298 19.7395C7.83123 19.7198 5.1748 19.5467 4.15845 19.7056C4.29555 19.8316 4.40148 20.0059 4.54355 20.1799L6.90202 22.8048C7.13314 23.0893 7.63896 23.6157 7.79645 23.881V23.8811Z" fill="#0984E3"/>
<path fill-rule="evenodd" clip-rule="evenodd" d="M19.7155 34.8456C20.1001 34.6335 20.4628 34.2094 20.7846 33.9065C20.9275 33.7719 21.0242 33.7143 21.1686 33.5748L23.3219 31.616C23.7185 31.2026 23.788 31.4177 23.7823 30.6719L23.7867 25.0426C23.8523 24.1193 24.4571 23.9111 25.3769 23.8943C27.2589 23.8601 29.1609 23.906 31.0464 23.8915C31.3356 23.4977 31.6117 23.2353 31.9505 22.8397C32.2733 22.4629 32.509 22.1823 32.8633 21.7734L34.686 19.6888C32.4109 19.5714 29.6743 19.7438 27.3539 19.7736C24.5245 19.8099 22.7281 19.4492 21.1343 21.191C19.4766 23.0026 19.7123 24.3391 19.7123 27.2626C19.7123 29.782 19.675 32.3298 19.7156 34.8456H19.7155Z" fill="#0984E3"/>
<path fill-rule="evenodd" clip-rule="evenodd" d="M23.236 13.0838C23.6462 13.6186 24.2723 13.8869 24.4375 14.8341C24.5795 15.6492 24.2123 16.6163 23.8792 17.1292C22.7718 18.8335 20.5219 17.6407 19.5258 17.6176C18.3866 17.5911 16.2833 18.8289 15.083 17.2238C14.7508 16.7794 14.353 15.7752 14.4389 14.9866C14.5526 13.9431 15.3329 13.5399 15.5265 13.1879C12.9889 12.5563 11.5265 11.3801 10.9105 11.1768C10.3856 11.6684 8.25816 15.0677 7.9873 16.0462C9.39451 17.5784 12.5061 18.5421 14.8636 19.1133C15.8153 19.344 15.6045 19.3496 16.3234 18.9073C18.3377 17.6679 20.4883 17.7401 22.499 18.9038C23.2524 19.3399 22.9449 19.3465 23.9795 19.124C25.5709 18.7817 27.0456 18.2886 28.4752 17.6166C28.9201 17.4075 29.3371 17.18 29.7541 16.9164L31.0275 16.1363C30.8492 15.286 28.4622 11.5793 27.9086 11.1636C26.3977 11.7232 25.8412 12.3955 23.236 13.0837V13.0838Z" fill="#0984E3"/>
<path fill-rule="evenodd" clip-rule="evenodd" d="M16.0317 12.8408C16.7228 12.666 17.4052 11.9803 17.7115 11.4286C18.035 10.8457 18.4356 9.71854 18.3531 8.92347C16.9814 8.90721 15.3748 8.05233 14.3893 7.56183C13.7065 7.87297 11.8766 9.92327 11.3466 10.6344C11.791 11.1345 13.8925 12.1492 14.7295 12.4337C15.0856 12.5548 15.7484 12.7057 16.0318 12.8407L16.0317 12.8408Z" fill="#0984E3"/>
<path fill-rule="evenodd" clip-rule="evenodd" d="M20.5217 8.94565C20.5994 10.7041 21.4365 12.3745 22.6982 12.7562C22.9522 12.5964 24.7037 12.0961 25.2105 11.8915C26.0605 11.5484 26.7883 11.1557 27.58 10.7762C27.2434 10.0954 25.1722 8.13408 24.5092 7.63165C23.5308 7.90717 22.7082 8.72066 20.5218 8.94565H20.5217Z" fill="#0984E3"/>
<path fill-rule="evenodd" clip-rule="evenodd" d="M18.4197 8.34717C18.3828 7.81528 17.8943 8.07022 17.7018 6.95839C18.7517 6.97096 18.9622 6.56374 19.4492 6.06131C19.9336 6.56101 20.1588 6.97296 21.2047 6.96095C21.1015 7.52711 20.8613 7.92545 20.4817 8.094L20.4831 8.37199C22.4384 8.151 22.7395 7.68813 23.9837 7.26833L23.9062 7.14815C23.8432 7.06792 23.8876 7.10548 23.7832 7.00267C23.6724 6.89354 23.6187 6.87448 23.5147 6.80066C23.3052 6.65189 23.1828 6.54772 22.9694 6.39655C22.6454 6.16708 22.2088 5.83079 21.8525 5.61629C21.5365 5.42613 19.7622 4.29661 19.5017 4.25754C18.9732 4.17827 15.5345 6.57511 14.944 7.05263C15.3519 7.60222 17.5051 8.20249 18.4198 8.34709L18.4197 8.34717Z" fill="#0984E3"/>
<path fill-rule="evenodd" clip-rule="evenodd" d="M16.1632 19.6199C17.8473 19.9749 18.9087 21.3758 19.3685 23.0793C19.6785 22.7197 19.67 22.16 20.5748 20.9478C21.0855 20.2633 21.677 20.0329 22.584 19.5713C21.882 19.0158 20.6037 18.4557 19.4497 18.4467C18.5379 18.4397 16.5541 19.0567 16.1633 19.6199L16.1632 19.6199Z" fill="#0984E3"/>
<path d="M44.4165 27.5836V13.8125H51.0282C52.5885 13.8125 53.7945 14.2129 54.6462 15.0138C55.4978 15.8147 55.9236 16.9183 55.9236 18.3247C55.9236 19.7311 55.4978 20.8348 54.6462 21.6356C53.7945 22.4366 52.5885 22.837 51.0282 22.837H48.0052V27.5836H44.4165V27.5836ZM48.0052 20.0827H50.4041C51.8084 20.0827 52.5105 19.4967 52.5105 18.3247C52.5105 17.1527 51.8084 16.5667 50.4041 16.5667H48.0052V20.0827ZM57.601 27.5836V13.8125H60.234L66.5531 21.704V13.8125H69.8687V27.5836H67.2553L60.9361 19.6921V27.5836H57.601ZM72.3847 27.5836V13.8125H79.0159C80.4982 13.8125 81.6456 14.1348 82.4583 14.7794C83.2709 15.424 83.6772 16.2868 83.6772 17.3676C83.6772 18.0839 83.4985 18.7089 83.141 19.2428C82.7834 19.7767 82.286 20.1739 81.6489 20.4344C82.4161 20.6688 83.0077 21.0627 83.4237 21.6162C83.8398 22.1696 84.0479 22.8565 84.0479 23.677C84.0479 24.888 83.6155 25.8419 82.7509 26.5386C81.8863 27.2353 80.7063 27.5836 79.2111 27.5836H72.3847L72.3847 27.5836ZM75.8173 19.2819H78.3723C79.0224 19.2819 79.5003 19.1647 79.8059 18.9303C80.1114 18.6959 80.2642 18.3378 80.2642 17.8559C80.2642 17.3741 80.1114 17.0192 79.8059 16.7914C79.5003 16.5635 79.0225 16.4495 78.3723 16.4495H75.8173V19.2819ZM75.8173 24.9466H78.7233C79.3865 24.9466 79.8708 24.8196 80.1763 24.5656C80.4819 24.3117 80.6347 23.9309 80.6347 23.423C80.6347 22.915 80.4819 22.5374 80.1763 22.29C79.8708 22.0426 79.3865 21.9189 78.7233 21.9189H75.8173V24.9466ZM86.4273 27.5836V13.8126H92.1224C93.6046 13.8126 94.7488 14.1674 95.555 14.8771C96.3611 15.5868 96.7642 16.5797 96.7642 17.856C96.7642 18.8847 96.4911 19.7279 95.945 20.3856C95.3989 21.0432 94.6253 21.4828 93.6241 21.7042C94.2483 21.9125 94.7749 22.4139 95.2039 23.2082L97.5834 27.5837H95.3599L92.9805 23.1887C92.7074 22.6808 92.3921 22.339 92.0346 22.1632C91.677 21.9874 91.2187 21.8995 90.6596 21.8995H88.4557V27.5837H86.4273L86.4273 27.5836ZM88.4557 20.3758H91.7907C93.7931 20.3758 94.7942 19.5488 94.7942 17.895C94.7942 16.2542 93.7931 15.4338 91.7907 15.4338H88.4557V20.3758ZM103.649 27.7594C102.089 27.7594 100.86 27.3199 99.9627 26.4408C99.0655 25.5618 98.6169 24.3606 98.6169 22.8369C98.6169 21.8602 98.8152 20.9975 99.2118 20.2488C99.6084 19.5 100.158 18.9172 100.86 18.5005C101.562 18.0838 102.368 17.8754 103.278 17.8754C104.592 17.8754 105.625 18.2954 106.379 19.1353C107.133 19.9753 107.511 21.131 107.511 22.6025V23.2666H100.528C100.671 25.2461 101.718 26.2357 103.668 26.2357C104.214 26.2357 104.751 26.151 105.277 25.9818C105.804 25.8125 106.301 25.5325 106.769 25.1418L107.354 26.5092C106.925 26.8999 106.373 27.2059 105.697 27.4273C105.021 27.6487 104.338 27.7593 103.649 27.7593L103.649 27.7594ZM103.356 19.2623C102.537 19.2623 101.887 19.5162 101.406 20.0241C100.925 20.532 100.632 21.2091 100.528 22.0556H105.853C105.814 21.17 105.58 20.4831 105.151 19.9948C104.722 19.5064 104.123 19.2623 103.356 19.2623V19.2623ZM109.656 31.0996V18.0512H111.587V19.6725C111.86 19.1257 112.276 18.6894 112.835 18.3638C113.394 18.0383 114.038 17.8754 114.766 17.8754C115.611 17.8754 116.349 18.0772 116.98 18.481C117.61 18.8847 118.098 19.4543 118.442 20.1902C118.787 20.9259 118.959 21.8017 118.959 22.8174C118.959 23.8332 118.787 24.7122 118.442 25.4545C118.098 26.1967 117.61 26.7665 116.98 27.1637C116.349 27.5609 115.611 27.7595 114.766 27.7595C114.064 27.7595 113.436 27.6065 112.884 27.3004C112.331 26.9944 111.912 26.5745 111.626 26.0406V31.0997H109.656L109.656 31.0996ZM114.278 26.2358C115.098 26.2358 115.751 25.9427 116.239 25.3568C116.726 24.7708 116.97 23.9243 116.97 22.8174C116.97 21.7105 116.726 20.8673 116.239 20.2878C115.751 19.7083 115.098 19.4186 114.278 19.4186C113.459 19.4186 112.806 19.7084 112.318 20.2878C111.831 20.8674 111.587 21.7106 111.587 22.8174C111.587 23.9243 111.831 24.7708 112.318 25.3568C112.806 25.9428 113.459 26.2358 114.278 26.2358ZM125.317 27.7594C124.355 27.7594 123.523 27.5575 122.821 27.1538C122.119 26.7501 121.576 26.1805 121.192 25.4446C120.809 24.7089 120.617 23.8331 120.617 22.8174C120.617 21.8016 120.809 20.9259 121.192 20.1902C121.576 19.4544 122.119 18.8847 122.821 18.481C123.523 18.0772 124.355 17.8754 125.317 17.8754C126.254 17.8754 127.073 18.0772 127.775 18.481C128.477 18.8847 129.023 19.4543 129.413 20.1902C129.803 20.9259 129.998 21.8017 129.998 22.8174C129.998 23.8332 129.803 24.7089 129.413 25.4446C129.023 26.1804 128.477 26.7501 127.775 27.1538C127.073 27.5575 126.254 27.7594 125.317 27.7594ZM125.317 26.2358C126.124 26.2358 126.774 25.9427 127.268 25.3568C127.762 24.7708 128.009 23.9243 128.009 22.8174C128.009 21.7105 127.762 20.8673 127.268 20.2878C126.774 19.7083 126.124 19.4186 125.317 19.4186C124.498 19.4186 123.842 19.7084 123.348 20.2878C122.853 20.8674 122.606 21.7106 122.606 22.8174C122.606 23.9243 122.853 24.7708 123.348 25.3568C123.842 25.9428 124.498 26.2358 125.317 26.2358ZM135.537 27.7594C134.757 27.7594 134.029 27.6584 133.353 27.4566C132.677 27.2548 132.111 26.9715 131.656 26.6069L132.222 25.2786C132.703 25.6172 133.233 25.8777 133.811 26.06C134.39 26.2423 134.972 26.3335 135.557 26.3335C136.246 26.3335 136.766 26.2098 137.117 25.9624C137.468 25.715 137.644 25.3829 137.644 24.9662C137.644 24.6276 137.527 24.3639 137.293 24.1751C137.059 23.9862 136.708 23.8397 136.24 23.7356L134.387 23.3645C132.748 23.0259 131.929 22.1795 131.929 20.8251C131.929 19.9265 132.287 19.2103 133.002 18.6764C133.717 18.1425 134.653 17.8755 135.81 17.8755C136.474 17.8755 137.107 17.9732 137.712 18.1685C138.317 18.3639 138.821 18.6569 139.224 19.0475L138.658 20.3758C138.268 20.0372 137.819 19.7767 137.312 19.5944C136.805 19.4121 136.305 19.3209 135.81 19.3209C135.134 19.3209 134.621 19.4479 134.27 19.7018C133.919 19.9557 133.743 20.2976 133.743 20.7273C133.743 21.3785 134.172 21.7951 135.03 21.9774L136.883 22.3486C137.728 22.5179 138.369 22.8043 138.804 23.208C139.24 23.6117 139.458 24.1587 139.458 24.8488C139.458 25.7604 139.1 26.4734 138.385 26.9878C137.67 27.5021 136.72 27.7593 135.537 27.7593V27.7594ZM141.466 15.844V13.793H143.768V15.844H141.466ZM141.642 27.5836V18.0512H143.612V27.5836H141.642ZM150.438 27.7594C149.242 27.7594 148.351 27.4534 147.766 26.8413C147.181 26.2292 146.888 25.3437 146.888 24.1848V19.5748H145.036V18.0512H146.888V15.1798H148.858V18.0512H151.803V19.5748H148.858V24.0285C148.858 24.7186 149.005 25.2396 149.297 25.5912C149.59 25.9427 150.067 26.1186 150.731 26.1186C150.939 26.1186 151.14 26.0958 151.335 26.0502C151.53 26.0046 151.725 25.9492 151.92 25.8841L152.232 27.3687C152.037 27.4858 151.768 27.5802 151.423 27.6519C151.078 27.7235 150.75 27.7593 150.438 27.7593L150.438 27.7594ZM157.537 27.7594C156.575 27.7594 155.743 27.5575 155.041 27.1538C154.339 26.7501 153.796 26.1805 153.412 25.4446C153.029 24.7089 152.837 23.8331 152.837 22.8174C152.837 21.8016 153.029 20.9259 153.412 20.1902C153.796 19.4544 154.339 18.8847 155.041 18.481C155.743 18.0772 156.575 17.8754 157.537 17.8754C158.474 17.8754 159.293 18.0772 159.995 18.481C160.697 18.8847 161.243 19.4543 161.633 20.1902C162.023 20.9259 162.218 21.8017 162.218 22.8174C162.218 23.8332 162.023 24.7089 161.633 25.4446C161.243 26.1804 160.697 26.7501 159.995 27.1538C159.293 27.5575 158.474 27.7594 157.537 27.7594ZM157.537 26.2358C158.344 26.2358 158.994 25.9427 159.488 25.3568C159.982 24.7708 160.229 23.9243 160.229 22.8174C160.229 21.7105 159.982 20.8673 159.488 20.2878C158.994 19.7083 158.344 19.4186 157.537 19.4186C156.718 19.4186 156.062 19.7084 155.568 20.2878C155.073 20.8674 154.826 21.7106 154.826 22.8174C154.826 23.9243 155.073 24.7708 155.568 25.3568C156.062 25.9428 156.718 26.2358 157.537 26.2358ZM164.422 27.5836V18.0512H166.333V19.7506C166.828 18.6177 167.855 17.9861 169.415 17.8559L170.059 17.8168L170.195 19.4966L169.005 19.6138C167.276 19.7832 166.411 20.6751 166.411 22.2899V27.5835H164.422V27.5836ZM173.257 31.0996L174.954 27.3297L170.975 18.0512H173.082L176.007 25.2982L178.972 18.0512H181L175.325 31.0996H173.257H173.257Z" fill="#0984E3"/>
</svg>
