<svg width="53" height="53" viewBox="0 0 53 53" fill="none" xmlns="http://www.w3.org/2000/svg">
<g clip-path="url(#clip0_92_632)">
<path d="M28.1869 12.1051C22.3269 8.17626 14.3895 9.74209 10.4606 15.602C6.53175 21.462 8.09759 29.3994 13.9575 33.3283C19.1487 36.8087 25.9697 35.9716 30.188 31.663L37.6366 37.2848C38.9038 38.2452 40.7167 37.9373 41.6007 36.6188L41.7288 36.4277C42.6128 35.1092 42.2092 33.3152 40.8394 32.5077L32.8101 27.7521C35.1983 22.2072 33.378 15.5856 28.1869 12.1051ZM28.0404 27.3886C25.461 31.2358 20.2474 32.2643 16.4003 29.6849C12.5531 27.1055 11.5246 21.8919 14.104 18.0448C16.6834 14.1976 21.897 13.1691 25.7441 15.7485C29.5977 18.3321 30.6198 23.5415 28.0404 27.3886Z" fill="#333333" fill-opacity="0.35"/>
</g>
<defs>
<clipPath id="clip0_92_632">
<rect width="37.5686" height="37.5686" fill="white" transform="translate(0 31.2041) rotate(-56.1596)"/>
</clipPath>
</defs>
</svg>
