<svg width="460" height="460" viewBox="0 0 460 460" fill="none" xmlns="http://www.w3.org/2000/svg">
<path d="M377.78 135.36L375.94 132.342C360.502 106.895 332.589 91.5584 303.158 93.426C299.368 93.6607 295.601 94.1774 291.888 94.9716C265.135 100.694 241.85 120.934 232.199 146.841C226.522 162.086 224.94 179.63 214.167 191.728C200.155 207.469 176.355 207.966 155.434 207.313C134.513 206.66 110.694 207.221 96.7471 223.026C88.0163 232.926 85.2379 247.002 85.9463 260.259C87.7863 295.357 112.268 326.738 143.364 342.332C174.46 357.926 211.085 359.334 245.125 352.452C292.818 342.838 338.164 316.443 365.424 275.669C392.684 234.894 399.584 179.4 377.78 135.36Z" fill="#F5F5F5"/>
<path d="M432.032 444.848C432.032 444.986 341.679 445.087 230.248 445.087C118.818 445.087 28.4463 444.986 28.4463 444.848C28.4463 444.71 118.772 444.608 230.248 444.608C341.725 444.608 432.032 444.719 432.032 444.848Z" fill="#263238"/>
<path d="M42.3198 263.847C42.3198 263.847 57.9598 277.012 60.5542 276.819C62.3181 276.721 64.0873 276.801 65.835 277.058L49.0266 261.519L42.3198 263.847Z" fill="#0984E3"/>
<path d="M221.232 284.078L61.9528 277.159C61.4685 277.139 60.9931 277.024 60.5536 276.819C60.1142 276.615 59.7194 276.326 59.392 275.968C59.0646 275.611 58.811 275.193 58.6458 274.737C58.4806 274.281 58.4069 273.798 58.4292 273.314C61.1156 185.582 65.4672 81.4568 67.9788 50.6736C68.045 49.7136 68.4847 48.8178 69.2035 48.178C69.9224 47.5383 70.8632 47.2056 71.8244 47.2512L231.214 54.1696C231.704 54.1883 232.186 54.3047 232.63 54.512C233.074 54.7192 233.472 55.0132 233.802 55.3766C234.131 55.74 234.384 56.1655 234.546 56.628C234.709 57.0906 234.777 57.581 234.747 58.0704L225.087 280.49C225.049 281.476 224.622 282.406 223.9 283.078C223.177 283.751 222.219 284.11 221.232 284.078Z" fill="#0984E3"/>
<path d="M219.162 280.563L60.076 274.822L47.5364 265.218L55.0896 37.352L219.88 48.5852L228.022 57.7116L219.162 280.563Z" fill="white"/>
<path d="M219.162 280.563L204.359 267.324L217.203 46.2484L228.022 57.7116L219.162 280.563Z" fill="#E0E0E0"/>
<path d="M206.429 272.118L44.9879 265.107C44.0069 265.069 43.0804 264.646 42.4089 263.93C41.7374 263.213 41.375 262.261 41.3999 261.28C44.0679 173.54 48.4195 69.4232 50.9495 38.64C51.0294 37.6769 51.4795 36.7823 52.2052 36.1441C52.9309 35.5059 53.8757 35.1738 54.8411 35.2176L216.402 42.228C217.393 42.2734 218.326 42.7091 218.996 43.4401C219.667 44.171 220.021 45.1376 219.981 46.1288L210.33 268.548C210.285 269.538 209.849 270.47 209.118 271.139C208.386 271.808 207.42 272.16 206.429 272.118Z" fill="#0984E3"/>
<path d="M55.2642 265.558C55.1262 265.558 57.233 214.553 59.9654 151.662C62.6978 88.7708 65.0254 37.7752 65.1542 37.7844C65.283 37.7936 63.1762 88.78 60.4438 151.69C57.7114 214.599 55.393 265.558 55.2642 265.558Z" fill="#263238"/>
<g opacity="0.3">
<path d="M196.172 259.642L66.1755 254.003L75.1639 47.0672L205.16 52.716L196.172 259.642ZM70.0119 250.442L192.657 255.769L201.324 56.1936L78.6783 50.9036L70.0119 250.442Z" fill="black"/>
</g>
<g opacity="0.3">
<path d="M144.08 238.688L116.938 237.507L116.608 245.118L143.749 246.298L144.08 238.688Z" fill="black"/>
</g>
<g opacity="0.3">
<path d="M147.733 62.0867L135.086 61.5367L134.755 69.1471L147.402 69.6971L147.733 62.0867Z" fill="black"/>
</g>
<g opacity="0.3">
<path d="M186.137 98.3837L90.823 94.2389L89.3453 128.219L184.659 132.364L186.137 98.3837Z" fill="black"/>
</g>
<g opacity="0.3">
<path d="M170.536 140.59L100.275 137.78L99.7022 152.104L169.963 154.914L170.536 140.59Z" fill="black"/>
</g>
<g opacity="0.3">
<path d="M58.6677 67.5696L48.9065 67.1452L48.6391 73.2942L58.4003 73.7186L58.6677 67.5696Z" fill="black"/>
</g>
<g opacity="0.3">
<path d="M58.2458 77.0739L48.4846 76.6494L48.2172 82.7984L57.9784 83.2229L58.2458 77.0739Z" fill="black"/>
</g>
<g opacity="0.3">
<path d="M51.1017 241.445L42.0667 241.052L41.7993 247.201L50.8343 247.594L51.1017 241.445Z" fill="black"/>
</g>
<g opacity="0.3">
<path d="M57.2365 100.218L47.4753 99.7933L42.8765 205.549L52.6376 205.973L57.2365 100.218Z" fill="black"/>
</g>
<path d="M223.965 53.866C223.965 53.866 223.965 54.1972 223.965 54.8596C223.965 55.522 223.91 56.4972 223.864 57.7668C223.762 60.3336 223.615 64.0964 223.422 68.954C223.017 78.6692 222.428 92.7268 221.711 110.078C220.22 144.817 218.16 192.795 215.887 245.778C215.418 256.662 214.967 267.324 214.507 277.536V277.776H214.268L100.078 272.734L66.3503 271.198L57.2699 270.765L54.9147 270.636L54.1235 270.581H54.9239L57.2699 270.655L66.3595 271.014L100.087 272.403L214.286 277.288L214.038 277.509C214.489 267.297 214.958 256.625 215.418 245.75C217.746 192.768 219.852 144.799 221.38 110.06C222.171 92.6992 222.806 78.6508 223.22 68.9356C223.45 64.0872 223.624 60.3152 223.744 57.7484C223.808 56.4788 223.864 55.5128 223.9 54.8412C223.937 54.1696 223.965 53.866 223.965 53.866Z" fill="#263238"/>
<path d="M29.44 189.032C29.9276 189.419 110.658 160.595 110.658 160.595L108.174 153.171L28.9248 174.331L24.5916 181.102L29.44 189.032Z" fill="#263238"/>
<path d="M44.4727 224.682C43.7735 224.922 41.1883 224.866 41.7127 221.564C42.2371 218.261 67.1875 178.406 70.0119 174.717C73.2858 170.455 77.4325 166.942 82.1743 164.413C87.8875 161.221 105.174 154.164 105.174 154.164L107.539 161.258C107.539 161.258 90.4543 166.051 82.6987 171.23C74.9431 176.41 72.7535 180.43 65.9547 192.39C59.1559 204.35 55.3103 218.675 51.9063 222.198C50.9881 223.22 49.8204 223.986 48.5174 224.422C47.2145 224.857 45.8208 224.947 44.4727 224.682Z" fill="#263238"/>
<path d="M104.779 152.085C101.154 151.984 89.1387 151.276 76.9303 152.895C65.8903 154.358 45.7975 160.614 27.5171 172.04L19.3935 177.431C19.0833 177.61 18.8455 177.892 18.7212 178.228C18.5969 178.564 18.5939 178.933 18.7127 179.271L22.3375 190.109C22.4241 190.367 22.578 190.598 22.7833 190.778C22.9887 190.957 23.2381 191.079 23.5059 191.13C24.6855 191.396 25.7918 191.919 26.746 192.661C27.7002 193.404 28.4787 194.348 29.0259 195.426C31.4823 199.842 40.8111 215.032 49.2659 217.764C57.7207 220.496 73.9771 216.375 81.3279 213.909C88.6787 211.444 104.273 205.261 108.008 195.84C111.743 186.42 112.102 174.855 112.102 168.967C112.102 163.079 113.362 160.687 117.723 159.243L114.963 151.009C111.601 151.627 108.196 151.987 104.779 152.085ZM106.002 166.603C109.213 181.157 107.465 188.986 105.202 193.77C102.286 199.944 98.1271 205.096 80.8311 210.818C62.9647 216.734 52.2467 215.243 48.2079 213.228C44.1691 211.214 36.8643 200.008 32.8163 189.686C28.7683 179.363 32.9175 175.628 38.0235 171.525C41.7035 168.562 51.0875 164.772 54.9239 163.291C55.9819 162.877 57.0491 162.555 58.1163 162.187C63.9307 160.227 73.4895 157.532 78.4115 156.832C83.3335 156.133 102.801 152.039 106.002 166.603Z" fill="#263238"/>
<path d="M106.002 166.603C106.002 166.603 105.938 166.419 105.837 166.06C105.161 163.493 103.721 161.192 101.706 159.464C99.0293 157.475 95.8336 156.306 92.5059 156.096C88.1088 155.765 83.687 156.025 79.3591 156.869C74.0852 157.748 68.8803 158.999 63.7835 160.614C61.0235 161.423 58.1898 162.371 55.2918 163.374C52.3938 164.376 49.505 165.683 46.561 167.054C45.089 167.725 43.6078 168.443 42.1542 169.225C40.6695 169.979 39.2615 170.876 37.9498 171.902C36.6009 172.944 35.3422 174.098 34.187 175.352C33.0115 176.61 32.1729 178.145 31.749 179.814C31.3625 181.523 31.3437 183.295 31.6938 185.012C32.0364 186.773 32.5606 188.493 33.2578 190.146C34.6427 193.562 36.25 196.884 38.0694 200.091C39.8521 203.327 41.9081 206.405 44.215 209.291C45.303 210.702 46.6108 211.929 48.0882 212.925C49.6692 213.676 51.3633 214.161 53.1022 214.36C56.5218 214.827 59.986 214.867 63.4154 214.48C66.7115 214.135 69.9794 213.561 73.195 212.759C76.3322 211.996 79.359 211.085 82.2662 210.082C85.0818 209.136 87.8456 208.043 90.5463 206.807C93.0747 205.674 95.4847 204.294 97.7407 202.685C99.8188 201.199 101.616 199.354 103.049 197.239C104.328 195.301 105.355 193.208 106.103 191.01C106.759 189.041 107.191 187.004 107.391 184.938C107.714 181.626 107.683 178.289 107.299 174.984C107.014 172.224 106.646 170.163 106.379 168.737C106.251 168.038 106.149 167.504 106.076 167.127C106.002 166.75 105.984 166.575 105.984 166.575C105.984 166.575 106.039 166.75 106.122 167.118L106.481 168.719C106.766 170.136 107.171 172.233 107.483 174.966C107.899 178.286 107.958 181.642 107.658 184.975C107.466 187.058 107.043 189.113 106.398 191.102C106.044 192.191 105.611 193.252 105.101 194.276C104.585 195.367 103.992 196.418 103.325 197.423C101.88 199.567 100.063 201.436 97.9615 202.943C95.6923 204.579 93.2634 205.982 90.7119 207.129C87.9992 208.384 85.2197 209.49 82.3859 210.441C79.4787 211.453 76.4335 212.382 73.2779 213.155C70.0582 213.987 66.7842 214.593 63.4798 214.967C60.0107 215.359 56.5063 215.319 53.047 214.848C51.237 214.622 49.4772 214.097 47.8398 213.293C46.3075 212.272 44.9526 211.007 43.8286 209.548C41.5074 206.663 39.436 203.585 37.637 200.348C35.7993 197.125 34.1825 193.781 32.7978 190.339C32.0876 188.657 31.5542 186.906 31.2062 185.113C30.8436 183.316 30.8687 181.463 31.2798 179.676C31.4993 178.803 31.8302 177.962 32.2642 177.174C32.716 176.408 33.2397 175.687 33.8282 175.021C35.0034 173.756 36.2804 172.59 37.6462 171.534C38.9857 170.482 40.4211 169.558 41.9334 168.774C43.4054 167.992 44.8866 167.274 46.3678 166.603C49.3302 165.26 52.2528 164.033 55.1354 162.923C58.0518 161.911 60.8855 160.972 63.6547 160.163C68.7754 158.571 74.0016 157.342 79.2947 156.483C83.6534 155.659 88.103 155.424 92.5243 155.784C95.8944 156.019 99.1232 157.231 101.816 159.27C103.451 160.64 104.69 162.422 105.404 164.432C105.603 164.942 105.76 165.469 105.873 166.005C105.975 166.41 106.002 166.603 106.002 166.603Z" fill="white"/>
<g opacity="0.3">
<path d="M54.4271 164.68C53.3323 165.103 33.8099 172.684 33.6811 180.2C33.5523 187.717 40.7559 201.894 44.8407 206.706C48.9255 211.517 61.1431 211.664 67.2243 210.34C73.3055 209.015 75.8539 159.638 75.8539 159.638C75.8539 159.638 69.2023 159.04 54.4271 164.68Z" fill="white"/>
</g>
<path d="M97.9155 157.2C97.4674 157.465 96.9999 157.696 96.5171 157.89L92.6623 159.648C88.3981 161.526 84.2396 163.636 80.2055 165.968C78.0095 167.275 75.9425 168.788 74.0323 170.485C72.5002 171.886 71.1019 173.425 69.8555 175.085C68.8067 176.53 68.0155 177.744 67.4635 178.572C67.1925 179.023 66.8848 179.451 66.5435 179.851C66.7469 179.374 66.9901 178.916 67.2703 178.48C67.7763 177.606 68.5307 176.373 69.5519 174.892C70.7839 173.19 72.1865 171.617 73.7379 170.2C75.6514 168.462 77.7349 166.921 79.9571 165.6C84.0053 163.251 88.2034 161.171 92.5243 159.372C94.1619 158.654 95.5142 158.13 96.4527 157.762C96.9225 157.531 97.4121 157.343 97.9155 157.2Z" fill="#455A64"/>
<path d="M103.169 161.35C102.275 161.844 101.354 162.287 100.409 162.674C98.6607 163.447 96.2595 164.514 93.6191 165.747C90.9787 166.98 88.6143 168.139 86.9031 168.976C85.9938 169.469 85.0534 169.903 84.0879 170.274C84.926 169.664 85.8156 169.128 86.7467 168.673C88.4211 167.753 90.7763 166.548 93.4167 165.315C96.0571 164.082 98.4951 163.052 100.28 162.362C101.21 161.937 102.177 161.598 103.169 161.35Z" fill="#455A64"/>
<path d="M203.449 130.833C203.283 131.44 121.449 156.97 121.449 156.97L118.974 149.546L195.04 118.8L202.575 121.56L203.449 130.833Z" fill="#263238"/>
<path d="M212.833 168.36C213.541 168.121 215.593 166.52 213.155 164.22C210.717 161.92 166.842 145.056 162.362 143.805C157.185 142.373 151.762 142.059 146.455 142.885C139.969 143.805 121.937 148.516 121.937 148.516L124.31 155.609C124.31 155.609 140.87 149.169 150.19 148.598C159.51 148.028 163.668 149.96 176.309 155.48C188.95 161 200.624 170.071 205.464 170.844C206.802 171.098 208.183 171.002 209.474 170.567C210.764 170.132 211.921 169.372 212.833 168.36Z" fill="#263238"/>
<path d="M112.24 151.883L115 160.117C119.37 158.654 121.817 159.804 125.35 164.505C128.883 169.206 136.151 178.222 144.79 183.512C153.428 188.802 169.63 184.368 176.99 181.912C184.35 179.455 199.824 172.96 204.921 165.701C210.018 158.442 208.325 140.696 207.681 135.691C207.469 134.501 207.524 133.278 207.842 132.112C208.16 130.946 208.734 129.865 209.521 128.947C209.703 128.743 209.828 128.494 209.885 128.226C209.941 127.959 209.927 127.681 209.843 127.42L206.08 116.582C205.965 116.249 205.741 115.965 205.443 115.776C205.146 115.587 204.793 115.505 204.442 115.543L194.709 116.122C173.236 117.962 153.419 125.092 143.722 130.557C133.004 136.592 123.823 144.403 120.98 146.657C118.205 148.621 115.283 150.368 112.24 151.883ZM144.937 134.596C149.279 132.186 158.534 128.598 164.367 126.666C165.434 126.316 166.492 125.93 167.578 125.626C171.534 124.504 181.304 121.891 186.033 122.038C192.574 122.25 198.14 122.737 201.121 133.418C204.102 144.1 204.994 157.44 202.961 161.478C200.928 165.517 193.283 173.153 175.453 179.179C158.24 185.012 151.8 183.393 145.728 180.219C141.045 177.753 134.936 172.555 128.745 158.994C122.553 145.434 140.539 137.016 144.918 134.596H144.937Z" fill="#263238"/>
<path d="M144.918 134.596C144.918 134.596 144.762 134.706 144.44 134.89L142.996 135.682C141.735 136.39 139.868 137.42 137.604 138.966C134.819 140.784 132.361 143.061 130.336 145.7C129.745 146.508 129.234 147.37 128.809 148.276C128.077 149.799 127.675 151.459 127.631 153.148C127.586 154.837 127.9 156.516 128.552 158.074C129.563 160.426 130.702 162.72 131.965 164.947C133.32 167.375 134.858 169.697 136.565 171.893C138.363 174.253 140.477 176.355 142.848 178.14C144.101 179.051 145.434 179.846 146.832 180.513C148.252 181.22 149.741 181.778 151.276 182.178C154.493 182.933 157.826 183.061 161.092 182.556C164.489 182.078 167.842 181.33 171.12 180.32C178.121 178.335 184.856 175.508 191.176 171.902C192.764 170.952 194.299 169.917 195.776 168.802C197.244 167.718 198.616 166.512 199.879 165.195C201.157 163.952 202.192 162.483 202.934 160.862C203.454 159.181 203.723 157.433 203.734 155.673C203.825 152.22 203.64 148.765 203.182 145.342C202.773 142.053 202.174 138.791 201.388 135.571C200.615 132.443 199.686 129.37 197.892 126.905C197.039 125.685 195.923 124.673 194.626 123.942C193.348 123.258 191.959 122.806 190.523 122.608C187.781 122.183 184.994 122.149 182.243 122.507C179.593 122.866 177.082 123.427 174.69 123.952C172.298 124.476 170.044 125.102 167.918 125.69C165.793 126.279 163.834 126.988 161.994 127.622C158.314 128.901 155.176 130.116 152.637 131.146C150.098 132.176 148.148 133.041 146.841 133.658L145.369 134.384L144.863 134.624L145.36 134.32C145.682 134.136 146.17 133.878 146.814 133.556C148.111 132.903 150.052 132.02 152.582 130.953C155.112 129.886 158.24 128.662 161.92 127.346C163.76 126.702 165.738 126.04 167.854 125.378C169.97 124.715 172.242 124.172 174.634 123.602C177.026 123.032 179.547 122.489 182.206 122.13C184.989 121.756 187.81 121.778 190.587 122.194C192.067 122.4 193.5 122.864 194.819 123.565C196.172 124.322 197.338 125.372 198.232 126.638C200.072 129.177 200.992 132.305 201.82 135.442C202.618 138.68 203.232 141.961 203.66 145.268C204.133 148.712 204.327 152.189 204.24 155.664C204.233 157.474 203.954 159.273 203.412 161C202.655 162.684 201.587 164.21 200.266 165.499C198.98 166.838 197.586 168.069 196.098 169.179C194.605 170.303 193.051 171.345 191.443 172.298C185.094 175.931 178.325 178.774 171.286 180.762C167.96 181.787 164.557 182.543 161.11 183.025C157.789 183.536 154.399 183.402 151.128 182.629C149.565 182.215 148.048 181.642 146.602 180.918C145.197 180.229 143.857 179.413 142.6 178.48C140.202 176.669 138.066 174.536 136.252 172.141C134.543 169.924 133.005 167.581 131.652 165.131C130.388 162.884 129.252 160.568 128.248 158.194C127.343 155.993 127.097 153.577 127.54 151.239C127.745 150.171 128.088 149.135 128.561 148.157C128.997 147.236 129.524 146.36 130.134 145.544C131.221 144.082 132.471 142.748 133.86 141.57C135.029 140.575 136.258 139.653 137.54 138.81C139.299 137.647 141.117 136.575 142.986 135.599L144.449 134.844C144.744 134.67 144.918 134.596 144.918 134.596Z" fill="white"/>
<path d="M129.554 146.62C130.032 146.418 130.528 146.261 131.036 146.151C131.956 145.894 133.4 145.498 135.148 145.084C139.685 143.915 144.295 143.051 148.948 142.499C151.521 142.214 154.116 142.189 156.694 142.425C158.795 142.649 160.867 143.09 162.877 143.741C164.579 144.302 165.931 144.845 166.86 145.231C167.349 145.407 167.821 145.629 168.268 145.894C167.763 145.766 167.268 145.603 166.787 145.406C165.867 145.066 164.487 144.587 162.776 144.063C160.777 143.467 158.725 143.067 156.648 142.867C154.102 142.657 151.542 142.694 149.003 142.977C144.362 143.535 139.755 144.349 135.203 145.415L131.063 146.335C130.568 146.465 130.063 146.56 129.554 146.62Z" fill="#455A64"/>
<path d="M127.88 153.088C128.835 152.702 129.819 152.395 130.824 152.168C132.664 151.653 135.231 151.009 138.083 150.402C140.935 149.794 143.547 149.353 145.443 149.077C146.459 148.88 147.49 148.772 148.525 148.755C147.535 149.04 146.526 149.258 145.507 149.408C143.667 149.767 141.045 150.264 138.147 150.871C135.249 151.478 132.737 152.067 130.87 152.499C129.888 152.762 128.889 152.959 127.88 153.088Z" fill="#455A64"/>
<g opacity="0.3">
<path d="M149.877 134.55C146.004 135.682 134.844 141.312 131.477 146.685C129.582 149.702 128.625 154.864 131.137 158.295C133.648 161.727 139.334 171.534 146.62 176.171C153.907 180.808 162.96 180.237 166.796 178.682C170.632 177.128 163.668 130.741 160.733 130.907C157.798 131.072 149.877 134.55 149.877 134.55Z" fill="white"/>
</g>
<path d="M86.2131 354.908C86.5885 355.845 86.7489 356.855 86.6823 357.862C86.9177 356.674 87.3733 355.542 88.0255 354.522C88.2647 354.136 88.6511 353.731 89.0835 353.841C89.5159 353.952 89.6631 354.504 89.6815 354.954C89.7254 356.204 89.4432 357.444 88.8627 358.552C89.6694 357.527 90.715 356.715 91.9079 356.187C92.0053 356.128 92.1154 356.093 92.2289 356.085C92.3425 356.077 92.4564 356.096 92.5611 356.141C92.7911 356.279 92.8003 356.61 92.7635 356.877C92.6006 357.923 92.1714 358.908 91.5173 359.74C90.8631 360.571 90.0059 361.22 89.0283 361.624L88.3843 361.716C86.9965 361.333 85.8035 360.442 85.0418 359.22C84.2801 357.998 84.0053 356.535 84.2719 355.12C84.3731 354.586 84.6767 353.961 85.1919 353.952C85.7071 353.942 86.0291 354.458 86.2131 354.908Z" fill="#0984E3"/>
<path d="M100.648 383.741C98.7717 382.561 96.6998 381.726 94.5298 381.276C95.8199 376.868 95.8803 372.191 94.7046 367.752C94.29 365.987 93.5095 364.329 92.4138 362.885C91.8634 362.165 91.1712 361.566 90.38 361.124C89.5887 360.683 88.7154 360.408 87.8138 360.318C86.8393 360.3 85.8734 360.503 84.9889 360.913C84.1045 361.323 83.3245 361.928 82.7078 362.682L80.4446 367.908C80.3144 368.669 80.2253 369.437 80.1778 370.208C79.9125 375.288 81.0521 380.343 83.4714 384.818C81.1254 387.412 78.577 391.883 79.3406 397.063H106.168C106.637 392.095 104.742 386.704 100.648 383.741Z" fill="#455A64"/>
<path d="M82.2847 386.483C82.34 386.377 82.408 386.278 82.4871 386.188C82.6975 385.919 82.9216 385.661 83.1587 385.416C84.0285 384.512 85.0305 383.746 86.1303 383.143C87.7641 382.236 89.5625 381.663 91.4203 381.46C93.7038 381.181 96.0206 381.498 98.1455 382.38C100.244 383.319 102.068 384.779 103.445 386.621C104.567 388.114 105.383 389.815 105.846 391.626C106.167 392.84 106.297 394.097 106.232 395.352C106.219 395.691 106.185 396.029 106.131 396.364C106.125 396.483 106.101 396.601 106.057 396.713C106.155 395.027 105.991 393.335 105.57 391.699C105.082 389.941 104.257 388.294 103.141 386.851C101.816 385.049 100.036 383.631 97.9829 382.743C95.9298 381.856 93.6775 381.53 91.4571 381.8C89.6427 381.987 87.8812 382.522 86.2683 383.373C84.7891 384.2 83.4456 385.249 82.2847 386.483Z" fill="#263238"/>
<path d="M80.0398 372.122C79.9425 371.535 79.927 370.937 79.9938 370.346C80.0319 368.906 80.2735 367.478 80.7114 366.105C81.1587 364.705 81.9494 363.44 83.0114 362.425C83.4321 362 83.95 361.684 84.5202 361.505C84.5202 361.56 83.959 361.891 83.2046 362.664C82.2528 363.688 81.534 364.906 81.0978 366.234C80.675 367.58 80.4004 368.968 80.279 370.374C80.2518 370.962 80.1718 371.547 80.0398 372.122Z" fill="#263238"/>
<path d="M95.551 393.659C96.322 392.741 97.1616 391.883 98.0626 391.092C98.8623 390.205 99.7264 389.377 100.648 388.617C100.027 389.65 99.2514 390.58 98.3478 391.377C97.5363 392.275 96.5933 393.044 95.551 393.659Z" fill="#263238"/>
<path d="M92.561 392.095C92.5817 391.192 92.7304 390.297 93.0026 389.436C93.1489 388.544 93.428 387.679 93.8306 386.869C93.6795 388.666 93.2512 390.429 92.561 392.095Z" fill="#263238"/>
<path d="M84.6399 389.16C85.8776 390.638 86.6887 392.426 86.9859 394.33C86.5226 393.503 86.1228 392.642 85.7899 391.754C85.3389 390.921 84.9544 390.054 84.6399 389.16Z" fill="#263238"/>
<path d="M93.2144 376.593C93.7101 375.6 94.3283 374.672 95.0544 373.833C95.6601 372.917 96.3805 372.082 97.198 371.349C96.6947 372.338 96.0771 373.264 95.358 374.109C94.7472 375.021 94.0273 375.855 93.2144 376.593Z" fill="#263238"/>
<path d="M91.3191 368.202C91.8877 367.017 92.5751 365.892 93.3707 364.844C94.0622 363.725 94.8635 362.677 95.7627 361.716C95.1964 362.903 94.5089 364.029 93.7111 365.074C93.0224 366.196 92.2209 367.244 91.3191 368.202Z" fill="#263238"/>
<path d="M88.3198 370.401C88.5733 371.327 88.7002 372.284 88.697 373.244C88.8299 374.196 88.8299 375.162 88.697 376.114C88.4324 375.19 88.3023 374.233 88.3106 373.272C88.1773 372.319 88.1804 371.353 88.3198 370.401Z" fill="#263238"/>
<path d="M76.2495 374.219C77.5853 374.714 78.8577 375.366 80.0399 376.16C81.2905 376.851 82.4548 377.688 83.5083 378.654C82.2323 378.027 81.0026 377.311 79.8283 376.51C78.5851 375.828 77.3895 375.063 76.2495 374.219Z" fill="#263238"/>
<g opacity="0.3">
<path d="M85.9094 381.441C87.249 380.738 88.7388 380.369 90.2518 380.365C91.8158 380.291 93.5638 380.448 94.6218 381.598V381.653C90.6442 381.406 86.7149 382.631 83.5818 385.094C83.6171 384.335 83.8506 383.598 84.2589 382.957C84.6673 382.316 85.2363 381.794 85.9094 381.441Z" fill="black"/>
</g>
<path d="M98.6516 328.771C99.4194 328.562 100.225 328.53 101.007 328.679C100.1 328.381 99.2549 327.919 98.5136 327.318C98.2376 327.088 97.9616 326.747 98.0812 326.398C98.2008 326.048 98.6608 326.011 99.0012 326.039C99.9904 326.118 100.942 326.454 101.761 327.014C101.041 326.287 100.508 325.397 100.206 324.42C100.165 324.338 100.144 324.249 100.144 324.157C100.144 324.066 100.165 323.976 100.206 323.895C100.335 323.73 100.593 323.757 100.795 323.812C101.597 324.039 102.326 324.467 102.914 325.057C103.502 325.647 103.929 326.378 104.153 327.18V327.695C103.722 328.737 102.917 329.581 101.896 330.061C100.875 330.541 99.7111 330.623 98.6332 330.289C98.2284 330.16 97.7776 329.866 97.8144 329.443C97.8512 329.02 98.2836 328.863 98.6516 328.771Z" fill="#0984E3"/>
<path d="M152.72 294.492C152.858 295.272 152.82 296.074 152.609 296.838C152.979 295.96 153.51 295.158 154.173 294.474C154.422 294.225 154.79 293.968 155.093 294.124C155.397 294.28 155.434 294.722 155.379 295.044C155.208 296.015 154.794 296.927 154.173 297.694C154.967 297.025 155.916 296.566 156.933 296.36C157.018 296.328 157.109 296.317 157.199 296.329C157.289 296.34 157.374 296.373 157.449 296.424C157.605 296.571 157.55 296.82 157.449 297.022C157.153 297.808 156.658 298.503 156.013 299.04C155.368 299.577 154.595 299.937 153.769 300.086H153.263C152.255 299.57 151.477 298.695 151.083 297.634C150.69 296.572 150.709 295.402 151.137 294.354C151.303 293.958 151.634 293.526 152.057 293.609C152.481 293.692 152.72 294.115 152.72 294.492Z" fill="#0984E3"/>
<path d="M115.083 364.624C115.488 364.624 115.856 364.679 116.233 364.716C116.932 357.052 114.604 349.278 116.95 341.955L116.638 342.35C113.815 342.794 110.927 342.535 108.229 341.596C106.887 341.118 105.655 340.373 104.61 339.405C103.565 338.437 102.727 337.267 102.148 335.966C101.595 334.65 101.423 333.205 101.652 331.796C101.882 330.387 102.503 329.071 103.445 327.998C106.094 325.238 110.805 325.376 114.098 327.281C117.392 329.185 119.554 332.221 121.67 335.266C122.781 334.379 124.022 333.668 125.35 333.16C121.67 328.072 118.082 322.727 116.914 316.6C115.635 309.874 118.146 301.88 124.393 299.12C129.711 296.728 136.353 298.89 140.125 303.352C140.41 303.706 140.678 304.074 140.926 304.456L140.806 304.088C141.723 301.717 143.538 299.803 145.857 298.761C147.014 298.263 148.269 298.036 149.527 298.097C150.784 298.157 152.012 298.504 153.116 299.11C154.205 299.744 155.109 300.653 155.735 301.746C156.362 302.84 156.689 304.079 156.685 305.339C156.574 306.753 156.09 308.112 155.281 309.277C154.473 310.442 153.37 311.372 152.085 311.972C149.585 313.083 146.789 313.341 144.127 312.708C144.466 315.08 144.451 317.489 144.081 319.856C143.253 325.202 140.861 330.179 138.028 334.816C138.817 335.334 139.548 335.935 140.208 336.61C145.029 341.66 145.342 349.756 142.812 356.261C140.282 362.765 133.4 367.512 128.671 372.6C130.636 376.134 131.886 380.019 132.351 384.036C133.19 382.299 134.494 380.83 136.118 379.79C137.742 378.751 139.623 378.182 141.551 378.148C143.63 378.148 145.949 379.068 146.584 381.046C147.154 382.784 146.197 384.661 144.964 386.004C143.403 387.572 141.472 388.72 139.349 389.342C137.226 389.964 134.981 390.041 132.82 389.565L132.774 388.295C132.935 391.21 132.864 394.132 132.563 397.035H101.899C101.899 397.035 93.7204 363.832 115.083 364.624Z" fill="#455A64"/>
<path d="M66.8102 409.906H139.223V397.072H66.8102V409.906Z" fill="#0984E3"/>
<path d="M133.823 407.358L125.01 445.703H81.8524L72.22 407.358H133.823Z" fill="#0984E3"/>
<path d="M66.8562 409.915C66.8562 410.062 83.1862 410.173 103.334 410.173C123.482 410.173 139.812 410.062 139.812 409.915C139.812 409.768 123.482 409.667 103.334 409.667C83.1862 409.667 66.8562 409.777 66.8562 409.915Z" fill="#263238"/>
<path d="M109.406 365.884C109.539 365.79 109.681 365.71 109.829 365.645C110.237 365.43 110.662 365.248 111.099 365.102C112.721 364.559 114.438 364.362 116.141 364.522C118.671 364.747 121.105 365.598 123.225 366.997C125.789 368.76 127.88 371.127 129.315 373.888C130.763 376.624 131.748 379.58 132.231 382.637C132.6 385.125 132.766 387.639 132.728 390.154C132.728 392.288 132.645 394.018 132.599 395.214C132.599 395.775 132.599 396.226 132.544 396.584C132.559 396.744 132.559 396.904 132.544 397.063C132.522 396.904 132.522 396.743 132.544 396.584C132.544 396.226 132.544 395.775 132.544 395.214C132.544 393.962 132.544 392.251 132.544 390.154C132.542 387.659 132.351 385.168 131.974 382.702C131.478 379.69 130.497 376.778 129.067 374.081C127.661 371.38 125.626 369.058 123.133 367.31C121.066 365.929 118.695 365.07 116.223 364.808C114.554 364.63 112.867 364.78 111.255 365.249C110.013 365.599 109.48 365.93 109.406 365.884Z" fill="#263238"/>
<path d="M115.92 349.6C115.879 349.482 115.86 349.357 115.865 349.232C115.847 348.886 115.847 348.539 115.865 348.192C115.87 346.901 116.021 345.614 116.315 344.356C116.735 342.481 117.452 340.686 118.441 339.038C119.018 338.061 119.706 337.153 120.492 336.334C121.325 335.435 122.29 334.669 123.353 334.061C124.422 333.454 125.576 333.011 126.776 332.746C127.893 332.526 129.033 332.439 130.171 332.488C132.091 332.61 133.976 333.058 135.746 333.813C136.934 334.31 138.068 334.926 139.131 335.653C139.518 335.901 139.785 336.131 139.978 336.278C140.171 336.426 140.254 336.508 140.245 336.518C139.833 336.295 139.433 336.049 139.049 335.782C137.963 335.113 136.821 334.54 135.635 334.07C133.876 333.359 132.01 332.949 130.115 332.856C129.011 332.819 127.906 332.909 126.822 333.123C125.665 333.388 124.553 333.819 123.519 334.402C122.495 334.994 121.565 335.735 120.759 336.6C119.989 337.394 119.313 338.274 118.744 339.222C117.76 340.831 117.028 342.581 116.573 344.411C116.259 345.647 116.068 346.91 116.003 348.183C115.92 349.131 115.92 349.6 115.92 349.6Z" fill="#263238"/>
<path d="M144.33 317.253C144.166 316.444 144.08 315.622 144.072 314.796C144.008 314.042 143.934 313.14 143.768 312.156C143.59 311.086 143.281 310.041 142.848 309.046C142.094 307.231 141.17 305.49 140.088 303.848C139.251 302.579 138.626 301.88 138.672 301.843C138.718 301.806 138.865 301.972 139.168 302.284C139.585 302.724 139.973 303.191 140.328 303.683C141.505 305.302 142.49 307.052 143.262 308.899C143.695 309.922 143.986 310.999 144.127 312.101C144.251 312.991 144.324 313.888 144.348 314.787C144.405 315.608 144.399 316.433 144.33 317.253Z" fill="#263238"/>
<path d="M140.374 386.069C141.145 386.473 141.85 386.994 142.462 387.614C143.17 388.125 143.791 388.747 144.302 389.454C143.53 389.05 142.825 388.529 142.214 387.909C141.51 387.392 140.89 386.772 140.374 386.069Z" fill="#263238"/>
<path d="M142.949 383.511C144.654 383.071 146.417 382.897 148.175 382.996C147.34 383.287 146.464 383.442 145.581 383.456C144.712 383.611 143.824 383.63 142.949 383.511Z" fill="#263238"/>
<path d="M140.999 379.04C141.424 378.33 141.91 377.659 142.453 377.034C142.882 376.325 143.371 375.654 143.915 375.029C143.406 376.648 142.382 378.056 140.999 379.04Z" fill="#263238"/>
<path d="M137.567 376.924C137.545 377.928 137.387 378.925 137.098 379.886C136.926 380.881 136.617 381.847 136.178 382.757C136.366 380.762 136.818 378.8 137.521 376.924H137.567Z" fill="#263238"/>
<path d="M135.24 387.265C135.166 387.182 135.654 386.63 136.325 386.023C136.997 385.416 137.604 384.992 137.678 385.103C137.751 385.213 137.264 385.747 136.592 386.354C135.921 386.961 135.359 387.32 135.24 387.265Z" fill="#263238"/>
<path d="M124.642 385.268C124.559 385.186 125.148 384.44 125.948 383.603C126.748 382.766 127.475 382.14 127.558 382.223C126.789 383.415 125.799 384.449 124.642 385.268Z" fill="#263238"/>
<path d="M122.36 375.443C122.557 374.722 122.888 374.045 123.335 373.446C123.666 372.777 124.118 372.175 124.669 371.671C124.131 373.056 123.349 374.333 122.36 375.443Z" fill="#263238"/>
<path d="M115.552 367.439C115.764 368.271 115.845 369.13 115.791 369.987C115.869 370.843 115.813 371.706 115.626 372.545C115.408 371.714 115.327 370.853 115.386 369.996C115.31 369.14 115.366 368.278 115.552 367.439Z" fill="#263238"/>
<path d="M101.338 370.153C102.075 370.882 102.752 371.67 103.362 372.508C104.069 373.268 104.715 374.083 105.294 374.946C104.423 374.357 103.661 373.623 103.04 372.775C102.324 372.007 101.748 371.119 101.338 370.153Z" fill="#263238"/>
<path d="M99.5164 384.118C100.369 384.074 101.223 384.167 102.046 384.394C102.896 384.491 103.725 384.721 104.503 385.075C103.65 385.12 102.796 385.027 101.973 384.799C101.123 384.704 100.294 384.474 99.5164 384.118Z" fill="#263238"/>
<path d="M114.264 388.985C114.398 388.009 114.73 387.069 115.239 386.225C115.632 385.308 116.201 384.477 116.914 383.778C116.545 384.687 116.108 385.566 115.607 386.409C115.221 387.298 114.772 388.159 114.264 388.985Z" fill="#263238"/>
<path d="M109.342 382.278C109.129 381.613 109.045 380.914 109.093 380.218C109.012 379.524 109.065 378.821 109.25 378.148C109.473 378.81 109.558 379.512 109.498 380.208C109.586 380.902 109.532 381.606 109.342 382.278Z" fill="#263238"/>
<path d="M125.212 394.091C125.298 393.309 125.583 392.561 126.04 391.92C126.397 391.215 126.925 390.611 127.576 390.163C127.241 390.854 126.844 391.513 126.39 392.132C126.06 392.821 125.666 393.477 125.212 394.091Z" fill="#263238"/>
<path d="M108.376 395.066C107.902 394.47 107.531 393.799 107.281 393.079C106.914 392.41 106.668 391.681 106.554 390.926C107.031 391.521 107.401 392.193 107.649 392.914C108.017 393.582 108.263 394.311 108.376 395.066Z" fill="#263238"/>
<path d="M134.55 363.924C135.475 363.757 136.42 363.72 137.356 363.814C138.285 363.784 139.214 363.883 140.116 364.108C139.191 364.287 138.245 364.324 137.31 364.219C136.38 364.254 135.451 364.155 134.55 363.924Z" fill="#263238"/>
<path d="M140.649 353.482C141.461 352.659 142.365 351.934 143.345 351.32C144.246 350.597 145.228 349.979 146.271 349.48C145.462 350.301 144.561 351.023 143.584 351.633C142.684 352.365 141.698 352.986 140.649 353.482Z" fill="#263238"/>
<path d="M140.024 340.06C140.714 339.517 141.446 339.031 142.214 338.606C142.909 338.071 143.64 337.585 144.403 337.152C143.897 337.893 143.226 338.507 142.444 338.946C141.732 339.496 140.904 339.877 140.024 340.06Z" fill="#263238"/>
<path d="M133.179 335.312C133.243 334.203 133.444 333.106 133.777 332.046C133.975 330.949 134.306 329.88 134.762 328.863C134.506 331.068 133.974 333.231 133.179 335.303V335.312Z" fill="#263238"/>
<path d="M121.753 331.936C122.302 332.513 122.75 333.179 123.077 333.905C123.526 334.563 123.856 335.295 124.053 336.067C123.503 335.49 123.055 334.824 122.728 334.098C122.28 333.439 121.95 332.708 121.753 331.936Z" fill="#263238"/>
<path d="M111.899 354.577C111.973 354.485 113.279 355.497 114.991 356.537C116.702 357.576 118.183 358.322 118.128 358.377C116.93 358.066 115.796 357.546 114.779 356.84C113.695 356.259 112.721 355.493 111.899 354.577Z" fill="#263238"/>
<path d="M127.88 359.665C129.108 358.591 130.508 357.73 132.02 357.116C131.445 357.7 130.78 358.188 130.051 358.561C129.395 359.049 128.661 359.422 127.88 359.665Z" fill="#263238"/>
<path d="M130.548 348.836C130.465 348.744 131.468 347.732 132.452 346.251C133.437 344.77 133.943 343.427 134.053 343.491C133.584 345.649 132.336 347.559 130.548 348.855V348.836Z" fill="#263238"/>
<path d="M125.304 346.389C125.133 345.526 125.105 344.64 125.221 343.767C125.194 342.888 125.303 342.01 125.543 341.164C125.703 342.028 125.731 342.912 125.626 343.786C125.653 344.665 125.544 345.543 125.304 346.389Z" fill="#263238"/>
<path d="M122.406 357.098C122.106 356.245 121.932 355.352 121.891 354.448C121.719 353.557 121.685 352.645 121.79 351.744C122.258 353.488 122.466 355.293 122.406 357.098Z" fill="#263238"/>
<path d="M114.31 324.852C114.653 325.83 114.936 326.829 115.156 327.842C115.509 328.821 115.795 329.823 116.012 330.841C115.42 329.965 114.998 328.985 114.77 327.952C114.417 326.959 114.26 325.906 114.31 324.852Z" fill="#263238"/>
<path d="M108.606 343.648C109.34 343.016 110.122 342.441 110.943 341.927C111.684 341.302 112.471 340.733 113.298 340.225C112.074 341.771 110.452 342.954 108.606 343.648Z" fill="#263238"/>
<path d="M100.85 337.879C101.784 337.608 102.737 337.414 103.702 337.3C104.643 337.048 105.603 336.876 106.573 336.784C105.721 337.266 104.783 337.579 103.813 337.704C102.847 337.959 101.84 338.019 100.85 337.879Z" fill="#263238"/>
<path d="M108.394 331.43C108.989 331.576 109.544 331.849 110.023 332.23C110.869 332.773 111.495 333.279 111.44 333.38C110.841 333.233 110.283 332.956 109.802 332.571C108.965 332.037 108.33 331.522 108.394 331.43Z" fill="#263238"/>
<path d="M104.632 324.466C106.03 325.29 107.125 326.546 107.75 328.044C107.171 327.503 106.645 326.909 106.177 326.269C105.61 325.715 105.092 325.111 104.632 324.466Z" fill="#263238"/>
<path d="M99.4978 331.099C100.396 331.242 101.279 331.464 102.138 331.761C103.031 331.929 103.906 332.182 104.751 332.516C103.816 332.576 102.878 332.451 101.991 332.148C101.098 331.969 100.25 331.612 99.4978 331.099Z" fill="#263238"/>
<path d="M135.038 322.175C135.745 320.955 136.519 319.776 137.356 318.642C138.077 317.437 138.86 316.27 139.702 315.146C139.211 316.476 138.536 317.73 137.696 318.872C136.963 320.088 136.069 321.199 135.038 322.175Z" fill="#263238"/>
<path d="M132.756 314.042C132.684 313.029 132.749 312.011 132.949 311.015C133.016 310 133.217 308.997 133.547 308.034C133.618 309.047 133.553 310.065 133.354 311.061C133.287 312.077 133.086 313.079 132.756 314.042Z" fill="#263238"/>
<path d="M124.862 315.312C124.982 315.312 125.313 316.848 126.095 318.642C126.877 320.436 127.77 321.742 127.678 321.816C126.804 320.972 126.133 319.94 125.718 318.798C125.179 317.714 124.886 316.523 124.862 315.312Z" fill="#263238"/>
<path d="M115.58 317.271C115.681 317.198 116.831 318.559 118.432 320.031C120.032 321.503 121.449 322.598 121.376 322.699C119.029 321.379 117.039 319.506 115.58 317.244V317.271Z" fill="#263238"/>
<path d="M119.177 300.426C119.287 300.426 119.646 302.119 120.29 304.17C120.934 306.222 121.587 307.85 121.477 307.85C120.755 306.747 120.22 305.531 119.894 304.253C119.445 303.026 119.202 301.733 119.177 300.426Z" fill="#263238"/>
<path d="M129.858 294.888C130.25 296.868 130.373 298.891 130.226 300.904C129.834 298.924 129.71 296.901 129.858 294.888Z" fill="#263238"/>
<path d="M151.919 309.12C152.689 309.108 153.459 309.163 154.219 309.286C154.988 309.283 155.755 309.354 156.51 309.497C155.763 309.757 154.962 309.824 154.183 309.69C153.392 309.698 152.612 309.502 151.919 309.12Z" fill="#263238"/>
<path d="M151.266 303.6C152.244 302.847 153.302 302.205 154.422 301.686C155.481 301.055 156.603 300.536 157.771 300.141C156.794 300.892 155.735 301.531 154.615 302.045C153.557 302.681 152.435 303.203 151.266 303.6Z" fill="#263238"/>
<path d="M145.305 303.766C145.395 302.794 145.621 301.84 145.976 300.932C146.201 299.984 146.56 299.073 147.043 298.227C146.941 299.197 146.712 300.15 146.363 301.061C146.134 302.006 145.778 302.916 145.305 303.766Z" fill="#263238"/>
<g opacity="0.3">
<path d="M128.598 372.655C128.545 371.176 128.15 369.73 127.443 368.43C126.735 367.13 125.736 366.013 124.522 365.166C122.112 363.547 117.769 363.391 116.067 364.596C118.743 364.674 121.331 365.57 123.482 367.163C125.509 368.676 127.243 370.547 128.598 372.683" fill="black"/>
</g>
<g opacity="0.3">
<path d="M138 335.312C137.446 334.157 136.632 333.147 135.621 332.36C134.611 331.573 133.432 331.031 132.176 330.777C129.701 330.326 126.196 331.697 125.267 333.252C127.417 332.387 129.78 332.201 132.038 332.718C134.167 333.213 136.187 334.092 138 335.312Z" fill="black"/>
</g>
<g opacity="0.3">
<path d="M144.283 313.113C144.768 312.261 145.055 311.311 145.123 310.333C145.192 309.356 145.04 308.375 144.679 307.464C144.324 306.637 143.772 305.91 143.071 305.346C142.37 304.781 141.542 304.397 140.659 304.226C142.572 306.986 144.081 309.838 144.228 313.214" fill="black"/>
</g>
<path d="M105.653 367.641C105.653 367.641 105.331 367.936 104.825 368.561C104.121 369.417 103.504 370.342 102.985 371.321C101.458 374.596 100.541 378.122 100.28 381.726C100.048 385.357 100.23 389.002 100.823 392.592C101.034 393.981 101.246 395.094 101.393 395.858C101.491 396.253 101.552 396.656 101.577 397.063C101.415 396.688 101.295 396.296 101.218 395.894C101.025 395.14 100.768 394.054 100.51 392.647C99.8225 389.038 99.5969 385.356 99.8383 381.69C100.066 378.004 101.027 374.401 102.663 371.091C103.218 370.122 103.888 369.223 104.659 368.414C104.937 368.094 105.275 367.832 105.653 367.641Z" fill="#263238"/>
<path d="M139.224 397.063C139.15 397.075 139.076 397.075 139.003 397.063H138.359H135.875L126.739 397.127L96.6 397.192L66.8196 397.127L66.9576 396.98C66.9576 400.936 66.9576 404.138 66.9576 406.382C66.9576 407.477 66.9576 408.333 66.9576 408.94C66.9576 409.216 66.9576 409.437 66.9576 409.612C66.9715 409.685 66.9715 409.759 66.9576 409.832C66.9437 409.759 66.9437 409.685 66.9576 409.612V408.94C66.9576 408.333 66.9576 407.477 66.9116 406.392C66.9116 404.138 66.8564 400.936 66.8196 396.989V396.842H66.9668L96.7472 396.778L126.886 396.842L136.022 396.906H138.506H139.15L139.224 397.063Z" fill="#263238"/>
<path d="M250.59 444.848H383.585L371.202 408.397L269.284 413.687L250.59 444.848Z" fill="#263238"/>
<path d="M275.356 414.432L353.078 411.534L380.678 256.974L355.736 246.238C355.736 246.238 345.386 252.043 326.214 252.135C307.4 252.227 307.731 245.833 307.731 245.833L291.235 263.598C291.235 263.598 270.931 321.365 270.627 322.534C270.324 323.702 275.356 414.432 275.356 414.432Z" fill="white"/>
<path d="M365.24 250.176C365.24 250.176 403.521 258.088 403.88 264.463C404.239 270.839 387.504 310.371 387.182 311.383C386.86 312.395 372.103 368.92 372.103 368.92L394.183 444.857H325.367C325.367 444.857 330.28 373.216 335.8 340.115C341.32 307.013 342.636 295.955 344.761 282.836C345.607 277.582 349.885 259.56 352.544 248.556C353.297 245.455 353.434 242.235 352.949 239.08L356.215 240.322L365.24 250.176Z" fill="#455A64"/>
<path d="M245.474 347.098C245.106 347.65 238.114 373.032 236.964 380.383C235.989 386.621 234.444 396.759 241.058 406.143C247.673 415.527 254.509 414.423 261.114 412.031C267.72 409.639 274.914 395.848 276.184 387.936C277.454 380.024 269.983 345.23 269.983 345.23L245.474 347.098Z" fill="#455A64"/>
<path d="M307.804 240.911L299.285 252.936C299.285 252.936 270.876 256.616 264.325 261.381C257.775 266.147 244.573 352.139 244.573 352.139L271.004 366.859L250.58 444.857H276.184C276.184 444.857 282.532 411.985 281.952 388.378C281.373 364.771 285.467 334.098 292.992 311.411C300.518 288.724 307.712 249.495 307.712 249.495L307.804 240.911Z" fill="#455A64"/>
<g opacity="0.3">
<path d="M385.158 416.144L339.37 390.678C341.32 401.175 347.484 411.24 356.5 416.962C361.04 419.819 366.113 421.723 371.411 422.558C376.709 423.393 382.122 423.142 387.32 421.82C386.584 419.925 385.863 418.033 385.158 416.144Z" fill="black"/>
</g>
<path d="M249.485 367.66C249.485 367.742 248.4 367.917 246.781 368.58C244.663 369.487 242.802 370.902 241.362 372.701C239.95 374.519 239.002 376.654 238.602 378.92C238.298 380.659 238.39 381.772 238.298 381.782C238.216 381.529 238.179 381.265 238.188 381C238.144 380.287 238.171 379.572 238.271 378.865C238.577 376.505 239.518 374.273 240.994 372.406C242.47 370.539 244.426 369.109 246.652 368.267C247.318 368.006 248.008 367.812 248.713 367.687C248.967 367.633 249.228 367.624 249.485 367.66Z" fill="#263238"/>
<path d="M254.84 403.374C254.84 403.374 262.108 401.074 264.721 398.121C267.209 395.194 268.878 391.661 269.56 387.881C269.891 383.502 271.538 360.502 271.538 360.502L252.384 359.242L240.571 381.8C240.571 381.8 237.369 390.08 243.91 398.903C248.087 404.561 254.84 403.374 254.84 403.374Z" fill="#FFBF9D"/>
<path d="M273.24 390.678C273.28 389.791 273.366 388.907 273.498 388.028C273.693 385.909 273.662 383.775 273.406 381.662C273.135 379.547 272.645 377.466 271.943 375.452C271.4 373.906 270.968 372.986 271.023 372.95C271.078 372.913 271.188 373.152 271.418 373.557C271.73 374.132 272.006 374.725 272.246 375.332C273.881 379.368 274.427 383.762 273.829 388.074C273.741 388.722 273.618 389.363 273.461 389.997C273.425 390.235 273.35 390.465 273.24 390.678Z" fill="#263238"/>
<path d="M272.522 391.12C272.558 391.487 272.558 391.856 272.522 392.224C272.511 392.655 272.474 393.085 272.412 393.512C272.338 394.008 272.283 394.579 272.136 395.195C271.851 396.66 271.432 398.095 270.885 399.482C270.209 401.175 269.371 402.799 268.382 404.331C267.369 405.848 266.214 407.265 264.932 408.563C263.876 409.614 262.728 410.569 261.501 411.415C261.038 411.75 260.556 412.058 260.056 412.335C259.695 412.569 259.317 412.775 258.925 412.951C258.606 413.137 258.266 413.285 257.913 413.393C257.913 413.31 259.284 412.629 261.308 411.148C262.484 410.271 263.591 409.305 264.62 408.259C265.861 406.963 266.985 405.559 267.978 404.064C268.95 402.546 269.787 400.945 270.48 399.28C271.031 397.922 271.474 396.522 271.805 395.094C272.366 392.684 272.421 391.11 272.522 391.12Z" fill="#263238"/>
<path d="M185.444 242.678C182.243 243.144 179.35 244.845 177.385 247.416L220.174 308.136L273.599 302.018L272.734 247.388C272.734 247.388 269.109 242.126 265.595 242.714C264.187 242.954 218.997 250.01 214.995 261.068C214.995 261.068 215.464 255.42 211.692 252.595C207.92 249.771 185.444 242.678 185.444 242.678Z" fill="white"/>
<path d="M185.444 242.678L186.07 242.852L187.91 243.423C189.511 243.929 191.894 244.683 194.948 245.714C198.002 246.744 201.756 248.032 206.062 249.725C207.138 250.157 208.242 250.645 209.374 251.132C210.573 251.62 211.673 252.321 212.621 253.202C214.516 255.162 215.28 258.115 215.17 261.068L214.857 260.995C215.827 258.989 217.366 257.312 219.282 256.174C221.246 254.893 223.322 253.791 225.483 252.88C230.199 250.897 235.051 249.252 240 247.958C245.189 246.532 250.682 245.272 256.432 244.131C259.302 243.561 262.246 243.018 265.236 242.53C266.024 242.371 266.84 242.425 267.6 242.687C268.344 242.965 269.041 243.353 269.67 243.837C270.917 244.806 272.014 245.953 272.927 247.241L272.973 247.296V247.37C273.194 261.455 273.442 276.81 273.7 292.753C273.755 295.863 273.804 298.945 273.847 301.999V302.211H273.626L220.202 308.31H220.073L220 308.209L177.321 247.48V247.434V247.388C178.139 246.241 179.181 245.271 180.384 244.536C181.254 244.001 182.179 243.562 183.144 243.23C183.711 243.025 184.292 242.865 184.883 242.751C185.084 242.715 185.287 242.696 185.49 242.696C185.289 242.719 185.09 242.753 184.892 242.797C184.306 242.924 183.731 243.096 183.172 243.312C182.237 243.659 181.343 244.107 180.504 244.646C179.324 245.38 178.304 246.344 177.505 247.48V247.388L220.404 308.016L220.202 307.924L273.571 301.76L273.36 302.008C273.311 298.942 273.261 295.875 273.212 292.808C272.964 276.865 272.725 261.528 272.504 247.416L272.55 247.544C271.66 246.296 270.594 245.184 269.385 244.242C268.796 243.785 268.142 243.419 267.444 243.156C266.755 242.917 266.014 242.869 265.3 243.018C262.31 243.496 259.376 244.039 256.505 244.6C250.764 245.732 245.272 246.983 240.092 248.391C235.161 249.674 230.325 251.3 225.621 253.258C223.474 254.154 221.411 255.241 219.457 256.505C217.599 257.6 216.102 259.215 215.151 261.151L214.802 262.007V261.087C214.921 258.226 214.185 255.318 212.373 253.451C211.451 252.588 210.378 251.902 209.208 251.427C208.095 250.902 206.991 250.442 205.924 250.001C201.636 248.29 197.892 246.983 194.884 245.925L187.873 243.552L186.033 242.944C185.647 242.76 185.444 242.678 185.444 242.678Z" fill="#263238"/>
<path d="M211.701 316.59L171.635 248.51C171.447 248.194 171.363 247.826 171.396 247.459C171.429 247.093 171.577 246.746 171.819 246.468C172.06 246.197 172.378 246.007 172.73 245.923C173.082 245.84 173.451 245.866 173.788 245.999L205.372 258.584C205.979 258.823 206.521 259.201 206.954 259.688C207.403 260.19 207.727 260.791 207.898 261.442C208.07 262.093 208.083 262.775 207.938 263.433L207.469 265.54L218.509 268.364L218.748 267.748C219.188 266.617 219.876 265.6 220.762 264.77C221.647 263.941 222.707 263.32 223.864 262.954L274.749 246.744C275.804 246.405 276.945 246.451 277.969 246.874C278.993 247.296 279.834 248.069 280.342 249.053L316.48 318.716L315.256 322L257.812 335.616H247.692L211.701 316.59Z" fill="#0984E3"/>
<path d="M211.701 316.59L212.336 316.903L214.176 317.823L221.26 321.503L247.793 335.441H247.719H257.784L315.22 321.779L315.063 321.917C315.422 320.905 315.827 319.764 316.241 318.624V318.789L297.565 282.762C294.302 276.439 290.962 269.999 287.546 263.442L282.44 253.488L281.143 250.976L280.49 249.716C280.297 249.297 280.066 248.896 279.8 248.52C279.253 247.796 278.499 247.256 277.638 246.971C276.776 246.687 275.849 246.672 274.979 246.928L244.922 256.496L230.469 261.096C228.105 261.86 225.713 262.577 223.431 263.359C222.332 263.811 221.346 264.499 220.543 265.375C219.74 266.252 219.14 267.294 218.785 268.428L218.73 268.622L218.518 268.566L207.478 265.742L207.267 265.687L207.313 265.475L207.69 263.792C207.842 263.266 207.902 262.718 207.865 262.172C207.82 261.638 207.668 261.119 207.418 260.645C207.168 260.171 206.826 259.752 206.411 259.412C205.984 259.075 205.501 258.813 204.985 258.64L203.43 258.023L200.33 256.781L188.278 251.97L176.778 247.37L174.018 246.266C173.824 246.158 173.61 246.092 173.388 246.072C173.167 246.052 172.945 246.079 172.735 246.151C172.525 246.223 172.332 246.339 172.17 246.49C172.007 246.641 171.878 246.825 171.792 247.029C171.705 247.23 171.66 247.446 171.66 247.664C171.66 247.882 171.705 248.098 171.792 248.299L172.509 249.541L173.963 252.016C181.663 265.126 188.434 276.672 194.037 286.23L207.12 308.577L210.579 314.539L211.499 316.084C211.692 316.425 211.784 316.609 211.784 316.609C211.784 316.609 211.674 316.443 211.471 316.103C211.269 315.762 210.956 315.256 210.551 314.594L207 308.66C203.936 303.48 199.465 295.918 193.816 286.387L173.641 252.19L172.178 249.716C171.93 249.292 171.69 248.897 171.433 248.446C171.315 248.2 171.251 247.931 171.243 247.659C171.236 247.386 171.286 247.114 171.39 246.862C171.494 246.61 171.65 246.382 171.847 246.194C172.045 246.005 172.28 245.861 172.537 245.769C173.058 245.596 173.627 245.636 174.119 245.879L176.879 246.992L188.388 251.592L200.45 256.395L203.541 257.628L205.105 258.244C205.661 258.433 206.181 258.716 206.641 259.081C207.105 259.459 207.487 259.927 207.765 260.457C208.043 260.987 208.212 261.567 208.26 262.163C208.302 262.755 208.24 263.35 208.076 263.92L207.708 265.604L207.543 265.337L218.583 268.152L218.316 268.29C218.693 267.099 219.327 266.005 220.173 265.084C221.018 264.164 222.055 263.44 223.21 262.964C225.556 262.154 227.902 261.446 230.276 260.682L244.738 256.082L274.795 246.505C275.76 246.221 276.788 246.238 277.743 246.554C278.698 246.87 279.534 247.469 280.14 248.271C280.422 248.667 280.665 249.089 280.867 249.532L281.52 250.792L282.826 253.304C284.55 256.64 286.264 259.955 287.969 263.249L297.988 282.569L316.627 318.614V318.697V318.78L315.45 322.074V322.184H315.33L257.848 335.8H247.728L221.232 321.724L214.194 317.961L212.354 316.986L211.701 316.59Z" fill="#263238"/>
<g opacity="0.3">
<path d="M239.927 327.52L213.67 314.962L177.413 255.217L209.438 267.637L208.766 269.358L181.792 258.888L214.958 313.536L240.718 325.855L239.927 327.52Z" fill="black"/>
</g>
<g opacity="0.3">
<path d="M261.142 331.2L228.105 271.566L276.791 255.926L308.522 317.4L261.142 331.2ZM230.782 272.633L262.016 329.02L305.845 316.195L275.853 258.134L230.782 272.633Z" fill="black"/>
</g>
<path d="M255.263 334.935C255.153 335 246.864 320.215 236.753 301.815C226.642 283.415 218.555 268.539 218.666 268.474C218.776 268.41 227.065 283.194 237.176 301.594C247.287 319.994 255.383 334.88 255.263 334.935Z" fill="#263238"/>
<path d="M207.469 265.521C207.628 265.737 207.769 265.964 207.892 266.202L209.033 268.18C210.018 269.91 211.407 272.421 213.118 275.54C216.531 281.759 221.168 290.407 226.237 299.984L239.2 324.502L243.147 331.927C243.588 332.773 243.938 333.454 244.205 333.951C244.341 334.182 244.455 334.425 244.545 334.678C244.387 334.462 244.245 334.234 244.122 333.997L242.981 332.019C241.997 330.289 240.608 327.778 238.896 324.659C235.483 318.43 230.846 309.782 225.777 300.205L212.787 275.687L208.84 268.272C208.398 267.426 208.049 266.745 207.782 266.248C207.656 266.016 207.551 265.773 207.469 265.521Z" fill="#263238"/>
<path d="M213.679 266.625C213.653 265.689 213.79 264.755 214.084 263.865C214.221 262.937 214.513 262.038 214.949 261.206C214.974 262.143 214.837 263.077 214.544 263.966C214.407 264.895 214.115 265.794 213.679 266.625Z" fill="#263238"/>
<g opacity="0.3">
<path d="M219.779 285.034L239.292 321.181L246.082 322.156L226.679 286.286L219.779 285.034Z" fill="black"/>
</g>
<g opacity="0.3">
<path d="M212.842 275.384L223.652 277.546L226.026 281.483L214.949 279.294L213.017 275.972" fill="black"/>
</g>
<g opacity="0.3">
<path d="M251.399 275.328L249.495 270.922L261.593 266.625L263.7 270.977L251.399 275.328Z" fill="black"/>
</g>
<g opacity="0.3">
<path d="M250.59 297.694L243.883 285.034L278.134 272.403L284.179 285.034L250.59 297.694Z" fill="black"/>
</g>
<path d="M360.714 95.0912C362.048 93.8315 363.657 92.8984 365.412 92.3652C367.168 91.832 369.024 91.7133 370.834 92.0184C372.296 92.276 373.879 92.8004 375.194 92.1012C376.046 91.4638 376.786 90.6898 377.384 89.8104C377.957 89.2397 378.639 88.7906 379.389 88.4898C380.14 88.1891 380.944 88.0429 381.752 88.0601C382.56 88.0773 383.357 88.2574 384.094 88.5898C384.831 88.9222 385.493 89.3999 386.041 89.9944C386.48 90.6683 387.031 91.2626 387.67 91.7516C390.43 93.3984 393.898 88.1636 396.686 89.838C395.365 90.267 394.206 91.0886 393.364 92.1932C392.962 92.7566 392.759 93.4388 392.789 94.1308C392.819 94.8227 393.08 95.4848 393.53 96.0112C396.106 98.5044 400.78 93.4352 403.65 95.5328C405.205 96.6736 405.297 99.4244 407.146 99.9672C407.886 100.078 408.639 100.06 409.372 99.912C410.629 99.8835 411.849 100.333 412.787 101.17C413.724 102.007 414.309 103.168 414.423 104.42C414.534 106.564 413.338 109.112 414.865 110.612C415.785 111.532 417.321 111.476 418.646 111.338C418.519 113.303 417.946 115.212 416.972 116.923C418.618 118.069 419.757 119.808 420.148 121.776C420.539 123.744 420.152 125.787 419.069 127.475C420.781 128.782 422.222 130.41 423.31 132.268C424.276 134.182 424.405 136.684 423.062 138.359C422.713 138.702 422.419 139.096 422.188 139.527C422.013 140.03 421.984 140.573 422.105 141.091C422.418 143.106 423.2 145.084 423.025 147.117C422.85 149.15 421.25 151.303 419.226 151.036C418.756 150.972 418.241 150.788 417.837 151.036C417.69 151.146 417.567 151.284 417.475 151.442C417.384 151.6 417.325 151.775 417.303 151.956C417.093 153.408 417.118 154.883 417.377 156.326C417.632 157.786 417.326 159.288 416.521 160.531C415.601 161.681 413.586 161.994 412.73 160.807L414.138 167.688C414.414 169.05 414.616 170.697 413.586 171.635C412.234 172.868 409.961 171.736 409.069 170.145C408.176 168.553 407.993 166.63 407.054 165.066C406.612 164.468 406.23 163.827 405.913 163.153C405.72 162.592 405.674 161.938 405.242 161.543C404.368 160.742 402.896 161.948 402.96 163.134C403.024 164.321 403.926 165.25 404.625 166.207C405.324 167.164 405.858 168.498 405.205 169.492C404.892 169.97 404.349 170.264 404.046 170.752C402.997 172.426 405.444 174.23 405.646 176.198C405.803 177.652 404.68 178.903 403.595 179.878C402.27 181.074 399.786 181.967 399.068 180.338C398.934 179.731 398.833 179.117 398.765 178.498C398.466 177.836 398.012 177.255 397.44 176.806C396.161 175.52 395.285 173.89 394.919 172.114C396.336 174.046 397.799 176.576 396.621 178.655C396.04 179.47 395.339 180.192 394.542 180.798C393.116 182.142 392.187 183.936 390.779 185.297C389.372 186.659 387.099 187.533 385.452 186.493C385.71 187.456 385.633 188.478 385.234 189.392C384.835 190.306 384.139 191.058 383.258 191.524C382.377 191.991 381.363 192.145 380.383 191.961C379.404 191.778 378.515 191.267 377.862 190.514C377.563 190.059 377.172 189.674 376.712 189.382C376.15 189.225 375.555 189.225 374.992 189.382C373.249 189.587 371.483 189.309 369.888 188.577C368.293 187.845 366.93 186.688 365.948 185.233L367.724 184.699C364.311 184.083 360.75 183.411 357.99 181.314C355.23 179.216 353.565 175.232 355.23 172.169C355.939 170.844 357.245 169.51 356.758 168.093C356.417 167.109 355.35 166.621 354.393 166.253L342.341 161.34C340.391 160.549 338.339 159.675 337.097 157.973C335.855 156.271 335.874 153.474 337.686 152.398C336.823 150.447 335.426 148.779 333.657 147.586C331.679 146.271 329.323 145.599 327.29 144.366C325.257 143.134 323.444 141.008 323.711 138.644C323.978 136.28 327.336 134.596 328.891 136.408C328.734 132.811 322.377 132.287 322.009 128.708C321.706 125.81 325.459 124.494 327.465 122.369C327.124 121.348 326.14 120.658 325.772 119.609C324.99 117.493 327.244 115.524 329.323 114.66C331.402 113.795 333.923 112.93 334.53 110.759C335.138 108.588 333.344 105.892 334.632 103.988C335.011 103.471 335.57 103.115 336.198 102.99C336.827 102.866 337.479 102.982 338.027 103.316C339.867 99.2772 347.466 102.755 349.913 99.0472C350.122 98.7623 350.232 98.4164 350.226 98.0628C350.18 97.7603 350.057 97.4749 349.867 97.2348C349.03 96.0664 347.677 95.3948 346.582 94.4748C345.488 93.5548 344.605 92.0184 345.184 90.6936C345.764 89.3688 348.312 89.5436 348.211 90.988C348.604 90.7092 349.056 90.5238 349.532 90.4462C350.007 90.3685 350.495 90.4006 350.956 90.5399C351.418 90.6793 351.841 90.9222 352.195 91.2502C352.548 91.5782 352.822 91.9825 352.995 92.4324C354.044 91.2824 355.994 91.3928 357.291 92.2484C358.533 93.2282 359.523 94.4897 360.18 95.9284" fill="#263238"/>
<path d="M378.019 141.542C376.887 135.59 372.646 130.686 367.899 126.896C366.007 125.188 363.722 123.974 361.247 123.363C358.745 122.903 355.865 123.712 354.54 125.884L354.779 130.125C354.071 136.841 359.122 142.628 361.44 148.966C362.452 151.726 363.28 155.029 365.911 156.262C367.358 156.84 368.967 156.863 370.429 156.326C376.216 154.496 379.15 147.494 378.019 141.542Z" fill="#455A64"/>
<path d="M377.853 172.666C379.739 170.114 380.67 166.98 380.481 163.812C380.293 160.644 378.998 157.643 376.823 155.333C379.334 152.251 378.488 147.448 376.004 144.348C373.52 141.248 369.803 139.444 366.215 137.733C364.329 128.616 354.182 122.093 345.11 124.209C340.464 117.236 330.436 116.04 322.359 118.303C320.432 119.004 318.415 119.425 316.37 119.554C314.873 119.424 313.386 119.203 311.917 118.892C303.747 117.705 295.559 123.381 292.293 130.971C291.858 132.218 291.261 133.403 290.518 134.495C289.441 135.856 287.822 136.648 286.442 137.687C284.949 138.83 283.719 140.281 282.836 141.942C281.954 143.602 281.439 145.433 281.327 147.31C281.161 150.484 282.146 153.87 280.775 156.74C280.085 158.185 278.861 159.335 278.328 160.844C276.764 165.195 281.566 169.703 280.618 174.23C280.425 175.15 280.002 176.014 279.698 176.916C279.157 178.79 279.311 180.795 280.131 182.565C280.766 183.908 281.796 185.15 281.87 186.64C281.78 187.764 281.545 188.871 281.17 189.934C280.591 192.639 286.332 203.136 288.65 204.654L358.57 205.988C361.218 205.419 363.624 204.041 365.455 202.045C367.286 200.049 368.451 197.534 368.791 194.847C368.767 193.945 369 193.055 369.463 192.28C370.014 191.745 370.668 191.329 371.386 191.056C375.912 188.692 376.519 182.51 376.096 177.422C375.993 176.712 376.015 175.99 376.16 175.288C376.541 174.308 377.117 173.416 377.853 172.666Z" fill="#263238"/>
<path d="M357.926 172.574C358.257 160.2 350.649 145.894 338.422 139.73C330.712 135.838 324.622 135.755 320.602 135.24C314.876 134.625 309.099 135.771 304.042 138.524C300.178 139.389 285.927 152.177 285.053 166.198C284.078 181.774 283.507 200.836 285.356 212.456C289.082 235.824 306.995 238.786 306.995 238.786L306.185 257.306L319.24 281.52L352.857 247.287L357.926 172.574Z" fill="#FFBF9D"/>
<path d="M320.335 208.932C320.226 207.735 319.679 206.621 318.798 205.804C318.001 205.04 316.975 204.56 315.877 204.437C314.78 204.314 313.673 204.555 312.726 205.123C311.736 205.802 310.944 206.733 310.433 207.82C309.922 208.906 309.71 210.11 309.819 211.306C310.29 212.04 310.911 212.666 311.642 213.142C312.374 213.618 313.198 213.933 314.06 214.066C314.336 214.066 314.612 214.13 314.888 214.139C316.263 214.202 317.611 213.749 318.669 212.87C319.226 212.382 319.665 211.774 319.954 211.092C320.242 210.41 320.372 209.671 320.335 208.932Z" fill="#FF9A6C"/>
<path d="M290.306 187.091C290.298 187.873 290.598 188.627 291.139 189.191C291.681 189.755 292.422 190.085 293.204 190.109C293.585 190.139 293.968 190.092 294.331 189.972C294.694 189.851 295.029 189.659 295.316 189.407C295.603 189.155 295.837 188.848 296.004 188.504C296.17 188.16 296.266 187.786 296.286 187.404C296.296 186.623 295.999 185.869 295.459 185.305C294.918 184.74 294.178 184.41 293.397 184.386C293.016 184.356 292.632 184.403 292.269 184.523C291.906 184.644 291.57 184.836 291.282 185.088C290.994 185.34 290.759 185.647 290.592 185.991C290.424 186.335 290.327 186.709 290.306 187.091Z" fill="#263238"/>
<path d="M290.352 175.159C290.729 175.554 293.001 173.871 296.221 173.871C299.441 173.871 301.815 175.49 302.165 175.094C302.33 174.92 301.953 174.22 300.923 173.466C299.526 172.499 297.865 171.988 296.166 172.003C294.491 172.002 292.859 172.53 291.502 173.512C290.508 174.276 290.177 174.984 290.352 175.159Z" fill="#263238"/>
<path d="M309.24 200.615C309.24 200.431 307.252 200.091 304.005 199.695C303.177 199.612 302.395 199.447 302.257 198.886C302.186 198.035 302.379 197.184 302.809 196.448L305.238 190.173C308.614 181.24 311.061 173.898 310.702 173.76C310.344 173.622 307.308 180.762 303.931 189.695C303.122 191.894 302.34 193.991 301.604 196.006C301.085 196.998 300.935 198.143 301.18 199.235C301.299 199.526 301.483 199.785 301.717 199.994C301.952 200.203 302.231 200.356 302.533 200.44C302.99 200.56 303.459 200.625 303.931 200.634C307.197 200.79 309.23 200.799 309.24 200.615Z" fill="#263238"/>
<path d="M307.032 238.786C318.031 238.943 328.858 236.048 338.312 230.423C338.312 230.423 330.031 247.213 306.654 245.042L307.032 238.786Z" fill="#FF9A6C"/>
<path d="M318.734 202.842C318.21 202.842 318.2 206.31 315.21 208.803C312.22 211.296 308.485 210.901 308.458 211.398C308.458 211.609 309.295 212.069 310.868 212.115C312.919 212.147 314.914 211.449 316.498 210.146C318.035 208.905 319.025 207.112 319.258 205.151C319.36 203.688 318.973 202.823 318.734 202.842Z" fill="#263238"/>
<path d="M291.64 163.07C292.183 163.861 294.658 163.337 297.537 163.576C300.417 163.815 302.818 164.57 303.453 163.861C303.738 163.512 303.453 162.748 302.422 161.957C301.054 160.964 299.428 160.389 297.74 160.301C296.061 160.162 294.379 160.517 292.9 161.322C291.824 161.975 291.419 162.693 291.64 163.07Z" fill="#263238"/>
<path d="M324.981 188.462C324.955 189.237 324.63 189.971 324.074 190.511C323.518 191.052 322.775 191.356 322 191.36C321.618 191.376 321.236 191.315 320.878 191.182C320.519 191.048 320.191 190.844 319.912 190.582C319.634 190.32 319.41 190.004 319.255 189.654C319.1 189.305 319.017 188.927 319.01 188.545C319.034 187.765 319.36 187.024 319.92 186.48C320.479 185.936 321.229 185.63 322.009 185.628C322.392 185.615 322.773 185.678 323.13 185.814C323.488 185.95 323.815 186.156 324.091 186.42C324.368 186.684 324.59 187 324.742 187.351C324.895 187.702 324.976 188.079 324.981 188.462Z" fill="#263238"/>
<path d="M334.485 176.401C334.098 176.778 331.89 175.021 328.67 174.901C325.45 174.782 323.021 176.318 322.69 175.913C322.525 175.729 322.929 174.993 323.987 174.331C325.417 173.416 327.094 172.966 328.79 173.043C330.462 173.098 332.073 173.685 333.39 174.717C334.365 175.518 334.669 176.235 334.485 176.401Z" fill="#263238"/>
<path d="M335.395 165.6C334.733 166.308 332.267 165.453 329.286 165.306C326.306 165.158 323.766 165.6 323.187 164.809C322.948 164.432 323.371 163.714 324.502 163.061C326.049 162.28 327.777 161.927 329.506 162.039C331.236 162.15 332.904 162.722 334.337 163.696C335.368 164.478 335.68 165.241 335.395 165.6Z" fill="#263238"/>
<path d="M354.071 194.718C354.071 192.97 356.086 188.867 357.806 188.6C362.406 187.882 370.686 188.25 370.751 199.898C370.861 215.832 354.844 212.667 354.807 212.207C354.77 211.747 354.062 200.726 354.071 194.718Z" fill="#FFBF9D"/>
<path d="M359.168 206.356C359.232 206.301 359.444 206.549 359.913 206.761C360.581 207.025 361.324 207.025 361.992 206.761C363.667 206.126 365.065 203.449 365.12 200.578C365.157 199.21 364.884 197.851 364.32 196.604C364.166 196.107 363.894 195.655 363.527 195.286C363.16 194.918 362.709 194.644 362.213 194.488C361.894 194.406 361.557 194.438 361.259 194.58C360.961 194.721 360.723 194.962 360.585 195.261C360.373 195.712 360.474 196.024 360.392 196.052C360.309 196.08 360.051 195.794 360.171 195.132C360.255 194.737 360.472 194.383 360.787 194.129C361.225 193.795 361.777 193.646 362.324 193.715C362.979 193.838 363.591 194.128 364.102 194.557C364.613 194.985 365.005 195.538 365.24 196.162C365.931 197.536 366.272 199.059 366.234 200.597C366.16 203.808 364.532 206.825 362.232 207.506C361.805 207.635 361.355 207.666 360.915 207.595C360.476 207.525 360.057 207.356 359.692 207.101C359.196 206.742 359.113 206.384 359.168 206.356Z" fill="#FF9A6C"/>
<path d="M281.446 166.419C284.666 164.404 286.727 161.662 286.525 157.872C288.659 158.507 290.83 155.765 292.045 153.916C293.259 152.067 294.805 151.156 294.722 148.911C294.662 148.473 294.716 148.026 294.878 147.614C295.2 147.007 295.964 146.804 296.617 146.602C298.317 146.053 299.851 145.087 301.081 143.791C302.31 142.496 303.195 140.913 303.655 139.187C307.084 140.692 310.833 141.325 314.566 141.027C315.397 142.228 316.519 143.199 317.827 143.849C319.135 144.499 320.587 144.807 322.046 144.744C323.506 144.68 324.925 144.248 326.172 143.487C327.419 142.726 328.452 141.661 329.176 140.392C329.714 141.364 330.455 142.208 331.349 142.866C332.243 143.525 333.268 143.984 334.355 144.21C336.529 144.647 338.753 144.768 340.961 144.569C340.55 146.729 340.933 148.965 342.038 150.867C343.143 152.768 344.897 154.207 346.978 154.919C347.539 155.094 348.192 155.268 348.459 155.839C348.537 156.136 348.555 156.447 348.513 156.751C348.47 157.056 348.367 157.35 348.211 157.614C347.908 158.531 347.792 159.499 347.872 160.461C347.951 161.423 348.223 162.359 348.672 163.213C349.122 164.068 349.738 164.823 350.486 165.434C351.233 166.044 352.096 166.498 353.022 166.768C352.417 167.307 351.942 167.976 351.633 168.725C351.323 169.473 351.186 170.282 351.233 171.091C351.28 171.899 351.509 172.687 351.903 173.395C352.298 174.102 352.847 174.712 353.51 175.177C354.089 175.527 354.844 175.941 354.752 176.612C354.7 176.867 354.579 177.102 354.402 177.293C353.215 178.866 352.038 180.596 351.891 182.556C351.743 184.515 353.077 186.732 355.046 186.824C354.491 187.239 354.026 187.762 353.678 188.361C353.33 188.96 353.107 189.624 353.022 190.311C353.022 191.7 354.402 193.071 355.69 192.611C356.242 192.4 364.173 190.836 364.522 190.366C369.03 184.248 363.363 177.486 362.921 169.896C362.32 162.284 359.961 154.915 356.031 148.368C354.497 145.568 352.597 142.985 350.382 140.686C347.714 138.217 344.776 136.057 341.623 134.246C337.594 131.735 333.454 129.242 328.835 128.147C320.243 126.123 311.355 129.242 303.287 132.949C300.185 134.25 297.273 135.965 294.63 138.046C291.65 140.76 289.179 143.984 287.334 147.568C284.491 152.637 282.127 158.102 281.566 163.88" fill="#263238"/>
<path d="M278.328 160.844C278.519 160.231 278.808 159.653 279.183 159.132C279.524 158.599 280.002 157.982 280.453 157.191C280.968 156.278 281.281 155.264 281.373 154.22C281.46 152.908 281.438 151.591 281.308 150.282C281.134 148.704 281.177 147.11 281.437 145.544C281.787 143.747 282.501 142.041 283.535 140.53C284.101 139.705 284.762 138.948 285.504 138.276C286.293 137.6 287.132 136.985 288.015 136.436C288.934 135.878 289.755 135.173 290.444 134.348C291.075 133.419 291.585 132.415 291.962 131.358C293.905 126.64 297.472 122.773 302.018 120.456C303.241 119.841 304.528 119.36 305.854 119.02C307.226 118.697 308.631 118.539 310.04 118.551C310.76 118.573 311.479 118.631 312.193 118.726C312.901 118.836 313.6 118.993 314.309 119.122C315.713 119.416 317.164 119.416 318.568 119.122C319.994 118.836 321.393 118.33 322.865 117.962C325.865 117.179 328.973 116.899 332.065 117.134C333.649 117.287 335.214 117.595 336.738 118.054C339.877 118.927 342.667 120.753 344.724 123.28C344.917 123.547 345.11 123.814 345.313 124.071L345.055 123.97C349.696 123.086 354.5 124.014 358.477 126.564C362.454 129.114 365.302 133.092 366.436 137.678L366.316 137.522C368.236 138.386 370.098 139.373 371.892 140.475C373.648 141.548 375.192 142.936 376.446 144.569C377.631 146.183 378.348 148.093 378.516 150.089C378.71 152.013 378.16 153.939 376.979 155.471V155.204C379.124 157.42 380.426 160.317 380.659 163.392C380.921 166.138 380.336 168.899 378.985 171.304C378.674 171.855 378.32 172.381 377.927 172.877C377.533 173.332 377.165 173.808 376.823 174.303C376.508 174.77 376.312 175.307 376.252 175.867C376.222 176.416 376.237 176.967 376.298 177.514C376.473 179.532 376.412 181.564 376.114 183.568C375.892 185.188 375.358 186.75 374.541 188.168C373.925 189.208 373.074 190.09 372.057 190.744C371.238 191.286 370.502 191.498 370.098 191.792C369.889 191.932 369.695 192.092 369.518 192.271C369.662 192.056 369.851 191.874 370.07 191.737C370.466 191.424 371.202 191.194 371.993 190.642C372.978 189.983 373.797 189.105 374.385 188.076C375.175 186.672 375.688 185.129 375.894 183.531C376.162 181.546 376.205 179.536 376.022 177.542C375.953 176.977 375.934 176.407 375.967 175.84C376.027 175.231 376.235 174.647 376.574 174.138C376.916 173.633 377.284 173.148 377.678 172.684C378.047 172.187 378.379 171.665 378.672 171.12C379.975 168.766 380.527 166.069 380.254 163.392C380.028 160.412 378.765 157.606 376.685 155.462L376.556 155.333L376.666 155.195C377.782 153.74 378.293 151.911 378.092 150.089C377.924 148.179 377.233 146.352 376.096 144.808C374.868 143.227 373.362 141.883 371.652 140.843C369.875 139.757 368.031 138.783 366.132 137.926L366.031 137.88V137.761C364.912 133.303 362.133 129.44 358.262 126.962C354.391 124.485 349.719 123.579 345.202 124.43H345.046L344.945 124.301C344.761 124.044 344.568 123.795 344.374 123.538C342.385 121.057 339.67 119.259 336.61 118.395C335.108 117.962 333.567 117.679 332.01 117.548C328.978 117.312 325.928 117.583 322.984 118.349C321.54 118.708 320.123 119.223 318.651 119.508C317.918 119.655 317.172 119.729 316.425 119.729C315.687 119.71 314.951 119.63 314.226 119.49C313.518 119.361 312.818 119.204 312.119 119.094C311.427 118.999 310.73 118.941 310.031 118.919C308.659 118.902 307.29 119.053 305.955 119.37C304.658 119.697 303.4 120.163 302.202 120.759C297.725 123.032 294.208 126.83 292.284 131.468C291.892 132.555 291.363 133.587 290.711 134.541C289.992 135.39 289.141 136.117 288.19 136.694C287.311 137.238 286.477 137.854 285.697 138.534C284.974 139.187 284.328 139.922 283.774 140.723C282.747 142.193 282.036 143.859 281.686 145.618C281.415 147.157 281.356 148.726 281.511 150.282C281.63 151.604 281.63 152.934 281.511 154.256C281.419 155.319 281.106 156.35 280.591 157.283C280.112 158.084 279.625 158.682 279.275 159.206C279.002 159.591 278.759 159.997 278.548 160.42C278.392 160.687 278.337 160.844 278.328 160.844Z" fill="#455A64"/>
<path d="M337.64 120.695C337.64 120.695 337.217 120.456 336.444 120.069C335.355 119.534 334.182 119.188 332.976 119.048C331.192 118.825 329.38 119.085 327.732 119.802C325.711 120.69 324.026 122.198 322.92 124.108C322.585 124.689 322.316 125.307 322.12 125.948C322.017 126.219 321.975 126.509 321.996 126.798C322.016 127.087 322.099 127.369 322.239 127.622L322.626 128.165L321.982 127.981C320.325 127.529 318.557 127.737 317.05 128.561C315.859 129.23 314.912 130.261 314.346 131.505C313.965 132.329 313.752 133.22 313.72 134.127C313.72 134.762 313.72 135.111 313.72 135.12C313.72 135.13 313.72 135.038 313.646 134.872C313.596 134.627 313.568 134.377 313.564 134.127C313.534 132.934 313.825 131.755 314.406 130.713C314.987 129.671 315.836 128.804 316.866 128.202C318.461 127.297 320.348 127.056 322.12 127.53L321.862 127.889C321.677 127.58 321.564 127.234 321.532 126.875C321.501 126.517 321.55 126.156 321.678 125.819C321.88 125.15 322.161 124.508 322.515 123.906C323.658 121.912 325.418 120.343 327.529 119.434C329.26 118.673 331.169 118.412 333.04 118.68C334.276 118.848 335.469 119.251 336.554 119.867C336.849 120.031 337.132 120.215 337.401 120.419C337.557 120.603 337.64 120.676 337.64 120.695Z" fill="#455A64"/>
<path d="M363.446 139.049C363.446 139.049 363.28 139.279 362.894 139.61C362.328 140.093 361.711 140.512 361.054 140.861C360.076 141.397 358.993 141.711 357.88 141.781C356.457 141.888 355.046 141.458 353.924 140.576L354.273 140.521C354.126 140.732 353.97 140.953 353.804 141.174C353.639 141.395 353.445 141.588 353.261 141.8C352.157 142.937 350.789 143.784 349.278 144.265C348.055 144.67 346.763 144.83 345.478 144.734C344.617 144.668 343.77 144.472 342.967 144.155C342.671 144.048 342.392 143.899 342.139 143.713C343.225 144.079 344.353 144.307 345.497 144.394C346.746 144.444 347.994 144.26 349.177 143.851C350.603 143.364 351.896 142.547 352.949 141.468C353.123 141.266 353.307 141.082 353.464 140.88L353.915 140.263L354.071 140.042L354.264 140.208C355.294 141.023 356.587 141.432 357.898 141.358C358.962 141.306 360.003 141.031 360.953 140.548C362.572 139.757 363.4 138.975 363.446 139.049Z" fill="#455A64"/>
<path d="M371.836 153.842C371.836 153.842 371.836 153.944 371.836 154.137C371.76 154.409 371.638 154.667 371.478 154.9C370.864 155.772 369.944 156.38 368.902 156.602C367.37 156.877 365.791 156.701 364.357 156.096C363.501 155.813 362.663 155.482 361.845 155.103C360.9 154.712 360.122 154.002 359.646 153.097C359.646 153.005 359.582 152.913 359.545 152.84L359.922 152.95C358.499 154.126 356.904 155.079 355.194 155.774C353.771 156.339 352.22 156.498 350.713 156.234C349.7 156.06 348.749 155.626 347.953 154.974C347.738 154.797 347.544 154.597 347.374 154.376C347.263 154.229 347.208 154.146 347.226 154.137C347.245 154.128 347.502 154.413 348.064 154.827C348.862 155.396 349.787 155.762 350.759 155.894C352.203 156.104 353.678 155.923 355.028 155.37C356.687 154.677 358.236 153.747 359.628 152.61L359.886 152.407L360.005 152.72L360.088 152.941C360.516 153.741 361.209 154.369 362.048 154.716C362.866 155.112 363.713 155.425 364.504 155.719C365.862 156.315 367.36 156.519 368.828 156.308C369.807 156.127 370.69 155.606 371.321 154.836C371.519 154.519 371.691 154.187 371.836 153.842Z" fill="#455A64"/>
<path d="M389.022 96.9772C389.022 96.9772 388.746 96.9772 388.268 97.1152C387.572 97.3082 386.95 97.7057 386.483 98.256C385.75 99.1064 385.325 100.179 385.278 101.301C385.256 102.77 385.455 104.234 385.866 105.644L385.931 105.901H385.664C383.691 105.847 381.754 106.434 380.144 107.576C379.24 108.205 378.496 109.037 377.971 110.005C377.445 110.973 377.153 112.05 377.117 113.151C377.067 114.154 377.249 115.155 377.65 116.076C378.05 116.997 378.658 117.812 379.426 118.459L379.96 118.882H379.279C378.143 118.883 377.02 119.118 375.98 119.574C374.939 120.03 374.005 120.697 373.235 121.532C372.007 122.875 371.282 124.601 371.183 126.417C371.11 127.613 371.292 128.811 371.717 129.932C372.011 130.723 372.26 131.109 372.232 131.137C372.151 131.056 372.083 130.962 372.03 130.861C371.852 130.586 371.698 130.297 371.57 129.996C371.077 128.863 370.845 127.634 370.889 126.399C370.948 124.497 371.674 122.676 372.94 121.256C373.741 120.368 374.719 119.657 375.81 119.169C376.902 118.681 378.084 118.427 379.279 118.422L379.141 118.836C378.311 118.146 377.653 117.272 377.219 116.284C376.785 115.296 376.586 114.22 376.639 113.142C376.651 111.938 376.968 110.758 377.559 109.71C378.137 108.723 378.918 107.871 379.85 107.208C381.543 106.02 383.579 105.422 385.646 105.506L385.443 105.754C385.04 104.303 384.866 102.797 384.928 101.292C384.999 100.108 385.481 98.9857 386.29 98.118C386.797 97.5552 387.471 97.1686 388.212 97.014C388.403 96.9754 388.598 96.96 388.792 96.968C388.958 96.9588 389.022 96.968 389.022 96.9772Z" fill="#455A64"/>
<path d="M417.386 131.56C417.386 131.56 417.303 131.624 417.128 131.716C416.953 131.808 416.687 131.946 416.328 132.084C415.297 132.476 414.216 132.717 413.117 132.802C411.425 132.935 409.723 132.729 408.112 132.195C406.038 131.522 404.185 130.302 402.749 128.662H403.107C402.351 129.961 401.314 131.075 400.073 131.923C398.831 132.772 397.417 133.333 395.931 133.566C394.332 133.782 392.706 133.49 391.283 132.731C389.859 131.971 388.711 130.782 388.001 129.334H388.415C388.023 130.386 387.359 131.316 386.492 132.029C385.716 132.674 384.831 133.176 383.879 133.51C382.313 134.018 380.658 134.187 379.022 134.007C377.968 133.911 376.923 133.738 375.894 133.492C375.524 133.425 375.161 133.326 374.808 133.198C375.183 133.22 375.555 133.272 375.921 133.354C376.953 133.539 377.994 133.668 379.04 133.74C380.633 133.868 382.236 133.671 383.751 133.161C384.705 132.848 385.579 132.33 386.311 131.643C387.044 130.957 387.618 130.118 387.992 129.186L388.185 128.653L388.406 129.168C389.085 130.519 390.169 131.624 391.507 132.33C392.844 133.036 394.368 133.307 395.867 133.106C397.282 132.88 398.631 132.347 399.817 131.542C401.003 130.738 401.998 129.682 402.73 128.45L402.887 128.184L403.089 128.423C404.468 130.013 406.247 131.207 408.241 131.882C409.799 132.43 411.45 132.665 413.099 132.572C414.571 132.454 416.016 132.112 417.386 131.56Z" fill="#455A64"/>
<path d="M400.632 154.836C400.632 154.836 400.632 154.965 400.448 155.13C400.19 155.355 399.869 155.493 399.528 155.526C398.323 155.624 397.113 155.422 396.005 154.937C394.335 154.255 392.919 153.068 391.957 151.542C390.787 149.651 390.373 147.387 390.798 145.204V145.158L391.138 145.415C389.157 146.378 386.92 146.684 384.753 146.289C383.001 145.968 381.346 145.251 379.914 144.192C378.959 143.483 378.102 142.651 377.366 141.717C377.084 141.383 376.846 141.016 376.657 140.622C377.665 141.86 378.824 142.967 380.107 143.916C381.518 144.902 383.13 145.562 384.827 145.848C386.897 146.201 389.025 145.902 390.917 144.992L391.35 144.771L391.267 145.25V145.296C390.891 147.173 391.168 149.122 392.054 150.819C392.939 152.516 394.379 153.859 396.134 154.624C397.186 155.118 398.338 155.364 399.501 155.342C399.714 155.337 399.923 155.289 400.117 155.202C400.312 155.115 400.487 154.991 400.632 154.836Z" fill="#455A64"/>
<path d="M354.2 97.52C353.66 99.0932 353.414 100.752 353.473 102.414C353.62 105.049 354.716 107.54 356.557 109.43C358.399 111.319 360.862 112.477 363.492 112.691H363.786L363.694 112.976C362.761 115.991 362.871 119.232 364.007 122.176C364.183 122.668 364.398 123.145 364.651 123.602C364.732 123.769 364.851 123.914 364.998 124.028C365.145 124.141 365.316 124.219 365.498 124.255C365.611 124.27 365.726 124.26 365.836 124.227C365.945 124.193 366.046 124.137 366.132 124.062C366.243 123.942 366.27 123.85 366.289 123.86C366.307 123.869 366.289 123.961 366.197 124.117C366.109 124.22 365.998 124.3 365.874 124.351C365.749 124.403 365.614 124.423 365.479 124.412C365.266 124.39 365.062 124.316 364.884 124.198C364.706 124.079 364.56 123.919 364.458 123.731C364.172 123.274 363.926 122.794 363.722 122.296C362.47 119.297 362.304 115.955 363.253 112.847L363.455 113.151C362.138 113.055 360.848 112.725 359.646 112.176C357.745 111.339 356.122 109.977 354.968 108.249C353.814 106.522 353.177 104.501 353.133 102.424C353.088 101.176 353.262 99.9306 353.648 98.7436C353.753 98.4289 353.879 98.1215 354.025 97.8236C354.068 97.7144 354.127 97.6121 354.2 97.52Z" fill="#455A64"/>
<path d="M365.102 189.198V186.659L339.581 178.48C330.482 174.588 317.501 176.842 309.884 181.544L303.269 181.718L303.333 181.617C295.762 175.646 283.001 174.441 273.102 178.756L273.341 179.814C273.341 179.878 273.406 180.035 273.452 180.256L273.672 181.176C275.006 187.045 276.58 193.255 278.153 194.92C279.211 196.043 282.753 196.659 285.678 196.972C286.782 197.101 287.794 197.174 288.521 197.23C289.395 197.285 297.151 197.772 298.476 196.576C299.8 195.38 302.376 185.812 303.076 182.933L309.856 182.786C310.666 185.058 312.046 195.252 315.302 197.303C318.559 199.355 332.838 198.738 334.457 196.383C335.607 194.7 339.59 184.699 340.492 181.544L340.63 181.268L365.102 189.198ZM297.712 195.638C296.268 196.779 280.821 195.978 278.99 194.046C277.444 192.409 275.54 184.037 274.822 180.89V180.762C283.654 177.404 295.154 178.471 301.742 183.522C300.435 188.49 298.54 194.865 297.712 195.61V195.638ZM333.509 195.638C332.497 197.128 319.304 198.343 315.946 196.227C313.61 194.764 312.377 187.643 311.346 183.558C318.789 179.106 331.513 177.229 339.59 181.24C338 186.206 335.965 191.019 333.509 195.62V195.638Z" fill="#263238"/>
<g opacity="0.3">
<path d="M312.68 184.377C312.68 184.377 314.07 194.359 316.94 194.819C319.81 195.279 323.233 180.2 323.233 180.2C323.233 180.2 314.502 181.93 312.68 184.377Z" fill="white"/>
</g>
<g opacity="0.3">
<path d="M275.927 181.176C275.927 181.176 277.316 192.51 280.186 192.97C283.056 193.43 288.825 179.621 288.825 179.621C288.825 179.621 277.748 178.728 275.927 181.176Z" fill="white"/>
</g>
<path d="M364.43 365.838C361.394 362.646 351.744 354.614 348.892 353.482C346.04 352.351 337.162 373.207 336.591 378.672C336.021 384.137 339.112 391.313 342.958 396.106C348.478 402.951 361.716 411.35 366.74 413.687C371.763 416.024 386.06 424.203 394.708 405.812C403.356 387.421 402.252 387.568 404.69 379.988C408.452 368.248 411.571 345.101 413.467 331.016C415.081 318.145 415.607 305.161 415.04 292.201C414.432 280.802 411.231 270.544 403.567 263.488C397.127 257.554 375.636 309.552 375.636 310.012C375.636 310.472 365.737 365.728 365.737 365.728" fill="#455A64"/>
<path d="M293.36 298.742C293.36 298.742 291.3 295.21 298.761 294.142C306.222 293.075 311.586 294.28 313.26 294.998C314.934 295.716 324.3 304.538 325.036 306.25C327.06 310.85 330.446 324.788 330.446 324.788L335.046 331.292L324.236 350.695C323.24 349.532 322.161 348.443 321.006 347.438C319.387 346.076 314.52 344.457 313.536 340.382C312.552 337.086 311.223 333.904 309.571 330.887C309.571 330.887 291.428 326.959 289.818 326.14C288.208 325.321 288.328 322.883 288.328 322.883C286.426 322.674 284.54 322.346 282.679 321.899C281.686 321.494 279.376 318.219 283.231 316.498C287.086 314.778 299.883 313.794 301.631 313.794C303.379 313.794 311.696 314.879 311.696 314.879C311.696 314.879 300.766 312.414 297.418 312.119C294.069 311.825 286.497 312.018 285.283 311.742C283.765 311.392 282.762 307.823 285.605 306.526C289.046 304.952 294.538 304.465 295.789 304.419C300.638 304.244 312.266 306.029 312.266 306.029L308.071 301.364C304.658 300.744 301.206 300.366 297.74 300.233C296.162 300.197 294.633 299.676 293.36 298.742Z" fill="#FFBF9D"/>
<path d="M319.24 345.175L349.646 390.678C349.646 390.678 362.526 374.955 363.446 363.51L364.016 357.889L329.976 324.769L319.24 345.175Z" fill="#FFBF9D"/>
<path d="M310.555 322.966C309.449 322.905 308.346 322.786 307.252 322.607C305.228 322.368 302.413 322.12 299.294 322.064C296.175 322.009 293.351 322.184 291.318 322.359C290.219 322.507 289.114 322.596 288.006 322.626C288.284 322.516 288.574 322.442 288.871 322.405C289.441 322.285 290.26 322.156 291.281 322.028C293.941 321.692 296.622 321.544 299.303 321.586C301.981 321.631 304.652 321.859 307.298 322.267C308.319 322.432 309.138 322.589 309.69 322.718C309.988 322.762 310.279 322.846 310.555 322.966Z" fill="#FF9A6C"/>
<path d="M383.465 362.121C383.069 361.915 382.693 361.672 382.343 361.394L379.399 359.278C376.924 357.438 373.52 354.945 369.785 352.139C368.072 350.772 366.222 349.585 364.265 348.597C363.406 348.209 362.513 347.901 361.597 347.677C360.8 347.462 359.983 347.326 359.159 347.272C357.972 347.172 356.784 347.449 355.764 348.064C355.056 348.514 354.743 348.882 354.706 348.855C354.669 348.827 354.77 348.744 354.918 348.57C355.141 348.322 355.391 348.1 355.663 347.907C356.693 347.199 357.93 346.856 359.177 346.932C360.024 346.968 360.866 347.088 361.689 347.291C362.637 347.506 363.561 347.814 364.449 348.211C366.435 349.19 368.307 350.384 370.033 351.771C373.778 354.586 377.145 357.144 379.564 359.021L382.426 361.266C382.799 361.516 383.147 361.803 383.465 362.121Z" fill="#263238"/>
<path d="M398.13 362.213C398.066 362.278 396.998 361.036 395.03 359.334C393.862 358.337 392.633 357.416 391.35 356.574C388.242 354.513 384.826 352.96 381.23 351.974C379.757 351.572 378.261 351.265 376.749 351.054C374.155 350.686 372.526 350.695 372.526 350.603C372.906 350.537 373.292 350.515 373.676 350.538C374.124 350.513 374.572 350.513 375.02 350.538C375.535 350.538 376.133 350.584 376.786 350.676C378.338 350.847 379.875 351.13 381.386 351.523C383.214 352.018 385.002 352.655 386.731 353.427C388.449 354.22 390.104 355.143 391.681 356.187C392.959 357.059 394.173 358.022 395.315 359.067C395.812 359.499 396.235 359.941 396.584 360.309C396.908 360.624 397.215 360.956 397.504 361.302C397.746 361.582 397.956 361.887 398.13 362.213Z" fill="#263238"/>
<path d="M392.987 263.81C392.662 264.198 392.309 264.561 391.929 264.896C391.57 265.227 391.147 265.641 390.678 266.156C390.209 266.671 389.638 267.205 389.086 267.886C388.534 268.566 387.89 269.256 387.246 270.075C386.602 270.894 385.986 271.777 385.324 272.716C382.539 276.866 380.428 281.43 379.068 286.24C378.782 287.353 378.488 288.402 378.304 289.414C378.12 290.426 377.927 291.355 377.798 292.174C377.669 292.992 377.586 293.82 377.513 294.51C377.439 295.2 377.384 295.789 377.356 296.277C377.35 296.786 377.304 297.293 377.218 297.795C377.16 297.288 377.145 296.777 377.172 296.268C377.172 295.78 377.172 295.182 377.246 294.483C377.32 293.784 377.329 293.002 377.458 292.128C377.586 291.254 377.697 290.288 377.908 289.294C378.12 288.3 378.368 287.215 378.644 286.083C379.969 281.209 382.106 276.594 384.965 272.43C385.636 271.51 386.271 270.59 386.934 269.799C387.596 269.008 388.212 268.263 388.774 267.619C389.335 266.975 389.933 266.414 390.43 265.926C390.847 265.502 391.286 265.1 391.745 264.721C392.133 264.383 392.549 264.078 392.987 263.81Z" fill="#263238"/>
<path d="M364.43 365.838C361.394 362.646 351.744 354.614 348.892 353.482C346.04 352.351 337.162 373.207 336.591 378.672C336.021 384.137 339.112 391.313 342.958 396.106C348.478 402.951 361.716 411.35 366.74 413.687C371.763 416.024 386.06 424.203 394.708 405.812C403.356 387.421 402.252 387.568 404.69 379.988C408.452 368.248 411.571 345.101 413.467 331.016C415.081 318.145 415.607 305.161 415.04 292.201C414.432 280.802 411.231 270.544 403.567 263.488C397.127 257.554 375.636 309.552 375.636 310.012C375.636 310.472 365.737 365.728 365.737 365.728" fill="#455A64"/>
<path d="M293.36 298.742C293.36 298.742 291.3 295.21 298.761 294.142C306.222 293.075 311.586 294.28 313.26 294.998C314.934 295.716 324.3 304.538 325.036 306.25C327.06 310.85 330.446 324.788 330.446 324.788L335.046 331.292L324.236 350.695C323.24 349.532 322.161 348.443 321.006 347.438C319.387 346.076 314.52 344.457 313.536 340.382C312.552 337.086 311.223 333.904 309.571 330.887C309.571 330.887 291.428 326.959 289.818 326.14C288.208 325.321 288.328 322.883 288.328 322.883C286.426 322.674 284.54 322.346 282.679 321.899C281.686 321.494 279.376 318.219 283.231 316.498C287.086 314.778 299.883 313.794 301.631 313.794C303.379 313.794 311.696 314.879 311.696 314.879C311.696 314.879 300.766 312.414 297.418 312.119C294.069 311.825 286.497 312.018 285.283 311.742C283.765 311.392 282.762 307.823 285.605 306.526C289.046 304.952 294.538 304.465 295.789 304.419C300.638 304.244 312.266 306.029 312.266 306.029L308.071 301.364C304.658 300.744 301.206 300.366 297.74 300.233C296.162 300.197 294.633 299.676 293.36 298.742Z" fill="#FFBF9D"/>
<path d="M319.24 345.175L349.646 390.678C349.646 390.678 362.526 374.955 363.446 363.51L364.016 357.889L329.976 324.769L319.24 345.175Z" fill="#FFBF9D"/>
<path d="M310.555 322.966C309.449 322.905 308.346 322.786 307.252 322.607C305.228 322.368 302.413 322.12 299.294 322.064C296.175 322.009 293.351 322.184 291.318 322.359C290.219 322.507 289.114 322.596 288.006 322.626C288.284 322.516 288.574 322.442 288.871 322.405C289.441 322.285 290.26 322.156 291.281 322.028C293.941 321.692 296.622 321.544 299.303 321.586C301.981 321.631 304.652 321.859 307.298 322.267C308.319 322.432 309.138 322.589 309.69 322.718C309.988 322.762 310.279 322.846 310.555 322.966Z" fill="#FF9A6C"/>
<path d="M383.465 362.121C383.069 361.915 382.693 361.672 382.343 361.394L379.399 359.278C376.924 357.438 373.52 354.945 369.785 352.139C368.072 350.772 366.222 349.585 364.265 348.597C363.406 348.209 362.513 347.901 361.597 347.677C360.8 347.462 359.983 347.326 359.159 347.272C357.972 347.172 356.784 347.449 355.764 348.064C355.056 348.514 354.743 348.882 354.706 348.855C354.669 348.827 354.77 348.744 354.918 348.57C355.141 348.322 355.391 348.1 355.663 347.907C356.693 347.199 357.93 346.856 359.177 346.932C360.024 346.968 360.866 347.088 361.689 347.291C362.637 347.506 363.561 347.814 364.449 348.211C366.435 349.19 368.307 350.384 370.033 351.771C373.778 354.586 377.145 357.144 379.564 359.021L382.426 361.266C382.799 361.516 383.147 361.803 383.465 362.121Z" fill="#263238"/>
<path d="M375.636 310.04C375.643 310.286 375.628 310.533 375.59 310.776C375.535 311.31 375.452 312.009 375.36 312.892C375.13 314.778 374.808 317.428 374.44 320.666L371.156 346.288C370.889 348.303 370.631 350.272 370.383 352.158L370.153 351.891C378.893 351.891 386.501 354.08 391.313 356.758C393.224 357.768 394.991 359.031 396.566 360.511C396.992 360.907 397.395 361.328 397.771 361.772C397.913 361.915 398.039 362.072 398.148 362.241C398.148 362.241 397.569 361.643 396.447 360.64C394.842 359.224 393.068 358.012 391.166 357.034C386.363 354.458 378.819 352.369 370.153 352.36H369.84V352.093C370.088 350.207 370.346 348.238 370.604 346.224C371.938 336.251 373.143 327.216 374.026 320.629C374.486 317.391 374.854 314.75 375.121 312.874C375.25 311.954 375.36 311.291 375.443 310.767C375.483 310.519 375.548 310.275 375.636 310.04Z" fill="#263238"/>
<path d="M392.987 263.81C392.662 264.198 392.309 264.561 391.929 264.896C391.57 265.227 391.147 265.641 390.678 266.156C390.209 266.671 389.638 267.205 389.086 267.886C388.534 268.566 387.89 269.256 387.246 270.075C386.602 270.894 385.986 271.777 385.324 272.716C382.539 276.866 380.428 281.43 379.068 286.24C378.782 287.353 378.488 288.402 378.304 289.414C378.12 290.426 377.927 291.355 377.798 292.174C377.669 292.992 377.586 293.82 377.513 294.51C377.439 295.2 377.384 295.789 377.356 296.277C377.35 296.786 377.304 297.293 377.218 297.795C377.16 297.288 377.145 296.777 377.172 296.268C377.172 295.78 377.172 295.182 377.246 294.483C377.32 293.784 377.329 293.002 377.458 292.128C377.586 291.254 377.697 290.288 377.908 289.294C378.12 288.3 378.368 287.215 378.644 286.083C379.969 281.209 382.106 276.594 384.965 272.43C385.636 271.51 386.271 270.59 386.934 269.799C387.596 269.008 388.212 268.263 388.774 267.619C389.335 266.975 389.933 266.414 390.43 265.926C390.847 265.502 391.286 265.1 391.745 264.721C392.133 264.383 392.549 264.078 392.987 263.81Z" fill="#263238"/>
<path d="M233.155 333.307C233.155 333.307 225.363 314.042 226.872 307.547C226.966 307.159 227.188 306.814 227.502 306.568C227.815 306.321 228.202 306.186 228.601 306.185C228.923 306.181 229.239 306.265 229.516 306.427C229.793 306.589 230.021 306.823 230.175 307.105L240.295 326.618C240.295 326.618 241.638 323.049 244.554 321.798C247.646 320.655 250.793 319.669 253.984 318.844L263.129 319.985C263.484 320.028 263.819 320.169 264.098 320.391C264.377 320.614 264.589 320.91 264.709 321.246C264.83 321.582 264.854 321.945 264.78 322.295C264.705 322.644 264.535 322.966 264.288 323.224C262.789 324.628 260.822 325.424 258.768 325.459C252.135 326.011 250.405 327.538 250.405 327.538L247.093 333.242C247.093 333.242 254.085 328.458 256.293 328.274C258.014 328.136 267.536 327.934 271.667 327.851C272.43 327.827 273.181 328.047 273.812 328.479C274.442 328.911 274.918 329.532 275.172 330.252C275.604 331.568 275.301 333.012 272.357 333.794C272.357 333.794 275.586 335.469 271.197 337.658C268.522 338.963 265.755 340.07 262.917 340.97L256.661 345.193L246.183 352.553L233.864 344.098C233.864 344.098 229.475 339.443 232.208 335.552C232.613 334.844 232.931 334.09 233.155 333.307Z" fill="#FFBF9D"/>
<path d="M263.69 339.655C263.69 339.655 269.56 344.66 270.848 347.788C272.136 350.916 273.24 354.09 271.225 361.634C269.21 369.178 252.338 361.634 252.338 361.634C251.868 358.542 248.096 354.826 243.883 351.017L259.633 339.379L263.69 339.655Z" fill="#FFBF9D"/>
<path d="M241.96 323.95C241.7 324.489 241.392 325.003 241.04 325.487C240.424 326.407 239.614 327.722 238.731 329.167C236.974 332.092 235.483 334.429 235.354 334.346C235.55 333.77 235.816 333.22 236.146 332.709C236.679 331.724 237.434 330.381 238.317 328.918C240.019 325.984 241.831 323.84 241.96 323.95Z" fill="#FF9A6C"/>
<path d="M272.587 333.666C272.288 333.757 271.979 333.807 271.667 333.813L269.109 334.024C266.947 334.19 263.948 334.356 260.663 334.549C257.278 334.549 254.996 336.794 253.303 338.091C252.433 338.886 251.511 339.624 250.543 340.299C250.728 340.043 250.941 339.808 251.178 339.6C251.611 339.176 252.245 338.56 253.018 337.833C253.961 336.965 254.97 336.171 256.036 335.46C256.679 335.032 257.379 334.698 258.115 334.466C258.91 334.258 259.724 334.125 260.544 334.07C263.856 333.877 266.837 333.758 269.008 333.684C270.084 333.684 270.967 333.629 271.575 333.629C271.912 333.595 272.253 333.607 272.587 333.666Z" fill="#FF9A6C"/>
<path d="M247.48 333.353C247.563 333.463 247.02 333.997 246.468 334.751C245.916 335.506 245.548 336.186 245.438 336.14C245.327 336.094 245.438 335.285 246.082 334.466C246.726 333.647 247.37 333.242 247.48 333.353Z" fill="#FF9A6C"/>
<path d="M270.627 338.137C270.137 338.47 269.601 338.73 269.036 338.91C268.033 339.314 266.616 339.83 265.061 340.363C261.952 341.449 259.541 342.599 259.477 342.479C261.147 341.362 262.973 340.497 264.896 339.912C266.46 339.351 267.895 338.91 268.925 338.588C269.471 338.367 270.043 338.215 270.627 338.137Z" fill="#FF9A6C"/>
</svg>
