<svg width="153" height="153" viewBox="0 0 153 153" fill="none" xmlns="http://www.w3.org/2000/svg">
<path d="M146.057 137.516C146.057 137.562 114.762 137.596 76.1695 137.596C37.5767 137.596 6.27295 137.562 6.27295 137.516C6.27295 137.47 37.5614 137.437 76.1695 137.437C114.777 137.437 146.057 137.474 146.057 137.516Z" fill="#263238"/>
<path d="M56.7599 24.0394C56.7371 23.9645 56.6998 23.8949 56.6501 23.8344C56.6004 23.774 56.5392 23.7241 56.4701 23.6874C56.401 23.6507 56.3254 23.628 56.2475 23.6207C56.1696 23.6134 56.091 23.6215 56.0163 23.6446L53.3357 24.48L16.5729 34.2322L29.6636 85.2516L34.2199 87.6476L71.6376 77.2436C71.7822 77.2035 71.9173 77.1349 72.035 77.0419C72.1527 76.9489 72.2507 76.8332 72.3231 76.7018C72.3955 76.5704 72.4409 76.4258 72.4567 76.2766C72.4724 76.1274 72.4582 75.9766 72.4148 75.8329L56.7599 24.0394Z" fill="white"/>
<path d="M52.6014 22.0167L56.2642 24.1648L71.9467 76.4174L34.1588 87.2069L29.8656 84.8752L52.6014 22.0167Z" fill="#F5F5F5"/>
<path d="M66.8089 74.2448L29.6636 85.2608L14.6451 34.578C14.5511 34.2578 14.5862 33.9136 14.7429 33.619C14.8996 33.3244 15.1655 33.103 15.4835 33.0021L52.2311 21.4659C52.3211 21.4378 52.4158 21.4279 52.5096 21.437C52.6035 21.446 52.6946 21.4737 52.7775 21.5185C52.8605 21.5632 52.9337 21.6242 52.9928 21.6976C53.0519 21.7711 53.0956 21.8557 53.1216 21.9463L67.6413 72.7423C67.7275 73.0519 67.6886 73.3829 67.5329 73.664C67.3771 73.9451 67.1171 74.1537 66.8089 74.2448V74.2448Z" fill="white"/>
<path d="M34.4157 83.1065C34.3759 83.1065 30.9181 71.7845 26.6984 57.7636C22.4787 43.7427 19.0882 32.384 19.131 32.3656C19.1739 32.3472 22.6286 43.6876 26.8514 57.7116C31.0742 71.7356 34.4586 83.0943 34.4157 83.1065Z" fill="#263238"/>
<path d="M33.1061 84.4162C33.0633 84.4315 29.6086 73.0942 25.3888 59.0733C21.1691 45.0524 17.7786 33.6967 17.8214 33.6753C17.8643 33.6539 21.319 44.9973 25.5388 59.0213C29.7585 73.0453 33.149 84.404 33.1061 84.4162Z" fill="#263238"/>
<path d="M31.4812 46.206C31.729 46.9893 31.3221 47.7054 30.4683 47.9716L29.3759 48.3235L28.5466 45.6919L29.6788 45.3339C30.4989 45.0707 31.2364 45.4257 31.4812 46.206ZM30.7804 46.4355C30.7575 46.3352 30.7139 46.2409 30.6524 46.1585C30.5908 46.0761 30.5128 46.0075 30.4231 45.9571C30.3335 45.9066 30.2344 45.8755 30.132 45.8657C30.0296 45.8558 29.9263 45.8675 29.8288 45.9L29.3973 46.0346L29.8747 47.5646L30.3398 47.4177C30.4372 47.3878 30.5271 47.3374 30.6034 47.2699C30.6798 47.2024 30.7409 47.1194 30.7826 47.0264C30.8243 46.9334 30.8457 46.8326 30.8453 46.7307C30.8449 46.6288 30.8228 46.5282 30.7804 46.4355Z" fill="white"/>
<path d="M32.0963 44.5658L32.9256 47.1974L32.2401 47.4147L31.4109 44.7831L32.0963 44.5658Z" fill="white"/>
<path d="M34.0363 44.575C33.8474 44.6437 33.6922 44.7827 33.6032 44.963C33.5142 45.1432 33.4982 45.3509 33.5586 45.5427C33.619 45.7345 33.7511 45.8955 33.9273 45.9923C34.1035 46.0891 34.3103 46.1141 34.5045 46.0622C34.7484 45.9672 34.9473 45.7836 35.0614 45.5481L35.5969 45.8541C35.4062 46.2437 35.0699 46.5426 34.6606 46.6864C34.4812 46.7506 34.2907 46.7778 34.1005 46.7662C33.9104 46.7546 33.7245 46.7045 33.5543 46.619C33.384 46.5335 33.2329 46.4143 33.1101 46.2686C32.9873 46.123 32.8953 45.9539 32.8398 45.7717C32.7842 45.5895 32.7662 45.3978 32.7869 45.2084C32.8075 45.0191 32.8664 44.8358 32.96 44.6699C33.0536 44.5039 33.1799 44.3587 33.3312 44.243C33.4826 44.1273 33.6558 44.0435 33.8405 43.9967C34.2419 43.8743 34.6755 43.9161 35.0461 44.113L34.7983 44.725C34.6895 44.6467 34.5651 44.5929 34.4336 44.567C34.3022 44.5411 34.1667 44.5438 34.0363 44.575V44.575Z" fill="white"/>
<path d="M37.234 42.9471L37.4115 43.5132L36.625 43.7641L37.2768 45.8265L36.5883 46.0438L35.9365 43.9783L35.1562 44.2262L34.9788 43.6601L37.234 42.9471Z" fill="white"/>
<path d="M38.201 42.6441L39.0302 45.2757L38.3417 45.493L37.5125 42.8614L38.201 42.6441Z" fill="white"/>
<path d="M41.8026 42.9532C41.9121 43.2331 41.9347 43.5395 41.8676 43.8325C41.8005 44.1255 41.6466 44.3915 41.4262 44.5958C41.2057 44.8001 40.9288 44.9333 40.6316 44.978C40.3343 45.0227 40.0305 44.9768 39.7597 44.8464C39.4889 44.716 39.2637 44.507 39.1133 44.2467C38.963 43.9864 38.8945 43.6869 38.9169 43.3871C38.9392 43.0874 39.0513 42.8013 39.2385 42.5662C39.4257 42.331 39.6794 42.1577 39.9666 42.0689C40.145 42.0034 40.3348 41.9745 40.5246 41.9837C40.7144 41.993 40.9004 42.0402 41.0716 42.1227C41.2429 42.2052 41.3958 42.3212 41.5213 42.4638C41.6469 42.6065 41.7425 42.7729 41.8026 42.9532V42.9532ZM39.6606 43.6295C39.7182 43.8276 39.8519 43.9949 40.0326 44.0947C40.2132 44.1945 40.4261 44.2187 40.6245 44.1619C40.8084 44.0857 40.9571 43.9434 41.0412 43.7629C41.1253 43.5825 41.1387 43.3771 41.0788 43.1872C41.0188 42.9974 40.8899 42.8369 40.7174 42.7375C40.5449 42.6381 40.3414 42.607 40.1471 42.6503C40.051 42.6827 39.9622 42.7338 39.8859 42.8006C39.8095 42.8674 39.7471 42.9486 39.7022 43.0395C39.6573 43.1305 39.6307 43.2294 39.6241 43.3307C39.6175 43.4319 39.6309 43.5334 39.6636 43.6295H39.6606Z" fill="white"/>
<path d="M42.335 41.3406L44.0272 42.5646L43.5284 40.9795L44.168 40.7776L44.9972 43.4092L44.3852 43.5989L42.6961 42.3994L43.1918 43.9753L42.5523 44.1772L41.72 41.5456L42.335 41.3406Z" fill="white"/>
<path d="M47.124 42.228L45.9887 42.586L45.9489 43.1123L45.2451 43.3327L45.5511 40.3461L46.258 40.1227L48.1888 42.4085L47.4575 42.638L47.124 42.228ZM46.7568 41.769L46.0989 40.9428L46.0285 41.9985L46.7568 41.769Z" fill="white"/>
<path d="M49.9973 41.8179L49.3853 41.2059L48.8896 41.362L49.1191 42.0903L48.4306 42.3075L47.6013 39.6759L48.7825 39.3026C49.4832 39.0823 49.9851 39.3026 50.1717 39.881C50.2378 40.049 50.2539 40.2326 50.2181 40.4096C50.1823 40.5866 50.096 40.7494 49.9698 40.8785L50.7898 41.564L49.9973 41.8179ZM48.6999 40.8234L49.1986 40.6674C49.2579 40.6571 49.3141 40.6337 49.3631 40.5989C49.4122 40.5642 49.4528 40.5189 49.4821 40.4664C49.5115 40.4139 49.5287 40.3556 49.5326 40.2956C49.5365 40.2356 49.5269 40.1755 49.5046 40.1196C49.4904 40.0615 49.4631 40.0073 49.425 39.9611C49.3869 39.9149 49.3388 39.8779 49.2844 39.8529C49.23 39.8279 49.1706 39.8155 49.1107 39.8167C49.0508 39.8178 48.992 39.8325 48.9385 39.8595L48.4398 40.0156L48.6999 40.8234Z" fill="white"/>
<path d="M52.228 40.19L52.4942 41.0315L51.8057 41.2488L51.5487 40.4256L50.0187 38.9232L50.7041 38.7059L51.6833 39.6239L51.9373 38.302L52.6227 38.0847L52.228 40.19Z" fill="white"/>
<path d="M40.2298 54.2905L37.2401 55.233L37.1422 56.6069L35.2848 57.1945L36.0773 49.3394L37.9317 48.755L43.0144 54.774L41.0896 55.386L40.2298 54.2905ZM39.2597 53.0665L37.537 50.9L37.3472 53.654L39.2597 53.0665Z" fill="white"/>
<path d="M44.9819 50.184L45.3369 51.307L42.7206 52.1332L42.3656 51.0071L44.9819 50.184Z" fill="white"/>
<path d="M50.8174 44.6943L51.1907 45.8786L48.8896 51.3101L52.6013 50.1411L53.0573 51.5916L46.9373 53.5224L46.567 52.3505L48.8651 46.9067L45.343 48.0175L44.8871 46.564L50.8174 44.6943Z" fill="white"/>
<path d="M68.752 75.582L68.6663 75.6157L68.4062 75.7044L67.4086 76.0104L63.7366 77.161L51.5793 80.8942L39.4066 84.5845L35.707 85.68L34.7003 85.986L34.4371 86.0594C34.4075 86.0698 34.3766 86.0759 34.3453 86.0778C34.3724 86.0631 34.4012 86.0518 34.431 86.0441L34.6911 85.9554L35.6887 85.6494L39.3607 84.4988L51.5211 80.7626L63.6907 77.0753L67.3842 75.9737L68.3909 75.6677L68.6541 75.5973C68.6858 75.5877 68.7188 75.5826 68.752 75.582V75.582Z" fill="#263238"/>
<path d="M47.9226 81.0013L42.2892 82.7301C43.6137 85.1565 44.5551 87.7732 45.0799 90.4873C45.8813 89.252 46.3192 87.8163 46.3437 86.344C47.2961 87.4855 48.3344 88.5525 49.4496 89.5356C49.5277 86.6165 49.008 83.7122 47.9226 81.0013V81.0013Z" fill="#455A64"/>
<path d="M68.0636 74.8843C68.0636 74.8843 68.036 74.8996 67.9779 74.921L67.7209 75.0067L66.7233 75.3127L63.0513 76.4602L50.8939 80.1965L38.7243 83.8868L35.0309 84.9884L34.0242 85.2791L33.761 85.3495L33.6692 85.3709C33.6961 85.3551 33.7249 85.3428 33.7549 85.3342L34.0119 85.2485L35.0125 84.9272L38.6845 83.7797L50.8419 80.0435L63.0146 76.3531L66.708 75.276L67.7147 74.9853L67.9779 74.9149L68.0636 74.8843Z" fill="#263238"/>
<path d="M69.2049 73.44C69.1861 73.3985 69.1707 73.3555 69.159 73.3115L69.0458 72.932L68.6266 71.4755C68.2655 70.2025 67.7453 68.3726 67.0966 66.1143C65.8114 61.5855 64.0213 55.3309 62.0047 48.4367C59.9882 41.5425 58.1399 35.3154 56.7691 30.8081C56.0928 28.559 55.5451 26.7383 55.1595 25.4684C54.9759 24.8564 54.829 24.3545 54.728 24.0149C54.6821 23.8557 54.6454 23.7303 54.6209 23.6385C54.6062 23.5956 54.595 23.5516 54.5873 23.5069C54.6062 23.5476 54.6226 23.5895 54.6362 23.6324C54.6638 23.7242 54.7066 23.8466 54.7586 24.0057C54.8657 24.3453 55.0218 24.8288 55.2207 25.45C55.6124 26.7138 56.1785 28.5314 56.8792 30.7744C58.2654 35.2726 60.1473 41.4997 62.1669 48.3969C64.1865 55.2942 65.9552 61.5549 67.2128 66.0868C67.8248 68.3512 68.3389 70.1841 68.6878 71.4632L69.0794 72.929C69.1192 73.0911 69.1529 73.2166 69.1743 73.3115C69.1957 73.4063 69.2049 73.44 69.2049 73.44Z" fill="#263238"/>
<path d="M53.0358 33.2897C53.0358 33.2897 53.0358 33.253 52.9991 33.1857L52.8981 32.8797C52.8084 32.6022 52.6799 32.2044 52.5126 31.6863C52.1821 30.6459 51.7017 29.1312 51.0927 27.2187L51.1509 27.2493L23.2253 35.9886L23.2773 35.8877C23.9291 37.9746 24.5656 40.0156 25.1745 41.9771L25.0766 41.925L44.9819 35.753L50.8724 33.9415L52.4667 33.455L52.8828 33.3295L53.0267 33.2897L52.8951 33.3387L52.4912 33.4672L50.9306 33.966L45.0676 35.802L25.1225 42.078L25.046 42.0995L25.0215 42.026C24.4095 40.0646 23.7731 38.0235 23.1243 35.9397L23.0999 35.8632L23.1764 35.8387L51.1233 27.1605L51.1662 27.1452V27.1881C51.7568 29.1189 52.2219 30.6459 52.5462 31.6985C52.6992 32.2126 52.8216 32.6165 52.9043 32.8858C52.944 33.0174 52.9716 33.1153 52.993 33.1918C53.0102 33.2231 53.0245 33.2558 53.0358 33.2897V33.2897Z" fill="white"/>
<path d="M127.176 52.2104C133.678 49.5612 136.8 42.1434 134.151 35.6422C131.502 29.141 124.084 26.0183 117.583 28.6674C111.082 31.3165 107.959 38.7344 110.608 45.2356C113.257 51.7368 120.675 54.8595 127.176 52.2104Z" fill="white"/>
<path d="M111.996 53.0084C111.981 53.0084 111.996 52.8707 111.913 52.6381C111.807 52.3088 111.602 52.0203 111.326 51.8119C111.141 51.6636 110.924 51.559 110.693 51.5059C110.429 51.4523 110.156 51.4768 109.906 51.5763C109.614 51.6783 109.36 51.8663 109.177 52.1157C108.994 52.3651 108.891 52.6641 108.881 52.9733C108.871 53.2825 108.956 53.5874 109.123 53.8476C109.29 54.1079 109.532 54.3114 109.817 54.4313C110.061 54.5435 110.332 54.5838 110.598 54.5476C110.831 54.5108 111.054 54.423 111.249 54.2905C111.538 54.1005 111.76 53.8257 111.886 53.5041C111.972 53.2746 111.978 53.1339 111.99 53.1369C111.994 53.1705 111.994 53.2044 111.99 53.2379C111.989 53.2783 111.983 53.3184 111.972 53.3572C111.963 53.4127 111.949 53.4671 111.929 53.5194C111.83 53.8073 111.656 54.0635 111.425 54.261C111.193 54.4586 110.913 54.5903 110.613 54.6424C110.327 54.6889 110.035 54.6495 109.771 54.5292C109.478 54.3978 109.227 54.1855 109.049 53.9172C108.849 53.6371 108.742 53.3009 108.743 52.9564C108.76 52.6118 108.887 52.2816 109.104 52.0139C109.301 51.7633 109.562 51.5717 109.86 51.46C110.131 51.3571 110.425 51.3358 110.708 51.3988C110.957 51.4598 111.189 51.5782 111.384 51.7446C111.666 51.9681 111.87 52.2757 111.965 52.6228C111.979 52.6773 111.989 52.7324 111.996 52.7881C112.002 52.8287 112.002 52.8699 111.996 52.9105C111.999 52.943 111.999 52.9759 111.996 53.0084V53.0084Z" fill="#263238"/>
<path d="M120.234 53.0818L120.442 53.1002L121.054 53.1675L121.497 53.2165C121.663 53.2165 121.843 53.2165 122.039 53.2165H122.669C122.786 53.2219 122.903 53.2168 123.018 53.2012L123.388 53.1706C124.62 53.0782 125.83 52.7996 126.978 52.3444C128.502 51.7518 129.898 50.8719 131.09 49.7526L131.589 49.2752C131.745 49.1069 131.895 48.9233 132.051 48.7458L132.287 48.4765C132.367 48.3863 132.442 48.2913 132.51 48.192L132.936 47.58C133.006 47.479 133.079 47.3811 133.15 47.274L133.336 46.9465C133.459 46.7262 133.587 46.5059 133.713 46.2825C133.838 46.0591 133.927 45.8113 134.037 45.5757C134.092 45.4563 134.144 45.3339 134.199 45.2146C134.224 45.1534 134.254 45.0952 134.276 45.034L134.34 44.8443C134.527 44.3352 134.678 43.8137 134.793 43.2837C134.848 43.0144 134.922 42.7482 134.964 42.4698C135.007 42.1913 135.029 41.9128 135.062 41.6313C135.078 41.4906 135.102 41.3498 135.108 41.206C135.114 41.0622 135.108 40.9214 135.108 40.7776C135.108 40.4899 135.123 40.1992 135.108 39.9085C135.078 39.3181 135.008 38.7303 134.9 38.149L134.817 37.7053C134.817 37.6319 134.793 37.5585 134.775 37.482L134.713 37.2647C134.628 36.9587 134.545 36.6802 134.459 36.3865C134.374 36.0927 134.236 35.8143 134.126 35.5236C134.065 35.3828 134.016 35.2176 133.945 35.0952L133.731 34.679C133.445 34.1141 133.121 33.5692 132.761 33.048C132.565 32.794 132.366 32.5431 132.168 32.2891L132.018 32.0964L131.849 31.9219L131.513 31.567L131.176 31.212L130.806 30.906L130.439 30.6L130.252 30.4378C130.188 30.3889 130.117 30.343 130.05 30.294L129.236 29.7157L128.364 29.2169C125.939 27.9155 123.154 27.4427 120.435 27.8705L119.447 28.0541L118.486 28.3295L118.248 28.3999L118.018 28.4917L117.559 28.6753L117.103 28.8558L116.666 29.0792L116.234 29.3026L116.017 29.4158L115.815 29.5443L115.001 30.0645C114.49 30.4401 114.004 30.849 113.547 31.2885L113.22 31.6068C113.107 31.7139 113.012 31.8393 112.914 31.9556C112.715 32.1912 112.504 32.4177 112.302 32.6594L111.773 33.403L111.641 33.5896C111.601 33.6539 111.565 33.7182 111.528 33.7855C111.451 33.914 111.378 34.0456 111.304 34.1741C111.011 34.6878 110.751 35.2204 110.527 35.7684C110.423 36.0407 110.341 36.3192 110.246 36.5915C110.203 36.7261 110.157 36.8638 110.111 36.9985C110.065 37.1331 110.047 37.2769 110.013 37.4146C109.952 37.6931 109.891 37.9654 109.83 38.2408C109.768 38.5162 109.759 38.7916 109.722 39.064C109.658 39.602 109.629 40.1439 109.637 40.6858V40.8847C109.637 40.952 109.637 41.0163 109.652 41.0836C109.652 41.2152 109.673 41.3467 109.683 41.4753C109.71 41.7354 109.716 41.9955 109.756 42.2494C109.796 42.5034 109.848 42.7543 109.894 43.0022C109.918 43.1246 109.94 43.2501 109.961 43.3725L110.062 43.7305C110.132 43.9692 110.2 44.2048 110.267 44.4373C110.298 44.5536 110.338 44.6672 110.386 44.777C110.429 44.8902 110.472 45.0004 110.518 45.1105C110.607 45.3309 110.686 45.5512 110.781 45.7623C110.876 45.9735 110.989 46.1754 111.087 46.3743C111.843 47.8249 112.872 49.1163 114.117 50.1779C114.251 50.2942 114.383 50.4135 114.517 50.5237L114.934 50.8297L115.334 51.1173C115.402 51.1632 115.466 51.2122 115.533 51.252L115.735 51.3682L116.503 51.8119C116.751 51.9435 117.002 52.0414 117.232 52.1516L117.568 52.3015C117.673 52.353 117.781 52.396 117.893 52.4301L118.489 52.632C118.676 52.6932 118.847 52.7575 119.003 52.8003L119.441 52.9013L120.035 53.039L120.237 53.088C120.237 53.088 120.166 53.088 120.032 53.0512L119.438 52.9227L118.997 52.8279C118.838 52.7881 118.667 52.7238 118.48 52.6657L117.868 52.4698C117.757 52.4363 117.648 52.3933 117.544 52.3413L117.204 52.1914C116.972 52.0843 116.721 51.9894 116.47 51.8578L115.702 51.408L115.497 51.2917C115.429 51.252 115.368 51.203 115.301 51.1571L114.897 50.8725L114.475 50.5665L114.071 50.2177C112.813 49.1558 111.774 47.8599 111.011 46.4019C110.904 46.1999 110.8 45.9949 110.705 45.7899C110.61 45.5848 110.527 45.3553 110.438 45.135C110.396 45.0218 110.35 44.9116 110.304 44.7984C110.254 44.6877 110.215 44.5731 110.184 44.4557C110.117 44.2201 110.047 43.9845 109.979 43.7458C109.943 43.6264 109.906 43.5071 109.875 43.3847C109.845 43.2623 109.83 43.1368 109.805 43.0114C109.759 42.7605 109.713 42.5095 109.664 42.2556C109.615 42.0016 109.615 41.7354 109.591 41.4753C109.591 41.3437 109.566 41.2121 109.557 41.0775C109.557 41.0132 109.542 40.9459 109.542 40.8786V40.698C109.532 40.1521 109.559 39.6061 109.624 39.064C109.661 38.7916 109.68 38.5101 109.732 38.2347L109.915 37.4024C109.949 37.2616 109.97 37.1209 110.013 36.9832L110.151 36.5701C110.243 36.2977 110.325 36.0162 110.432 35.7408C110.656 35.1883 110.916 34.6515 111.213 34.1343L111.436 33.7396C111.476 33.6723 111.509 33.6049 111.552 33.5407L111.69 33.354C111.867 33.1072 112.045 32.8563 112.222 32.6013C112.412 32.3595 112.626 32.13 112.834 31.8913C112.938 31.7751 113.033 31.6496 113.14 31.5425L113.483 31.2151C113.945 30.7757 114.434 30.3668 114.949 29.9911L115.769 29.4678L115.974 29.3362L116.191 29.223L116.629 28.9966L117.069 28.7732L117.532 28.5865L117.994 28.4029L118.226 28.3111L118.465 28.2408L119.435 27.9592L120.432 27.7756C123.177 27.343 125.987 27.8202 128.434 29.1343L129.316 29.6392L130.136 30.2206C130.203 30.2695 130.273 30.3154 130.341 30.3675L130.527 30.5327L130.904 30.8571L131.28 31.1845L131.62 31.5425L131.959 31.8975C132.015 31.9587 132.073 32.0168 132.125 32.078L132.278 32.2708L132.89 33.0358C133.251 33.5625 133.577 34.1125 133.866 34.6821L134.08 35.1013C134.153 35.242 134.202 35.4073 134.261 35.5358C134.374 35.8418 134.499 36.1141 134.597 36.4079L134.854 37.2922L134.915 37.5126C134.934 37.586 134.946 37.6625 134.961 37.7359C134.989 37.8859 135.016 38.0419 135.041 38.1827C135.151 38.7689 135.22 39.3618 135.249 39.9575C135.249 40.2635 135.249 40.545 135.249 40.8357C135.249 40.9795 135.249 41.1234 135.249 41.2672C135.249 41.411 135.218 41.5548 135.203 41.6956L135.102 42.5432C135.059 42.8217 134.986 43.0909 134.931 43.3633C134.813 43.8965 134.658 44.421 134.469 44.9331L134.404 45.1228C134.383 45.184 134.352 45.2452 134.325 45.3064L134.163 45.6705C134.052 45.9092 133.958 46.1509 133.835 46.3804L133.416 47.0261L133.226 47.3566C133.156 47.4606 133.082 47.5616 133.012 47.6626L132.581 48.2746C132.513 48.3754 132.437 48.4705 132.354 48.5592L132.119 48.8315C131.959 49.009 131.813 49.1926 131.65 49.3639L131.149 49.8413C129.942 50.9629 128.53 51.8399 126.99 52.4239C125.837 52.8793 124.622 53.1559 123.385 53.244L123.015 53.2716C122.899 53.2821 122.782 53.2821 122.666 53.2716H122.033C121.837 53.2716 121.653 53.2716 121.491 53.2563L121.044 53.2012L120.432 53.1216L120.234 53.0818Z" fill="#263238"/>
<path d="M119.34 37.638H121.133C121.133 37.4342 121.174 37.2325 121.253 37.0446C121.332 36.8568 121.448 36.6866 121.593 36.5441C121.739 36.4015 121.911 36.2895 122.101 36.2147C122.291 36.1398 122.493 36.1035 122.697 36.108C122.997 36.0971 123.293 36.1795 123.545 36.3439C123.797 36.5083 123.991 36.7466 124.101 37.026C124.196 37.2608 124.234 37.5146 124.211 37.7667C124.189 38.0187 124.107 38.262 123.973 38.4764C123.667 38.9783 123.003 39.4342 121.794 39.22V43.2623H123.566V40.8969C124.294 40.6832 124.932 40.2362 125.381 39.6248C125.831 39.0134 126.067 38.2713 126.054 37.5125C126.054 34.8901 123.704 34.2842 122.688 34.2842C121.92 34.3026 119.3 34.4862 119.34 37.638Z" fill="#263238"/>
<path d="M123.584 44.113H121.785V45.7929H123.584V44.113Z" fill="#263238"/>
<path d="M77.1702 43.8131C75.3801 42.4453 75.169 39.6148 76.3716 37.7114C77.5742 35.8081 79.86 34.7891 82.106 34.627C83.7375 34.5239 85.3703 34.808 86.8711 35.4563C88.3718 36.1046 89.698 37.0986 90.7413 38.3571C91.8521 39.7249 92.6967 41.4538 94.3032 42.176C95.7138 42.8125 97.3632 42.482 98.8779 42.8278C100.907 43.2745 102.535 44.8871 103.431 46.7599C104.328 48.6326 104.576 50.7379 104.637 52.8217C104.692 54.7281 104.658 56.7997 105.845 58.2991C107.033 59.7985 108.988 60.2147 110.491 61.3071C113.315 63.3665 113.89 67.8983 111.669 70.5942C110.962 71.4571 109.986 72.216 109.814 73.3176C109.658 74.3213 110.234 75.2821 110.454 76.2736C111.023 78.8317 108.728 81.6071 106.109 81.5276C104.787 81.4847 103.422 80.8483 102.192 81.3318C100.962 81.8152 100.411 83.1861 99.5664 84.1929C98.7089 85.1654 97.5431 85.8135 96.2645 86.0286C94.9858 86.2437 93.6721 86.0125 92.5437 85.374C91.6257 84.814 90.775 83.9511 89.6918 83.9297C88.6085 83.9083 87.6875 84.7467 86.6134 84.8477C85.2089 84.9915 83.9879 83.8593 83.2658 82.6445C82.5436 81.4297 82.0907 80.0312 81.1238 79.0031C79.8569 77.6567 77.9475 77.1854 76.2584 76.4296C74.3866 75.5949 72.716 74.3678 71.3596 72.8315C70.0033 71.2951 68.9928 69.4853 68.3965 67.5245C67.8003 65.5637 67.6322 63.4977 67.9037 61.4663C68.1752 59.4349 68.8798 57.4856 69.9701 55.7501" fill="#263238"/>
<path d="M95.0222 70.3433C95.4867 69.9252 96.0451 69.625 96.6501 69.4681L96.5338 69.4528C96.644 69.4346 96.7556 69.4254 96.8673 69.4253C97.0721 69.3844 97.2831 69.3858 97.4872 69.4295C97.6914 69.4732 97.8845 69.5582 98.0546 69.6793V69.6793C98.7035 69.9802 99.2165 70.5128 99.4928 71.1726C99.7015 71.7539 99.7462 72.3814 99.6221 72.9864C99.498 73.5914 99.2097 74.1507 98.789 74.6028C98.0699 75.3954 96.9071 75.8513 95.8943 75.5208C94.9763 75.2148 94.3337 74.2815 94.147 73.3146C94.0309 72.7857 94.0503 72.236 94.2033 71.7166C94.3563 71.1972 94.6379 70.7248 95.0222 70.3433V70.3433Z" fill="#455A64"/>
<path d="M97.9751 57.4515C97.9567 52.069 94.7988 45.2819 89.4224 45.5175L72.4945 48.7397C71.7066 48.7751 70.9608 49.1053 70.4048 49.6646C69.8488 50.224 69.5233 50.9718 69.4926 51.7599L67.1578 97.1366L86.3165 97.0357C86.5491 93.789 87.4059 84.6488 87.4059 84.6794C87.4059 84.71 94.8631 83.9695 96.8123 75.1199C97.7854 70.7258 97.9935 63.4277 97.9751 57.4515Z" fill="#FFBF9D"/>
<path d="M93.9574 64.7772C93.9431 65.0759 93.8124 65.3571 93.5934 65.5607C93.3744 65.7643 93.0843 65.8741 92.7854 65.8665C92.639 65.8698 92.4934 65.8437 92.3572 65.7897C92.2211 65.7357 92.0971 65.655 91.9927 65.5523C91.8883 65.4496 91.8055 65.327 91.7493 65.1918C91.6931 65.0565 91.6646 64.9114 91.6654 64.7649C91.6797 64.4659 91.8103 64.1844 92.0292 63.9803C92.2481 63.7762 92.5382 63.6658 92.8374 63.6725C92.984 63.6696 93.1296 63.6961 93.2658 63.7505C93.402 63.8048 93.5259 63.8858 93.6303 63.9887C93.7346 64.0917 93.8174 64.2145 93.8735 64.3499C93.9297 64.4853 93.9582 64.6306 93.9574 64.7772Z" fill="#263238"/>
<path d="M96.1788 60.539C96.0289 60.6798 95.1996 59.9852 93.9634 59.927C92.7272 59.8689 91.7908 60.4197 91.6653 60.2606C91.6041 60.1902 91.7663 59.9301 92.1764 59.6669C92.7274 59.3313 93.3684 59.1731 94.0124 59.2141C94.6576 59.2419 95.2768 59.4769 95.778 59.8842C96.1421 60.1994 96.2523 60.4778 96.1788 60.539Z" fill="#263238"/>
<path d="M82.8649 64.0152C82.8506 64.3139 82.7199 64.5951 82.5009 64.7987C82.2818 65.0023 81.9918 65.1121 81.6929 65.1046C81.5462 65.1078 81.4003 65.0816 81.264 65.0275C81.1276 64.9733 81.0035 64.8923 80.8991 64.7893C80.7946 64.6863 80.7119 64.5633 80.6559 64.4277C80.5999 64.2921 80.5717 64.1466 80.5729 63.9999C80.588 63.7015 80.7189 63.4207 80.9377 63.2173C81.1566 63.0138 81.4462 62.9038 81.7449 62.9105C81.8915 62.9077 82.0371 62.9342 82.1733 62.9885C82.3095 63.0428 82.4334 63.1238 82.5378 63.2268C82.6421 63.3297 82.7248 63.4525 82.781 63.5879C82.8372 63.7233 82.8657 63.8686 82.8649 64.0152V64.0152Z" fill="#263238"/>
<path d="M84.0459 60.0464C83.8929 60.1871 83.0637 59.4925 81.8305 59.4344C80.5973 59.3762 79.6579 59.927 79.5324 59.7679C79.4712 59.6975 79.6304 59.4374 80.0435 59.1743C80.5942 58.8378 81.2354 58.6797 81.8795 58.7214C82.5216 58.7566 83.1358 58.9956 83.6328 59.4038C84.0062 59.7067 84.1194 59.976 84.0459 60.0464Z" fill="#263238"/>
<path d="M87.9751 69.462C87.9751 69.3916 88.7462 69.3029 89.9978 69.2203C90.3038 69.2203 90.6098 69.1591 90.6832 68.9479C90.7566 68.7368 90.6587 68.3788 90.5302 68.0024L89.7407 65.5544C88.6514 62.0629 87.8833 59.1988 88.0241 59.1559C88.1648 59.1131 89.1624 61.9099 90.2517 65.3983C90.5118 66.2613 90.7628 67.0813 90.9984 67.8647C91.0963 68.2288 91.2768 68.6481 91.0902 69.1101C91.0379 69.2183 90.9617 69.313 90.8674 69.3873C90.773 69.4615 90.6629 69.5132 90.5455 69.5385C90.3676 69.5767 90.1855 69.5911 90.0039 69.5814C88.7401 69.5691 87.9751 69.5293 87.9751 69.462Z" fill="#263238"/>
<path d="M87.4824 84.5692C87.4824 84.5692 81.9744 84.6182 76.2461 80.683C76.2461 80.683 78.2412 87.5405 87.2345 87.2376L87.4824 84.5692Z" fill="#FF9A6C"/>
<path d="M87.617 72.3782C87.3638 71.9551 87.0113 71.6 86.5902 71.3436C86.169 71.0872 85.6918 70.9371 85.1996 70.9063C84.8774 70.8901 84.5562 70.9531 84.2639 71.0896C83.9716 71.2262 83.7171 71.4322 83.5228 71.6897C83.3259 71.9819 83.2135 72.3228 83.1978 72.6748C83.1822 73.0268 83.2639 73.3763 83.434 73.6848C83.6384 74.0051 83.9346 74.2565 84.2839 74.406C84.6333 74.5556 85.0195 74.5964 85.3924 74.5232C86.0993 74.3978 86.7021 73.9541 87.2743 73.5104C87.4437 73.3961 87.5866 73.2469 87.6935 73.0728C87.7477 72.9766 87.7761 72.868 87.7761 72.7576C87.7761 72.6472 87.7477 72.5387 87.6935 72.4424" fill="#FF9A6C"/>
<path d="M84.2938 70.0954C84.4958 70.0954 84.4193 71.4327 85.5178 72.4516C86.6164 73.4706 88.0393 73.4063 88.0393 73.5961C88.0393 73.6817 87.7057 73.8378 87.1029 73.8164C86.3182 73.779 85.5713 73.4683 84.9915 72.9382C84.4419 72.4249 84.1128 71.7185 84.0735 70.9675C84.0337 70.4045 84.2051 70.074 84.2938 70.0954Z" fill="#263238"/>
<path d="M84.8936 55.0035C84.7497 55.3309 83.5288 55.0984 82.0722 55.1871C80.6157 55.2759 79.4223 55.6002 79.2479 55.2881C79.1714 55.1381 79.3917 54.8352 79.8843 54.5384C80.5371 54.177 81.2637 53.9696 82.0088 53.9319C82.754 53.8942 83.4978 54.0274 84.1836 54.3211C84.7038 54.5659 84.9548 54.8475 84.8936 55.0035Z" fill="#263238"/>
<path d="M95.9984 56.2703C95.7658 56.5366 94.9335 56.1969 93.9115 56.1204C92.8894 56.0439 92.0143 56.1969 91.8337 55.8909C91.7542 55.744 91.9072 55.4717 92.2989 55.2299C92.8269 54.9411 93.429 54.816 94.0284 54.8705C94.6279 54.925 95.1975 55.1567 95.6649 55.5359C96.0015 55.8419 96.1024 56.1388 95.9984 56.2703Z" fill="#263238"/>
<path d="M104.159 55.4992C103.853 54.1283 103.211 52.7881 102.106 51.919C101.494 51.4447 100.778 51.1234 100.224 50.591C99.0278 49.4374 98.887 47.6014 98.2199 46.0805C97.7796 45.1011 97.1122 44.2407 96.273 43.5708C95.4337 42.9008 94.4469 42.4405 93.3943 42.228C91.644 41.8914 89.7774 42.2617 88.0944 41.6772C86.849 41.2427 85.8085 40.3186 84.5417 39.9605C82.0723 39.2629 79.5815 40.8571 77.6016 42.4912C77.4364 44.2874 78.7644 45.6154 80.0496 46.8914C80.6942 47.526 81.4687 48.0132 82.3198 48.3196C83.1708 48.626 84.0781 48.7443 84.9793 48.6662C86.3716 48.5377 87.9353 47.9777 89.0583 48.8131C90.2394 49.6913 90.1262 51.5671 91.1482 52.6381C92.6109 54.1498 95.2395 53.0818 97.1979 53.8621C98.7065 54.4588 99.5449 56.0286 100.466 57.3658C101.387 58.703 102.828 60.028 104.419 59.7037C104.435 58.2899 104.456 56.8732 104.159 55.4992Z" fill="#263238"/>
<path d="M85.986 46.2427C84.8906 45.8204 82.6506 44.8902 82.1335 43.859C81.0105 41.6221 78.8256 39.9728 76.4511 39.881C75.2203 39.869 74.0187 40.2556 73.0259 40.9831C72.0331 41.7106 71.3024 42.7399 70.9431 43.9171C68.085 43.6876 65.1291 45.236 63.5287 47.8156C63.3264 48.1395 63.1465 48.4769 62.9901 48.8254C62.4755 49.5747 62.1308 50.4274 61.9802 51.3238C61.8295 52.2202 61.8766 53.1388 62.118 54.0151C62.424 55.0647 62.981 56.255 62.3751 57.1639C61.7692 58.0727 60.4075 57.9992 59.3151 58.2685C58.3795 58.5297 57.5654 59.1112 57.0151 59.9116C56.4647 60.712 56.213 61.6803 56.304 62.6474C56.3897 63.3359 56.6529 64.0397 56.4509 64.7037C56.249 65.3677 55.5972 65.842 55.0831 66.35C54.4454 66.9886 53.9864 67.7832 53.7519 68.6547C53.5173 69.5261 53.5155 70.4438 53.7465 71.3162C53.9775 72.1886 54.4333 72.9851 55.0684 73.6262C55.7035 74.2674 56.4957 74.7307 57.3659 74.97C58.1553 75.1842 59.0244 75.227 59.6823 75.7166C60.432 76.2736 60.6951 77.2619 61.1909 78.0575C61.6818 78.8136 62.3911 79.4026 63.2245 79.7464C64.0579 80.0901 64.9761 80.1724 65.8574 79.9823C66.2096 79.8952 66.5484 79.7603 66.8641 79.5814C67.3353 80.374 68.1309 80.9523 69.5722 81.0778L70.8972 62.2557C70.9803 62.4951 71.1204 62.7107 71.3054 62.884C71.4904 63.0572 71.7147 63.1829 71.959 63.2502C74.915 64.1957 75.9033 58.0207 75.377 56.2765C76.5551 55.4044 77.7455 54.52 78.6849 53.3603C79.6243 52.2005 80.6555 48.911 80.6127 47.3841C81.702 47.5493 86.4603 46.4263 85.986 46.2427Z" fill="#263238"/>
<path d="M71.604 63.8622C71.6744 61.9436 69.3733 61.3285 67.626 62.1394C66.6682 62.5831 65.8818 63.5807 65.79 65.6156C65.536 71.041 71.0349 70.178 71.0532 70.022C71.0593 69.9271 71.5092 66.096 71.604 63.8622Z" fill="#FFBF9D"/>
<path d="M69.4895 67.8892C69.4651 67.8708 69.3916 67.9504 69.2264 68.0146C68.9973 68.1005 68.7438 68.0939 68.5195 67.9963C67.9565 67.7606 67.5158 66.8273 67.5342 65.8543C67.5443 65.3886 67.6571 64.9309 67.8647 64.514C67.923 64.3466 68.0211 64.1958 68.1507 64.0748C68.2802 63.9538 68.4373 63.8661 68.6083 63.8194C68.7184 63.7967 68.8329 63.8126 68.9326 63.8645C69.0324 63.9163 69.1112 64.0008 69.156 64.1039C69.2203 64.26 69.1805 64.3671 69.208 64.3793C69.2356 64.3916 69.3304 64.2937 69.2968 64.0733C69.2722 63.9369 69.2021 63.8128 69.0979 63.7214C68.954 63.6028 68.7697 63.5446 68.5838 63.5593C68.3585 63.5923 68.1455 63.6829 67.9654 63.8223C67.7853 63.9616 67.6442 64.1451 67.5556 64.3549C67.3025 64.8135 67.1658 65.3274 67.1578 65.8512C67.1395 66.9467 67.6535 67.9932 68.4277 68.2594C68.5708 68.3091 68.7233 68.3257 68.8738 68.3083C69.0243 68.2908 69.1688 68.2396 69.2968 68.1584C69.462 68.0177 69.5079 67.8983 69.4895 67.8892Z" fill="#FF9A6C"/>
<path d="M78.6604 44.1252C78.694 44.1864 78.1004 44.2323 77.5006 44.9331C76.9009 45.6338 76.5826 47.0169 76.7723 48.6387L76.7907 48.7764L76.6561 48.7978C75.8607 48.9375 75.1082 49.2586 74.457 49.7362C73.8058 50.2138 73.2735 50.8351 72.9014 51.5518C72.6972 51.9579 72.5627 52.3955 72.5036 52.8462C72.4741 53.328 72.4884 53.8114 72.5465 54.2905C72.6091 54.8072 72.6326 55.3279 72.6169 55.8481C72.6063 56.4162 72.4059 56.9645 72.0477 57.4056C71.2858 58.3695 70.1597 58.7765 69.1866 59.1835C68.2294 59.5093 67.3321 59.99 66.5305 60.6064C65.2025 61.6995 64.3386 63.2556 64.1131 64.9608C63.9723 66.113 64.1151 67.2821 64.5293 68.3665C64.8353 69.1346 65.0954 69.514 65.0617 69.5355C64.9807 69.4565 64.9107 69.3669 64.8536 69.2692C64.6758 69.0004 64.5212 68.7168 64.3916 68.4216C63.909 67.3251 63.7202 66.1218 63.8438 64.9302C64.0379 63.1419 64.9149 61.4976 66.2918 60.3402C67.1183 59.688 68.0495 59.181 69.0458 58.8408C70.0189 58.4338 71.0807 58.0237 71.7448 57.1731C72.418 56.405 72.2435 55.3095 72.1732 54.3273C72.1142 53.8194 72.1019 53.3073 72.1364 52.7973C72.2051 52.3047 72.355 51.827 72.5801 51.3835C72.9803 50.6213 73.5537 49.9635 74.2541 49.4629C74.9545 48.9623 75.7625 48.6329 76.6132 48.501L76.4939 48.6601C76.3195 46.9649 76.702 45.5236 77.3813 44.8107C77.6332 44.5353 77.9482 44.3253 78.2993 44.1987C78.4161 44.1593 78.5374 44.1346 78.6604 44.1252Z" fill="#455A64"/>
<path d="M67.2895 69.7344C67.7541 69.3163 68.3124 69.0161 68.9174 68.8592L68.7981 68.8408C68.9097 68.8256 69.022 68.8164 69.1347 68.8133C69.3396 68.7728 69.5507 68.7747 69.7549 68.8189C69.9591 68.8632 70.1521 68.9487 70.3219 69.0703C70.9705 69.3692 71.4829 69.9012 71.7571 70.5606C71.9668 71.142 72.0123 71.77 71.8887 72.3756C71.7651 72.9812 71.4771 73.5411 71.0563 73.9939C70.3342 74.7834 69.1744 75.2424 68.1616 74.9119C67.2436 74.6059 66.601 73.6879 66.4143 72.7056C66.2968 72.1768 66.3155 71.6268 66.4685 71.1071C66.6216 70.5874 66.9041 70.1151 67.2895 69.7344V69.7344Z" fill="#455A64"/>
<path d="M47.8523 94.349C47.8523 94.349 24.48 117.03 24.6912 124.352C24.6788 124.474 24.6542 124.594 24.6177 124.71C23.7671 129.521 27.2616 134.028 32.1086 134.64L41.1417 135.763L60.4381 110.876L55.2147 96.9714L47.8523 94.349Z" fill="white"/>
<path d="M39.78 105.518C39.78 105.518 43.5499 99.1409 47.8554 94.349C51.9313 89.8171 57.3567 88.535 58.5654 88.4676C63.033 88.2565 81.8703 89.5295 93.9543 89.9976C98.4433 90.1782 102.877 92.7853 105.812 96.188C112.382 103.807 123.902 117.388 126.216 121.571C129.496 127.495 127.195 140.983 124.894 142.783C122.593 144.582 51.9864 141.519 51.9864 141.519L39.78 105.518Z" fill="white"/>
<path d="M119.175 121.586C119.126 121.593 119.077 121.593 119.028 121.586L118.606 121.571L118.3 121.555C118.189 121.555 118.067 121.555 117.939 121.555C117.645 121.556 117.352 121.571 117.06 121.601L116.552 121.653C116.375 121.672 116.194 121.715 116.005 121.745C115.625 121.8 115.234 121.913 114.814 122.018C113.012 122.533 111.35 123.449 109.952 124.698C109.649 124.97 109.36 125.257 109.086 125.558C108.961 125.702 108.829 125.833 108.716 125.971C108.602 126.109 108.502 126.246 108.41 126.375C108.229 126.605 108.06 126.844 107.905 127.091C107.831 127.201 107.761 127.299 107.703 127.397L107.556 127.66C107.47 127.804 107.403 127.926 107.345 128.024C107.287 128.122 107.265 128.15 107.259 128.147C107.273 128.099 107.291 128.053 107.314 128.009C107.366 127.908 107.427 127.783 107.501 127.63L107.639 127.357C107.694 127.259 107.761 127.158 107.828 127.051C107.979 126.796 108.143 126.55 108.321 126.314C108.419 126.179 108.523 126.041 108.627 125.901C108.731 125.76 108.869 125.622 108.994 125.475C109.268 125.167 109.557 124.873 109.86 124.594C111.266 123.319 112.951 122.39 114.781 121.883C115.184 121.774 115.592 121.686 116.005 121.62C116.194 121.592 116.378 121.552 116.558 121.537L117.073 121.494C117.368 121.471 117.664 121.464 117.96 121.473C118.092 121.473 118.211 121.473 118.324 121.473L118.63 121.5L119.052 121.546C119.095 121.554 119.136 121.567 119.175 121.586V121.586Z" fill="#263238"/>
<path d="M56.7844 120.625C56.758 120.557 56.7395 120.486 56.7294 120.414L56.5978 119.802C56.4784 119.27 56.2918 118.502 56.0133 117.562C55.2747 115.124 54.4054 112.728 53.4093 110.383C52.2587 107.629 51.0775 105.181 50.1565 103.471C49.93 103.036 49.7158 102.648 49.5231 102.311C49.3303 101.975 49.1712 101.678 49.0304 101.445L48.7244 100.9C48.6839 100.839 48.65 100.773 48.6234 100.705C48.6718 100.761 48.7148 100.821 48.7519 100.885L49.0947 101.415C49.2446 101.641 49.4007 101.932 49.6118 102.265C49.8229 102.599 50.0341 102.984 50.2666 103.416C51.4827 105.656 52.5787 107.959 53.55 110.316C54.5502 112.665 55.4076 115.073 56.1174 117.525C56.3775 118.471 56.5519 119.245 56.6529 119.784C56.6957 120.044 56.7294 120.249 56.7538 120.396C56.7724 120.471 56.7826 120.548 56.7844 120.625V120.625Z" fill="#263238"/>
<path d="M103.428 100.891C103.431 100.917 103.431 100.942 103.428 100.968V101.191C103.428 101.402 103.428 101.69 103.428 102.054C103.428 102.807 103.382 103.89 103.324 105.23C103.214 107.911 102.981 111.61 102.571 115.686C102.161 119.762 101.653 123.431 101.222 126.09C101.011 127.415 100.827 128.483 100.689 129.221C100.622 129.582 100.567 129.863 100.527 130.071L100.481 130.292C100.479 130.317 100.472 130.342 100.46 130.365C100.458 130.34 100.458 130.314 100.46 130.289C100.46 130.227 100.478 130.154 100.49 130.065C100.521 129.857 100.567 129.573 100.622 129.212C100.738 128.456 100.904 127.376 101.105 126.072C101.5 123.422 101.996 119.75 102.406 115.668C102.816 111.586 103.064 107.902 103.208 105.224C103.272 103.896 103.324 102.816 103.361 102.054C103.379 101.69 103.391 101.399 103.4 101.191C103.4 101.099 103.4 101.026 103.416 100.968C103.417 100.942 103.421 100.916 103.428 100.891Z" fill="#263238"/>
<path d="M90.4107 87.77C90.1478 87.6183 89.8513 87.5342 89.5478 87.5252L68.544 85.2241C67.828 85.1445 67.014 85.0925 66.4693 85.5637C65.7747 86.1604 65.8849 87.2651 66.197 88.128C66.5091 88.9909 66.9773 89.8661 66.809 90.7657L89.352 92.1794C89.2112 91.3655 89.8569 90.6494 90.3342 89.9885C90.8116 89.3275 91.0839 88.2443 90.4107 87.77Z" fill="white"/>
<path d="M91.4144 91.7449C91.335 91.7746 91.2531 91.7971 91.1696 91.8122L90.4536 91.9683C90.1476 92.0356 89.759 92.1152 89.3122 92.1856C88.8655 92.2559 88.3606 92.3539 87.7822 92.4151L86.8979 92.5283C86.5919 92.565 86.2645 92.5864 85.9309 92.617C85.2669 92.6874 84.5509 92.7119 83.7889 92.7486C82.156 92.7976 80.5217 92.7588 78.8929 92.6323C77.2648 92.4893 75.6457 92.2575 74.0428 91.9377C73.3084 91.7786 72.6077 91.6317 71.962 91.4542C71.6377 91.3685 71.3225 91.2951 71.0257 91.2064L70.1689 90.9524C69.6211 90.7963 69.1376 90.6158 68.7092 90.472C68.2808 90.3281 67.9167 90.1874 67.6229 90.068L66.9436 89.7957C66.8637 89.7666 66.786 89.7318 66.7111 89.6917C66.7944 89.7098 66.8763 89.7343 66.9559 89.7651L67.6444 90.0099C67.9504 90.1201 68.3084 90.2516 68.7398 90.3863C69.1713 90.5209 69.6578 90.6923 70.2025 90.8422L71.0563 91.0901C71.3623 91.1727 71.6683 91.2431 71.9926 91.3288C72.6383 91.5001 73.339 91.6348 74.0734 91.7939C77.2689 92.4295 80.5262 92.7005 83.7828 92.6017C84.5325 92.5711 85.2455 92.5497 85.9095 92.4854C86.243 92.4579 86.5643 92.4395 86.8703 92.4059L87.7577 92.3049C88.3208 92.2498 88.8287 92.1611 89.2877 92.0968C89.7467 92.0326 90.117 91.9652 90.4291 91.9071L91.1482 91.7786C91.2357 91.759 91.3248 91.7477 91.4144 91.7449Z" fill="#263238"/>
<g opacity="0.3">
<path d="M40.0646 114.009C38.0528 114.363 36.1773 115.265 34.6438 116.614C33.1103 117.963 31.978 119.709 31.3711 121.659C32.4207 121.314 33.4213 120.411 34.1863 119.609C36.1784 117.519 38.6355 116.121 41.5058 115.815C43.4826 115.601 45.3737 116.121 47.2219 116.846C48.0573 117.177 48.9906 117.36 49.7372 117.865L50.7256 118.092C48.4031 114.75 44.0823 113.361 40.0646 114.009Z" fill="black"/>
</g>
<g opacity="0.3">
<path d="M68.2931 90.27C71.2766 92.9751 75.1842 94.8967 79.202 95.1874C83.2198 95.4781 87.0693 94.1929 90.4108 91.9408C82.2498 93.2199 74.8231 92.7853 68.2931 90.27Z" fill="black"/>
</g>
<g opacity="0.3">
<path d="M119.551 119.26C118.893 118.844 118.058 118.853 117.284 118.954C112.431 119.53 107.733 122.835 107.253 128.165C109.297 124.212 113.502 121.314 117.936 121.696C118.682 121.76 119.57 121.849 120.047 121.271C120.524 120.693 120.206 119.68 119.551 119.26Z" fill="black"/>
</g>
<path d="M26.5486 144.738L66.347 144.536C66.347 144.536 66.0838 145.304 67.7331 145.304L80.8911 145.212C80.8911 145.212 81.8642 145.304 81.8795 144.536C81.8795 144.536 112.733 145.056 120.356 145.27C120.925 145.286 121.935 144.94 121.461 144.215L118.801 141.029L74.7803 136.745L43.5683 140.026L32.8583 136.158H32.5034C32.359 136.157 32.2166 136.191 32.0883 136.257C31.9599 136.324 31.8494 136.419 31.7659 136.537L26.2579 144.187C26.2217 144.24 26.2006 144.302 26.1969 144.366C26.1932 144.43 26.2071 144.494 26.237 144.55C26.2669 144.607 26.3117 144.655 26.3667 144.688C26.4216 144.721 26.4845 144.738 26.5486 144.738V144.738Z" fill="#455A64"/>
<path opacity="0.2" d="M43.3755 143.817L114.276 144.365L97.6017 139.199L76.8152 139.784L56.0163 138.955L43.3755 143.817Z" fill="black"/>
<path d="M74.3855 142.415L74.7803 133.691C74.7803 133.691 74.8598 128.893 69.0795 127.293C63.2992 125.693 56.0959 127.731 49.367 128.095C42.638 128.459 42.7176 127.948 42.7176 127.948L37.2555 136.381L58.7092 139.508C58.7092 139.508 71.1389 140.234 71.3745 140.307C71.6101 140.381 74.3855 142.415 74.3855 142.415Z" fill="white"/>
<path d="M74.3152 142.725L74.7803 134.527C74.7803 134.527 74.7007 129.744 80.478 128.131C86.2553 126.519 93.4585 128.566 100.187 128.93C104.897 129.184 106.356 129.141 106.809 129.092C106.872 129.085 106.936 129.096 106.994 129.122C107.051 129.149 107.101 129.19 107.137 129.242L112.302 137.217L90.8514 140.344C90.8514 140.344 78.4217 141.072 78.183 141.142C77.9443 141.213 74.3152 142.725 74.3152 142.725Z" fill="white"/>
<path d="M27.9133 144.089L37.2555 136.381C37.2555 136.381 56.61 133.11 63.1737 134.273C69.7374 135.436 73.4828 137.691 74.3855 142.489L68.082 144.089C65.4779 142.769 62.6106 142.049 59.6914 141.984C54.9423 141.911 43.0665 144.092 43.0665 144.092L27.9133 144.089Z" fill="#E0E0E0"/>
<path d="M81.0716 144.089L74.4192 142.415C74.4192 142.415 74.8935 134.793 85.6983 133.52C85.6983 133.52 88.7584 132.529 99.5938 134.564C110.429 136.598 111.549 136.528 111.549 136.528L120.564 144.524C120.564 144.524 115.181 144.961 110.748 144.089C106.314 143.217 98.5565 140.234 90.166 141.109C81.7754 141.984 81.0716 144.089 81.0716 144.089Z" fill="#E0E0E0"/>
<path d="M37.2555 136.381L42.5432 128.22L33.1643 135.705L27.2401 144.089H27.9133L37.2555 136.381Z" fill="#E0E0E0"/>
<path d="M111.513 136.528L107.204 129.288C107.204 129.288 115.787 136.748 115.861 136.959C115.934 137.171 120.537 144.524 120.537 144.524L111.513 136.528Z" fill="#E0E0E0"/>
<path d="M67.7332 144.089H81.035L74.3856 142.415L74.0368 142.489" fill="#263238"/>
<path d="M74.3856 142.415C74.3397 142.415 74.3856 140.509 74.4835 138.165C74.5814 135.821 74.7007 133.918 74.7436 133.921C74.7864 133.924 74.7436 135.824 74.6426 138.171C74.5416 140.518 74.4284 142.419 74.3856 142.415Z" fill="#263238"/>
<path d="M46.5763 135.035C46.5178 135.055 46.4572 135.068 46.3957 135.075L45.8663 135.166L43.9018 135.472L37.2677 136.476L37.3045 136.461L36.0284 137.443L29.835 142.165L27.947 143.584L27.4268 143.964C27.3679 144.01 27.3055 144.052 27.2401 144.089C27.2903 144.033 27.3467 143.983 27.4084 143.939L27.9072 143.535L29.7646 142.073L35.9305 137.299L37.2065 136.32H37.2249H37.2433L43.8896 135.387L45.8572 135.123L46.3896 135.062C46.4506 135.046 46.5132 135.037 46.5763 135.035V135.035Z" fill="#263238"/>
<path d="M73.5104 137.838C73.5104 137.838 73.489 137.819 73.4523 137.776L73.2901 137.581C73.1493 137.412 72.9351 137.164 72.6383 136.868C71.7957 136.032 70.8298 135.33 69.7741 134.787C68.2051 133.989 66.5179 133.448 64.7772 133.186C62.6425 132.876 60.4868 132.733 58.3297 132.758C54.4079 132.744 50.4911 133.041 46.6161 133.645C45.1289 133.878 43.9324 134.108 43.1062 134.273L42.1546 134.466L41.9067 134.515C41.8783 134.519 41.8495 134.519 41.821 134.515L41.9037 134.487L42.1485 134.426C42.3627 134.374 42.6809 134.294 43.094 134.202C43.9141 134.019 45.1105 133.771 46.5977 133.526C50.4753 132.886 54.3998 132.573 58.3297 132.59C60.4955 132.563 62.6598 132.711 64.8016 133.033C66.5553 133.304 68.2527 133.86 69.8262 134.68C70.8878 135.235 71.8529 135.959 72.6842 136.822C72.9087 137.055 73.1192 137.301 73.3146 137.559L73.4645 137.764C73.4832 137.786 73.4987 137.811 73.5104 137.838Z" fill="#263238"/>
<path d="M73.5104 136.782C73.5104 136.782 73.4889 136.764 73.4553 136.724L73.3053 136.546C73.2411 136.464 73.1585 136.369 73.0575 136.259C72.9565 136.149 72.8433 136.017 72.7056 135.879C71.9309 135.099 71.0489 134.434 70.0862 133.903C68.651 133.121 67.1022 132.568 65.4962 132.265C63.5295 131.906 61.5346 131.723 59.5353 131.718C55.9012 131.644 52.2664 131.835 48.6601 132.29C47.2739 132.467 46.1601 132.642 45.389 132.77L44.5046 132.917L44.2721 132.954H44.1925L44.269 132.933L44.4985 132.88C44.6974 132.838 44.9942 132.773 45.3798 132.703C46.1448 132.556 47.2617 132.363 48.6448 132.174C52.2544 131.685 55.8968 131.48 59.5384 131.562C61.5465 131.567 63.5499 131.756 65.5238 132.125C67.1396 132.437 68.6952 133.005 70.1321 133.808C71.0992 134.349 71.9783 135.034 72.7392 135.84C72.8739 135.983 72.9902 136.112 73.085 136.231C73.1799 136.351 73.2625 136.445 73.3206 136.537L73.4583 136.727C73.4779 136.743 73.4954 136.762 73.5104 136.782Z" fill="#263238"/>
<path d="M73.5104 135.708C73.5104 135.708 73.489 135.693 73.4554 135.653L73.3085 135.475C73.2452 135.392 73.1626 135.297 73.0606 135.191C72.9586 135.085 72.8423 134.959 72.7118 134.814C71.9476 134.039 71.0757 133.377 70.123 132.85C68.7075 132.069 67.1783 131.516 65.5912 131.21C63.6441 130.85 61.6685 130.667 59.6884 130.662C56.0887 130.581 52.4878 130.761 48.9142 131.201C47.5402 131.369 46.4356 131.537 45.6706 131.663L44.7923 131.806L44.5628 131.84C44.5366 131.846 44.5095 131.846 44.4833 131.84L44.5598 131.819L44.7862 131.77C44.9882 131.73 45.2819 131.666 45.6614 131.595C46.4203 131.452 47.5249 131.265 48.8989 131.081C52.477 130.609 56.0863 130.413 59.6945 130.497C61.6829 130.506 63.6662 130.699 65.6187 131.075C67.2186 131.391 68.7578 131.96 70.1781 132.761C71.1338 133.302 72.0033 133.983 72.7577 134.781C72.8923 134.922 73.0025 135.05 73.0973 135.166C73.1922 135.283 73.2718 135.381 73.333 135.472L73.4676 135.659C73.4836 135.674 73.4979 135.69 73.5104 135.708Z" fill="#263238"/>
<path d="M73.5104 134.64C73.5104 134.64 73.489 134.625 73.4553 134.585L73.3115 134.41C73.186 134.257 73.0055 134.034 72.7332 133.762C70.881 131.851 68.5062 130.53 65.9063 129.964C64.1621 129.576 62.1884 129.557 60.126 129.585C55.995 129.609 52.2587 129.787 49.569 130.071C48.2226 130.206 47.121 130.35 46.3896 130.463L45.5267 130.592L45.3003 130.622C45.275 130.627 45.249 130.627 45.2238 130.622C45.2487 130.614 45.2743 130.608 45.3003 130.604L45.5206 130.555C45.7164 130.518 46.0041 130.46 46.3774 130.399C47.124 130.267 48.2134 130.093 49.5567 129.955C53.0687 129.603 56.5964 129.43 60.126 129.438C62.1853 129.414 64.1774 129.438 65.94 129.836C67.5021 130.173 68.9887 130.795 70.3249 131.672C71.2257 132.252 72.0483 132.945 72.7729 133.734C72.9703 133.949 73.1562 134.173 73.3299 134.407L73.4645 134.591C73.4811 134.606 73.4965 134.622 73.5104 134.64V134.64Z" fill="#263238"/>
<path d="M73.5104 133.578C73.5104 133.578 73.492 133.578 73.4584 133.523L73.3145 133.349C73.1921 133.196 73.0085 132.969 72.7576 132.688C72.0603 131.891 71.2668 131.184 70.3953 130.582C69.7944 130.171 69.1512 129.825 68.4767 129.551C67.6967 129.245 66.8878 129.019 66.0623 128.875C64.1652 128.558 62.2404 128.439 60.3187 128.52C56.2214 128.642 52.5249 129.037 49.8443 129.245C48.5041 129.352 47.4208 129.432 46.6681 129.475L45.8051 129.518H45.5787H45.5022H45.5787L45.8021 129.496L46.665 129.423L49.8352 129.141C52.5127 128.906 56.2091 128.493 60.3157 128.37C62.2497 128.285 64.1872 128.405 66.096 128.728C66.9337 128.878 67.7539 129.113 68.544 129.429C69.2255 129.711 69.874 130.067 70.4779 130.491C71.3505 131.104 72.1386 131.829 72.8219 132.648C73.0667 132.936 73.2442 133.168 73.3574 133.33L73.489 133.514C73.4979 133.535 73.5051 133.556 73.5104 133.578V133.578Z" fill="#263238"/>
<path d="M75.4321 137.547C75.4321 137.547 75.4474 137.52 75.4811 137.474L75.6341 137.275C75.8345 137.019 76.0501 136.776 76.2798 136.546C77.1267 135.702 78.1042 134.999 79.1745 134.466C80.7631 133.674 82.4709 133.149 84.2296 132.911C86.3757 132.629 88.5411 132.52 90.7046 132.587C94.6355 132.642 98.5548 133.027 102.421 133.737C103.902 134.013 105.093 134.282 105.913 134.481C106.323 134.579 106.638 134.665 106.852 134.72L107.094 134.787C107.123 134.792 107.15 134.802 107.177 134.814C107.148 134.819 107.119 134.819 107.091 134.814L106.843 134.762L105.897 134.551C105.074 134.374 103.884 134.12 102.4 133.863C98.5369 133.185 94.6262 132.816 90.7046 132.758C88.5487 132.69 86.3908 132.792 84.251 133.064C82.5055 133.294 80.8081 133.802 79.2235 134.57C78.1577 135.092 77.1792 135.777 76.3226 136.598C76.0166 136.889 75.8024 137.131 75.6586 137.299L75.4933 137.492L75.4321 137.547Z" fill="#263238"/>
<path d="M75.4504 136.476L75.4963 136.409L75.6371 136.222C75.6983 136.139 75.7809 136.041 75.8788 135.916C75.9768 135.791 76.093 135.671 76.2307 135.534C77.0073 134.741 77.8998 134.072 78.8776 133.548C80.3275 132.771 81.8927 132.231 83.5135 131.95C85.4938 131.617 87.5003 131.466 89.5081 131.497C93.151 131.487 96.7892 131.761 100.389 132.317C101.769 132.532 102.88 132.746 103.645 132.908C104.028 132.985 104.322 133.055 104.523 133.101L104.75 133.156C104.776 133.161 104.802 133.17 104.826 133.18C104.8 133.184 104.773 133.184 104.747 133.18L104.517 133.141L103.633 132.978C102.865 132.835 101.754 132.639 100.371 132.437C96.7737 131.916 93.143 131.658 89.5081 131.666C87.51 131.634 85.5131 131.78 83.5411 132.103C81.9321 132.376 80.376 132.899 78.9297 133.655C77.9557 134.167 77.061 134.817 76.2736 135.586C76.1328 135.72 76.0135 135.846 75.9156 135.956C75.8176 136.066 75.7258 136.161 75.6616 136.24L75.5086 136.415L75.4504 136.476Z" fill="#263238"/>
<path d="M75.4719 135.417C75.4719 135.417 75.4719 135.393 75.5148 135.35L75.6555 135.166C75.7294 135.06 75.8091 134.958 75.8942 134.86C76.004 134.727 76.1204 134.599 76.243 134.478C77.0114 133.693 77.8934 133.029 78.8593 132.507C80.2934 131.731 81.8433 131.19 83.4493 130.907C85.4092 130.566 87.3966 130.408 89.3857 130.436C92.995 130.419 96.6002 130.681 100.169 131.219C101.537 131.427 102.639 131.635 103.394 131.791C103.774 131.868 104.068 131.938 104.267 131.981L104.49 132.036C104.517 132.04 104.543 132.048 104.566 132.06C104.54 132.064 104.513 132.064 104.487 132.06L104.26 132.024L103.382 131.862C102.623 131.724 101.519 131.534 100.151 131.341C96.585 130.835 92.9872 130.589 89.3857 130.604C87.4064 130.578 85.4287 130.73 83.4769 131.06C81.8843 131.337 80.3449 131.861 78.9144 132.614C77.9521 133.125 77.068 133.771 76.2889 134.533C76.1512 134.664 76.0319 134.79 75.934 134.9C75.8361 135.01 75.7473 135.102 75.6831 135.179L75.5301 135.356C75.4933 135.399 75.475 135.42 75.4719 135.417Z" fill="#263238"/>
<path d="M75.4902 133.578C75.7137 133.26 75.9712 132.968 76.2583 132.706C77.0451 131.993 77.9501 131.422 78.9327 131.02C79.6035 130.732 80.2888 130.48 80.986 130.264C81.7803 129.996 82.5921 129.782 83.4156 129.625C85.166 129.297 87.1274 129.319 89.1593 129.389C93.2413 129.518 96.9072 130.022 99.5633 130.332L102.703 130.711L103.557 130.812L103.777 130.843L103.853 130.858H103.777H103.553L102.697 130.784C101.953 130.717 100.876 130.604 99.551 130.457C96.8949 130.172 93.2321 129.689 89.1623 129.56C87.1274 129.496 85.1843 129.466 83.4493 129.781C82.6309 129.931 81.8234 130.136 81.0319 130.393C80.2822 130.625 79.5937 130.867 78.9817 131.127C78.0053 131.518 77.1005 132.068 76.3042 132.755C76.1802 132.863 76.0617 132.978 75.9492 133.098C75.8614 133.18 75.7786 133.268 75.7014 133.361L75.5514 133.529C75.5117 133.563 75.4933 133.581 75.4902 133.578Z" fill="#263238"/>
<path d="M88.7828 136.354V141.531L90.4995 139.98L92.1794 141.452L92.2774 136.409C92.2774 136.409 89.5172 136.262 88.7828 136.354Z" fill="white"/>
<path d="M108.192 139.362L108.104 139.346L107.85 139.288L106.88 139.056C106.035 138.854 104.811 138.575 103.29 138.275C101.769 137.975 99.9518 137.663 97.9261 137.327L94.7529 136.803C93.6223 136.603 92.4793 136.48 91.3318 136.436C90.1833 136.388 89.033 136.404 87.8863 136.485C86.819 136.551 85.7594 136.709 84.7192 136.956C82.9578 137.392 81.3055 138.187 79.866 139.291C79.3155 139.716 78.7922 140.175 78.2993 140.665C77.8586 141.097 77.5006 141.488 77.2099 141.81L76.552 142.559L76.3807 142.755C76.3409 142.798 76.3195 142.819 76.3164 142.816L76.3684 142.743L76.5275 142.541C76.6683 142.36 76.8825 142.1 77.164 141.77C77.4455 141.439 77.8005 141.042 78.235 140.604C78.7234 140.103 79.2447 139.634 79.7956 139.202C81.2417 138.072 82.91 137.258 84.6916 136.816C85.7391 136.56 86.8071 136.397 87.8832 136.329C89.0359 136.246 90.1924 136.228 91.3471 136.277C92.5009 136.321 93.6502 136.446 94.7866 136.65L97.9598 137.183C99.9824 137.523 101.803 137.85 103.321 138.165C104.839 138.48 106.075 138.777 106.904 138.994C107.323 139.102 107.648 139.193 107.868 139.258L108.116 139.331C108.143 139.337 108.169 139.347 108.192 139.362V139.362Z" fill="#263238"/>
<path d="M72.112 142.902C72.112 142.902 72.0845 142.878 72.0355 142.825L71.8244 142.593C71.7295 142.492 71.6193 142.36 71.4786 142.217C71.3378 142.073 71.1726 141.911 70.9829 141.727C69.9005 140.714 68.677 139.864 67.3507 139.202C65.3794 138.231 63.2625 137.588 61.0838 137.299C58.4119 136.972 55.709 136.992 53.0421 137.357C50.1993 137.709 47.5341 138.275 45.0861 138.777C42.6381 139.279 40.4563 139.713 38.5928 139.983C37.1234 140.202 35.6433 140.341 34.1588 140.399C33.6325 140.414 33.2225 140.42 32.9348 140.414H32.6288H32.5217H32.6288H32.9348C33.2102 140.414 33.6172 140.396 34.1435 140.371C35.6233 140.29 37.0981 140.133 38.5622 139.903C40.4196 139.625 42.6136 139.181 45.0432 138.679C47.4729 138.177 50.1534 137.596 52.9992 137.244C55.6796 136.878 58.3963 136.862 61.0807 137.198C63.2739 137.496 65.4028 138.155 67.3812 139.147C68.7141 139.807 69.9422 140.66 71.0257 141.678L71.5153 142.18C71.653 142.33 71.757 142.464 71.8488 142.568L72.0508 142.81C72.0758 142.838 72.0964 142.868 72.112 142.902V142.902Z" fill="#263238"/>
<path d="M72.112 143.976C72.112 143.976 72.0845 143.952 72.0355 143.9L71.8244 143.667C71.7295 143.566 71.6194 143.434 71.4786 143.291L70.9829 142.801C69.8997 141.789 68.6764 140.939 67.3507 140.276C65.3794 139.305 63.2625 138.662 61.0838 138.373C58.4119 138.046 55.709 138.066 53.0421 138.431C50.1993 138.783 47.5341 139.349 45.0861 139.851C42.6381 140.353 40.4563 140.791 38.5928 141.057C37.1235 141.277 35.6433 141.417 34.1588 141.476C33.6325 141.476 33.2225 141.494 32.9348 141.476H32.6288H32.5217H32.6288H32.9348C33.2102 141.476 33.6172 141.458 34.1435 141.433C35.6233 141.353 37.0981 141.198 38.5622 140.968C40.4196 140.687 42.6136 140.246 45.0432 139.729C47.4729 139.212 50.1534 138.649 52.9992 138.294C55.6796 137.927 58.3963 137.912 61.0807 138.248C63.2736 138.547 65.4023 139.206 67.3813 140.197C68.7097 140.873 69.9306 141.742 71.0043 142.777L71.4939 143.278C71.6316 143.428 71.7356 143.563 71.8274 143.667L72.0294 143.912C72.0937 143.945 72.1151 143.973 72.112 143.976Z" fill="#263238"/>
<path d="M68.9663 143.064C68.9068 143.027 68.8505 142.985 68.798 142.939C68.6878 142.856 68.5379 142.718 68.3237 142.565C67.7362 142.12 67.1129 141.724 66.4602 141.381C65.4919 140.873 64.4723 140.468 63.4185 140.176C62.1277 139.818 60.8042 139.592 59.4681 139.499C57.0334 139.378 54.5926 139.5 52.1822 139.863L49.9851 140.169L49.3731 140.252C49.304 140.26 49.2342 140.26 49.165 140.252C49.2319 140.23 49.3005 140.214 49.3701 140.203L49.9637 140.093C50.4778 139.998 51.2244 139.87 52.1547 139.732C54.5711 139.337 57.0226 139.2 59.4681 139.322C60.8147 139.414 62.148 139.647 63.4461 140.016C64.5085 140.318 65.5347 140.736 66.5061 141.262C67.1541 141.613 67.7686 142.023 68.3421 142.486C68.5501 142.648 68.694 142.792 68.798 142.884C68.8621 142.936 68.9188 142.997 68.9663 143.064V143.064Z" fill="#263238"/>
<path d="M57.1853 121.409L67.9932 119.074C67.9932 119.074 72.0446 118.257 72.828 118.688C73.6114 119.12 78.1249 122.73 78.5135 123.067C78.9021 123.404 83.2167 128.575 83.2167 128.575C83.2167 128.575 83.1188 130.212 80.7503 129.554C79.5263 129.218 74.3488 124.689 74.3488 124.689L73.134 123.734C73.134 123.734 75.022 126.66 74.9853 127.62C74.9486 128.581 73.746 130.5 73.3329 130.763C72.9198 131.026 70.8512 130.665 70.8512 130.665C70.8512 130.665 69.3824 132.25 68.2288 131.002C68.2288 131.002 66.2612 133.049 64.6639 131.862L63.8071 130.182L62.9901 129.548C62.9901 129.548 62.8646 130.705 62.0721 130.833C61.2796 130.962 52.3903 129.046 52.3903 129.046L55.4503 120.683L57.1853 121.409Z" fill="#FFBF9D"/>
<path d="M68.6756 124.368C68.766 124.41 68.8495 124.466 68.9234 124.533C69.0764 124.652 69.2937 124.839 69.5354 125.062C70.2044 125.671 70.8019 126.353 71.3163 127.097C71.4586 127.317 71.5756 127.552 71.6652 127.798C71.7641 128.029 71.7948 128.284 71.7539 128.532C71.6972 128.938 71.5882 129.335 71.4296 129.713C71.3313 129.97 71.2051 130.216 71.0532 130.445C71.0009 130.532 70.931 130.607 70.8482 130.665C70.8482 130.665 70.9094 130.576 71.0012 130.411C71.1311 130.174 71.2396 129.927 71.3255 129.671C71.4648 129.298 71.5603 128.911 71.6101 128.517C71.6208 128.406 71.6208 128.294 71.6101 128.183C71.5894 128.07 71.5587 127.958 71.5183 127.85C71.4285 127.616 71.3147 127.393 71.1787 127.183C70.6711 126.454 70.0964 125.775 69.462 125.154C68.9846 124.661 68.6603 124.386 68.6756 124.368Z" fill="#FF9A6C"/>
<path d="M63.0973 125.328C63.2016 125.274 63.3144 125.238 63.4308 125.221C63.7454 125.153 64.0695 125.139 64.3886 125.182C65.4506 125.338 66.4082 125.906 67.0539 126.764C67.3887 127.242 67.6421 127.772 67.8036 128.333C67.9388 128.784 68.0411 129.245 68.1096 129.71C68.1708 130.105 68.2044 130.429 68.2228 130.653C68.2368 130.769 68.2368 130.886 68.2228 131.002C68.1952 131.002 68.1402 130.512 67.9902 129.729C67.9019 129.272 67.7875 128.82 67.6475 128.376C67.4849 127.83 67.236 127.314 66.9101 126.846C66.568 126.398 66.1392 126.024 65.6493 125.745C65.2489 125.514 64.8106 125.356 64.355 125.279C63.9356 125.233 63.5117 125.249 63.0973 125.328V125.328Z" fill="#FF9A6C"/>
<path d="M69.4988 121.191C69.4988 121.191 69.56 121.161 69.6824 121.133C69.7579 121.118 69.835 121.113 69.9119 121.118C70.0149 121.116 70.1177 121.127 70.2179 121.152C70.7875 121.298 71.3127 121.582 71.7479 121.978C72.1903 122.351 72.5868 122.775 72.929 123.241C73.0861 123.424 73.2122 123.63 73.3024 123.853C73.133 123.685 72.9746 123.506 72.8281 123.318C72.4635 122.878 72.0634 122.468 71.6316 122.094C71.214 121.715 70.7207 121.429 70.1842 121.256C69.9585 121.211 69.7288 121.19 69.4988 121.191V121.191Z" fill="#FF9A6C"/>
<path d="M55.2882 119.551L49.8781 117.443L39.9178 117.954L34.9545 124.649L32.9624 134.291C32.9624 134.291 51.2031 130.286 51.7814 130.231C52.3597 130.175 53.29 129.239 53.29 129.239L55.2361 129.646L57.73 121.292L55.2882 119.551Z" fill="white"/>
<path d="M58.5471 120.846L58.4736 120.827L58.2656 120.751L57.4608 120.445L54.5201 119.309L50.1657 117.608L47.5984 116.595C46.6915 116.212 45.759 115.892 44.8077 115.637C43.8564 115.391 42.8691 115.316 41.8915 115.414C40.9824 115.508 40.09 115.725 39.2385 116.057C37.7948 116.635 36.4441 117.423 35.2299 118.394C34.1803 119.208 33.3939 119.924 32.8278 120.429L32.1913 121.002L32.023 121.145C31.9832 121.179 31.9618 121.194 31.9618 121.191C31.9755 121.171 31.992 121.152 32.0108 121.136L32.1699 120.977L32.7819 120.383C33.3235 119.876 34.1099 119.135 35.1534 118.306C36.3677 117.313 37.7241 116.509 39.1773 115.919C40.0411 115.579 40.9469 115.356 41.8701 115.258C42.8649 115.158 43.8696 115.234 44.8383 115.481C45.7976 115.737 46.7374 116.061 47.6504 116.451L50.2147 117.473L54.5568 119.205L57.4791 120.387L58.2717 120.717L58.4736 120.806L58.5471 120.846Z" fill="#263238"/>
<path d="M102.951 135.512C102.733 135.148 102.645 134.631 103.174 134.01L104.631 133.361C104.797 132.91 105.038 132.49 105.344 132.119C105.717 131.779 106.262 131.344 106.262 131.344C106.262 131.344 107.066 130.231 107.841 129.765C108.615 129.3 110.506 128.805 111.158 128.235C111.809 127.666 113.853 125.879 115.279 126.562C116.705 127.244 117.727 129.64 118.841 130.145C119.955 130.65 120.371 132.324 120.794 133.006C121.216 133.688 121.693 134.184 121.754 134.71C121.816 135.237 123.024 136.292 123.242 137.715C123.459 139.138 123.336 139.637 122.685 140.163C122.033 140.69 120.763 141.745 119.493 141.932C118.78 142.036 117.804 142.1 117.085 142.137C116.799 142.152 116.516 142.081 116.27 141.934C116.025 141.787 115.829 141.57 115.708 141.311L115.619 141.124C115.619 141.124 112.366 142.767 110.818 142.55C109.27 142.333 109.9 141.002 109.9 141.002C109.9 141.002 108.318 142.532 107.326 142.241C106.335 141.95 105.796 141.993 105.717 141.124C105.637 140.255 106.366 139.264 106.366 139.264C106.366 139.264 104.878 139.297 104.756 138.306C104.714 137.601 104.852 136.896 105.157 136.259L103.964 136.124C103.759 136.106 103.562 136.042 103.386 135.936C103.21 135.83 103.062 135.685 102.951 135.512V135.512Z" fill="#FFBF9D"/>
<path d="M111.277 128.872C111.24 128.994 111.191 129.112 111.13 129.224C111.068 129.36 110.996 129.492 110.916 129.619C110.818 129.79 110.711 129.957 110.595 130.117C110.293 130.537 109.961 130.932 109.6 131.302C109.196 131.718 108.731 132.155 108.235 132.605C107.74 133.055 107.281 133.489 106.877 133.903C106.522 134.267 106.193 134.657 105.894 135.068C105.386 135.778 105.191 136.292 105.157 136.271C105.191 136.148 105.237 136.03 105.295 135.916C105.349 135.776 105.416 135.641 105.494 135.512C105.586 135.337 105.688 135.167 105.8 135.004C106.091 134.578 106.417 134.176 106.773 133.802C107.17 133.379 107.636 132.939 108.128 132.489C108.621 132.039 109.089 131.608 109.496 131.201C109.857 130.84 110.193 130.456 110.503 130.05C111.026 129.355 111.246 128.854 111.277 128.872Z" fill="#FF9A6C"/>
<path d="M115.313 130.215C115.305 130.259 115.292 130.301 115.273 130.341C115.243 130.423 115.197 130.54 115.129 130.69C114.941 131.11 114.727 131.519 114.49 131.914C113.705 133.234 112.665 134.385 111.43 135.298C110.717 135.843 110.007 136.314 109.374 136.751C108.74 137.189 108.177 137.599 107.73 137.975C107.375 138.263 107.036 138.569 106.714 138.893C106.606 139.023 106.488 139.145 106.363 139.258C106.451 139.113 106.554 138.976 106.669 138.851C106.975 138.503 107.305 138.176 107.657 137.874C108.101 137.492 108.658 137.07 109.288 136.623C109.918 136.176 110.625 135.705 111.332 135.163C111.998 134.663 112.613 134.098 113.168 133.477C113.618 132.966 114.027 132.421 114.392 131.846C114.698 131.354 114.921 130.928 115.071 130.647C115.141 130.497 115.222 130.353 115.313 130.215V130.215Z" fill="#FF9A6C"/>
<path d="M115.812 130.601C115.839 130.634 115.607 130.892 115.286 131.173C114.964 131.455 114.674 131.657 114.655 131.623C114.637 131.589 114.86 131.335 115.182 131.054C115.36 130.863 115.574 130.709 115.812 130.601Z" fill="#FF9A6C"/>
<path d="M117.74 134.334C117.713 134.47 117.671 134.603 117.614 134.729C117.475 135.081 117.297 135.415 117.082 135.726C116.351 136.74 115.424 137.597 114.355 138.245C113.131 139.028 111.99 139.671 111.191 140.179C110.79 140.43 110.469 140.641 110.249 140.791C110.139 140.874 110.022 140.947 109.9 141.011C109.992 140.91 110.094 140.82 110.206 140.742C110.417 140.576 110.729 140.353 111.124 140.087C111.91 139.551 113.049 138.893 114.263 138.113C115.315 137.474 116.238 136.644 116.984 135.665C117.272 135.243 117.524 134.798 117.74 134.334Z" fill="#FF9A6C"/>
<path d="M120.907 136.351C120.877 136.443 120.835 136.53 120.781 136.611C120.696 136.773 120.555 136.999 120.371 137.272C119.882 137.978 119.319 138.631 118.691 139.218C118.345 139.538 117.98 139.839 117.599 140.117C117.283 140.342 116.954 140.546 116.614 140.729C116.47 140.809 116.335 140.87 116.216 140.925C116.096 140.98 115.992 141.023 115.91 141.054C115.823 141.096 115.73 141.124 115.634 141.136C115.634 141.112 116.002 140.959 116.552 140.628C116.881 140.436 117.198 140.225 117.504 139.998C117.847 139.738 118.214 139.438 118.578 139.101C119.196 138.518 119.763 137.884 120.273 137.204C120.668 136.684 120.87 136.338 120.907 136.351Z" fill="#FF9A6C"/>
<path d="M105.91 132.847C105.476 133.085 105.025 133.29 104.56 133.459C104.11 133.669 103.647 133.848 103.174 133.997C103.15 133.948 103.74 133.63 104.499 133.312C105.258 132.994 105.891 132.804 105.91 132.847Z" fill="#FF9A6C"/>
<path d="M106.794 127.164C107.325 127.148 107.856 127.164 108.385 127.213C107.325 127.283 106.261 127.283 105.2 127.213C105.73 127.164 106.262 127.148 106.794 127.164V127.164Z" fill="white"/>
</svg>
